{"glyphs":{"0":{"ha":639,"x_min":21,"x_max":642,"o":"m 321 1090 q 425 1014 389 1090 q 474 926 454 953 q 517 908 479 917 q 543 894 536 904 q 617 757 588 833 q 642 650 642 690 q 633 607 642 615 q 594 599 625 599 q 544 599 568 599 q 488 596 521 599 q 575 394 497 557 q 601 299 601 339 q 590 251 601 286 q 578 211 578 215 q 533 38 578 114 q 540 23 532 33 q 546 7 549 13 q 511 -64 528 -42 q 464 -92 490 -92 q 440 -92 451 -92 q 419 -74 424 -89 q 411 -43 415 -60 q 401 -47 410 -40 q 388 -53 392 -53 q 386 -40 381 -51 q 407 -17 392 -28 q 451 21 429 1 q 457 56 457 33 q 456 83 457 64 q 454 114 454 103 q 440 167 454 142 q 393 261 397 246 l 371 261 l 318 207 l 313 200 l 340 147 q 353 113 340 138 q 367 76 367 88 l 371 47 q 354 31 371 42 q 331 11 338 19 q 265 -25 297 -25 q 271 4 268 -10 q 229 -12 247 -7 q 197 -14 211 -18 q 188 -11 190 -14 q 181 14 181 -1 q 185 27 181 22 q 196 38 189 32 q 218 49 203 44 q 238 44 231 43 q 257 51 246 46 q 274 63 271 61 q 213 104 232 82 q 182 192 182 138 q 167 269 182 217 q 158 322 158 299 q 160 350 158 339 q 194 413 160 400 q 219 422 207 417 q 229 431 232 426 q 201 489 219 446 q 146 579 172 558 q 143 593 144 581 q 138 606 142 606 q 50 626 79 606 q 21 681 21 646 q 50 754 21 721 q 122 813 72 779 q 132 837 126 815 q 142 863 138 858 q 164 878 153 874 q 179 885 175 883 q 183 897 183 886 q 179 922 183 907 q 171 961 169 957 q 203 1011 176 982 q 229 1038 222 1031 q 253 1064 246 1056 q 276 1083 267 1079 q 294 1089 285 1088 q 321 1090 304 1090 z "},"1":{"ha":819,"x_min":50,"x_max":783,"o":"m 203 1122 q 347 1028 304 1122 q 425 833 386 931 q 510 709 457 781 q 578 610 563 638 q 636 457 610 551 q 696 265 674 321 q 743 181 708 231 q 783 122 763 151 q 746 98 767 107 q 710 89 725 89 q 654 99 682 89 q 558 144 640 103 q 540 89 540 121 q 549 45 540 68 q 568 -1 558 22 q 540 14 553 7 q 517 24 526 21 q 485 28 508 26 q 446 33 461 31 q 410 44 431 36 q 400 49 407 46 q 368 45 386 49 q 347 42 350 42 q 294 46 321 42 q 221 63 268 50 q 272 100 232 74 q 324 144 313 126 q 335 183 335 161 q 336 214 336 206 q 338 236 338 228 q 329 267 338 253 q 233 385 257 350 q 172 558 172 476 q 211 692 172 621 q 299 871 299 851 q 291 943 299 918 q 269 976 283 968 q 251 976 264 978 q 228 973 239 974 q 203 972 218 972 q 183 965 199 971 l 143 956 q 122 954 136 954 q 50 976 86 954 q 86 1000 76 993 q 115 1026 104 1013 q 167 1101 140 1064 q 203 1122 185 1122 m 400 99 q 421 104 414 101 q 461 126 440 111 q 477 156 472 135 q 483 183 482 178 q 413 217 447 200 q 394 187 401 213 q 386 135 386 161 q 388 121 386 124 l 388 114 l 400 99 z "},"2":{"ha":857,"x_min":65,"x_max":758,"o":"m 500 932 q 436 1032 481 1000 q 328 1064 392 1064 q 235 1048 281 1064 q 150 997 190 1032 q 104 942 124 972 q 65 868 92 922 q 215 835 140 851 q 172 753 213 819 q 131 625 131 688 q 172 439 131 547 q 279 250 213 331 q 306 219 283 244 q 329 192 322 200 q 336 174 336 183 q 332 144 333 158 q 306 19 332 75 q 276 6 303 11 q 219 -6 250 0 q 225 -17 222 -11 q 232 -31 228 -24 q 263 -32 242 -32 q 319 -27 286 -32 q 363 -22 353 -22 q 369 -6 363 -15 q 372 8 376 4 q 358 10 368 11 q 340 7 349 8 l 360 79 l 385 167 q 458 135 433 147 q 510 106 483 124 q 499 67 508 103 q 478 19 489 32 q 464 13 474 13 q 443 17 457 13 q 424 21 429 21 q 425 2 424 13 q 422 -10 426 -8 q 485 -32 457 -24 q 540 -40 514 -40 q 560 -38 551 -40 q 579 -33 568 -36 l 561 -11 q 536 -14 543 -14 q 519 -10 526 -14 q 533 42 519 8 q 547 90 547 75 q 610 67 581 83 q 685 21 647 43 q 728 22 718 21 q 758 31 746 28 q 744 64 750 51 q 710 142 719 117 q 706 156 707 149 q 707 167 704 163 q 726 177 710 169 q 743 192 743 185 q 726 205 743 197 q 708 215 708 213 q 708 275 708 250 q 710 312 708 300 q 711 344 711 324 q 676 495 711 417 q 582 644 640 574 q 504 733 543 689 q 488 792 488 758 q 497 858 488 799 q 503 908 503 893 q 500 932 503 918 z "},"3":{"ha":1592,"x_min":18,"x_max":1574,"o":"m 643 679 q 747 666 679 668 q 838 661 814 664 q 913 665 861 661 q 992 669 964 669 q 1060 663 1022 669 q 1229 553 1143 644 q 1321 444 1250 529 q 1400 375 1349 410 q 1481 321 1440 347 q 1517 331 1485 318 q 1556 339 1549 343 q 1574 306 1574 322 q 1569 292 1574 297 q 1560 278 1565 286 q 1540 260 1554 269 q 1522 249 1526 251 q 1510 246 1517 246 q 1446 276 1479 246 q 1419 313 1413 306 q 1414 320 1421 317 q 1401 328 1407 324 q 1347 376 1385 354 q 1331 385 1342 379 q 1317 301 1331 346 q 1286 188 1286 204 q 1272 175 1286 179 q 1260 164 1258 171 q 1263 147 1261 154 q 1265 125 1265 139 q 1257 85 1265 108 q 1251 40 1251 74 l 1251 24 q 1258 8 1253 13 q 1263 -10 1263 3 q 1235 -32 1244 -25 q 1185 -54 1203 -54 q 1161 -51 1163 -53 q 1136 -33 1153 -43 q 1129 -22 1129 -29 q 1138 -4 1129 -17 q 1158 31 1157 25 q 1160 44 1160 36 q 1160 54 1160 51 q 1151 90 1160 61 q 1143 179 1143 119 q 1129 175 1133 176 q 1117 160 1115 168 q 1118 143 1118 154 q 1107 89 1118 108 q 1072 57 1089 72 q 1060 15 1060 40 l 1060 -7 q 1050 -18 1060 -14 q 1024 -22 1040 -22 q 958 -7 985 -22 q 943 4 946 0 q 954 29 935 15 q 983 59 979 47 q 988 86 986 71 q 989 115 989 101 q 988 138 988 129 q 990 161 988 144 q 986 169 992 169 q 978 167 981 168 q 934 155 957 160 q 889 150 911 150 q 856 153 878 150 q 789 183 833 157 q 768 126 775 147 q 732 21 742 54 q 728 -26 729 -8 q 713 -54 728 -44 q 697 -57 708 -57 q 672 -51 689 -57 q 649 -46 656 -46 q 604 -49 626 -47 q 601 -24 596 -46 q 606 3 607 -3 q 590 6 606 6 q 538 2 583 6 q 492 3 493 -1 q 515 42 490 24 q 544 67 539 60 q 546 73 546 71 q 547 82 546 75 q 531 146 547 110 q 493 229 496 221 q 492 235 492 232 q 496 261 500 258 l 446 403 q 431 376 439 383 q 404 357 424 368 q 392 332 399 338 q 390 315 390 324 q 367 326 386 315 q 343 331 347 336 q 276 263 324 301 q 160 174 244 236 q 133 167 150 167 q 113 174 122 167 q 156 215 131 181 q 178 251 164 226 q 121 226 147 242 q 69 179 86 206 q 56 186 58 183 q 38 208 40 193 q 35 236 35 222 q 43 288 35 247 q 44 315 46 303 q 36 332 44 322 q 26 347 28 342 q 18 407 18 376 q 18 424 18 415 q 21 436 21 433 q 24 453 21 439 q 35 475 28 468 q 56 472 46 486 q 68 444 60 465 q 82 418 76 424 q 119 454 110 442 q 149 510 140 481 q 149 550 149 529 q 188 604 168 576 q 190 624 190 613 q 190 640 190 636 q 189 665 189 653 q 204 700 192 689 q 215 708 211 706 q 239 721 233 721 q 250 709 244 721 q 261 688 256 697 q 267 699 265 696 q 278 711 274 711 q 291 707 288 710 q 295 702 294 704 q 297 696 296 700 q 324 718 300 697 q 378 743 347 739 q 450 747 410 747 q 544 732 508 747 q 643 679 593 706 z "},"4":{"ha":1108,"x_min":15,"x_max":1093,"o":"m 342 810 q 336 851 338 824 q 335 883 335 879 q 335 917 335 900 q 336 950 335 933 q 321 1053 336 1021 q 239 1099 299 1099 q 196 1082 221 1099 l 176 1067 q 131 1032 133 1033 q 15 974 74 992 q 86 979 54 974 q 168 993 167 993 q 263 960 240 993 q 272 918 272 944 q 271 883 272 896 q 264 819 264 822 q 273 697 264 742 q 319 632 282 653 q 361 618 326 628 q 410 600 396 608 q 514 513 413 599 q 587 469 553 479 q 632 419 621 460 q 638 350 638 399 q 631 282 638 326 q 618 189 625 238 l 618 157 q 615 77 618 111 q 597 17 611 43 q 576 17 592 7 q 556 26 560 28 q 565 14 560 19 q 583 -6 582 -1 q 568 -25 583 -11 q 557 -43 553 -39 q 578 -34 563 -50 q 603 -17 594 -18 q 621 -31 617 -24 q 632 -37 626 -33 q 627 -17 635 -26 q 619 0 619 -7 q 625 15 624 8 q 637 61 632 38 q 642 131 642 85 q 643 200 643 176 q 650 214 644 207 q 657 225 656 221 q 654 258 653 250 l 692 443 q 697 449 693 447 q 707 451 701 450 q 778 433 756 440 q 836 386 847 410 q 835 339 835 363 q 813 288 824 313 q 753 203 782 244 q 685 74 714 133 q 658 18 674 51 q 647 11 650 13 q 636 -3 635 3 q 653 -3 644 -3 q 677 -3 672 3 q 684 -33 682 -10 q 692 -57 686 -57 q 699 -37 697 -57 q 703 -15 700 -17 q 724 -29 704 -14 q 733 -32 728 -31 q 715 -5 738 -19 q 694 22 692 10 q 810 242 710 94 q 888 393 865 324 q 875 403 879 400 q 850 419 858 415 q 888 431 869 429 q 919 435 906 433 l 951 447 q 992 417 978 428 q 1058 358 1040 378 q 1087 413 1081 394 q 1093 449 1093 432 q 1092 475 1092 465 q 1078 593 1092 556 q 997 665 1057 650 q 931 700 967 674 q 819 779 828 775 q 673 836 740 817 q 558 856 606 856 q 544 854 549 854 q 467 812 513 850 q 401 774 422 774 q 388 776 392 774 q 371 792 376 788 q 352 799 360 796 q 342 810 344 801 z "},"5":{"ha":1194,"x_min":13,"x_max":1194,"o":"m 15 824 q 84 944 15 875 q 208 1013 153 1013 q 347 907 254 1013 q 478 801 440 801 q 553 809 501 801 q 619 817 606 817 q 672 811 638 817 q 724 806 707 806 q 751 808 738 806 q 829 824 765 810 q 925 838 893 838 q 1028 822 981 838 q 1108 771 1075 806 q 1172 674 1150 729 q 1194 567 1194 618 q 1176 499 1194 524 q 1135 474 1158 474 q 1107 467 1129 474 q 1090 464 1099 464 q 1129 287 1110 375 q 1149 111 1149 199 q 1135 44 1149 72 q 1097 -4 1121 17 q 1051 -19 1082 -17 q 1006 -22 1019 -21 l 1007 -11 q 1053 61 1046 46 q 1074 142 1074 101 q 1018 315 1074 194 q 911 449 957 449 q 840 428 908 449 q 789 422 811 419 q 701 431 761 428 q 624 438 642 435 q 586 444 606 440 q 565 428 575 444 q 492 176 503 324 q 457 8 482 28 q 426 -6 439 -4 q 399 -8 418 -6 q 378 -10 381 -10 q 347 -6 363 -10 q 404 88 388 42 q 417 165 417 122 q 415 206 417 179 q 414 244 414 232 q 425 317 421 282 q 429 361 429 351 q 425 397 429 381 q 389 442 417 422 q 338 486 353 467 q 301 551 314 519 q 283 622 289 582 q 239 704 276 661 q 210 740 215 732 q 153 714 181 726 l 125 721 l 126 743 l 129 771 q 78 761 103 765 q 47 757 54 757 q 31 763 38 757 q 19 778 25 768 q 13 800 13 788 q 15 824 13 813 z "},"6":{"ha":1167,"x_min":14,"x_max":1131,"o":"m 253 774 q 304 846 265 786 q 407 943 364 936 q 424 927 415 943 q 436 908 432 911 l 463 915 q 473 917 465 917 q 488 919 481 918 q 493 903 492 908 q 500 867 500 879 q 500 858 500 863 q 497 851 497 853 q 446 740 465 783 q 408 611 408 657 q 422 592 407 600 q 451 588 438 583 q 525 618 499 607 q 611 636 578 639 q 683 619 656 626 q 922 519 850 574 q 977 472 953 497 q 1012 422 1001 447 q 1026 360 1022 396 q 1033 302 1031 324 q 1038 253 1036 281 q 1040 219 1039 226 q 1051 210 1046 214 q 1072 225 1065 221 q 1108 240 1096 240 q 1119 235 1115 240 q 1131 197 1131 217 q 1113 150 1131 175 q 1054 97 1096 125 q 1040 93 1047 93 q 1031 95 1036 93 q 1025 99 1026 97 q 1003 103 1007 107 q 968 72 986 85 q 933 47 935 49 q 886 -1 910 22 q 801 -21 860 -14 q 690 -44 700 -33 q 663 -46 678 -44 q 646 -47 647 -47 q 618 -42 629 -47 q 599 -24 607 -37 q 594 -15 596 -19 q 593 -4 593 -11 q 601 13 593 6 q 631 37 608 21 q 653 57 653 53 q 628 66 640 63 q 610 69 617 69 q 572 72 583 69 l 514 92 q 501 76 506 81 q 476 54 489 63 l 442 31 q 417 43 433 33 q 400 53 411 46 q 385 26 396 53 q 354 -14 374 0 q 322 -28 343 -22 q 283 -37 301 -35 q 258 -34 267 -37 q 242 -15 249 -31 q 243 5 236 -8 q 261 28 250 18 q 325 82 293 54 q 335 111 335 99 q 329 122 335 118 q 228 213 275 150 q 181 336 181 276 q 79 364 136 331 q 14 451 14 403 q 86 618 14 519 q 228 714 164 724 q 238 738 233 713 q 253 774 243 763 z "},"7":{"ha":1928,"x_min":29,"x_max":1918,"o":"m 735 783 q 788 838 749 783 q 878 893 828 893 q 965 847 929 893 q 1007 744 1001 800 q 1062 753 1029 744 q 1104 764 1094 763 q 1242 774 1164 774 q 1526 703 1433 774 q 1629 532 1600 647 q 1662 489 1635 508 q 1715 451 1689 469 q 1800 379 1758 410 q 1918 311 1856 339 q 1906 303 1915 311 q 1896 294 1903 300 q 1769 332 1822 304 q 1635 444 1706 367 l 1624 411 l 1629 411 q 1608 347 1626 396 q 1592 275 1589 297 q 1633 184 1594 250 q 1672 90 1672 118 q 1647 53 1672 64 q 1551 10 1575 18 q 1492 -1 1528 1 q 1447 24 1471 -1 q 1418 61 1433 38 q 1313 39 1379 47 q 1251 33 1290 36 q 1268 88 1261 69 q 1303 186 1294 158 q 1206 176 1260 181 q 1103 172 1151 172 q 959 179 1022 172 q 813 208 896 186 q 793 104 800 142 q 754 -4 779 33 q 707 -40 739 -29 q 628 -50 675 -50 l 601 -50 q 559 -46 574 -50 q 531 -25 544 -42 q 539 11 524 -15 q 546 39 549 26 q 524 63 543 54 q 479 92 479 82 q 531 167 479 97 q 588 256 582 238 q 578 267 589 261 q 568 278 568 272 l 513 311 q 413 233 467 265 q 282 183 347 194 l 271 194 q 360 254 303 206 q 440 333 406 293 q 374 310 400 317 q 225 286 293 286 q 117 313 174 286 q 29 367 75 332 l 43 397 q 114 368 78 382 q 174 358 142 358 q 246 374 208 358 q 302 404 269 383 q 357 451 335 425 q 403 518 379 476 q 503 694 453 606 q 690 783 571 783 l 735 783 z "},"8":{"ha":896,"x_min":50,"x_max":838,"o":"m 253 796 q 151 757 193 796 q 101 622 101 710 q 129 501 101 585 q 183 417 157 417 q 203 420 192 417 q 217 424 215 424 q 227 416 222 424 q 232 397 232 408 q 215 346 232 376 q 178 274 178 276 l 178 239 q 176 213 178 222 q 165 192 175 203 q 121 172 156 182 q 79 158 86 163 q 59 149 67 154 q 50 133 51 144 q 82 110 50 110 q 97 108 86 108 q 128 110 106 108 q 164 111 151 111 q 254 157 231 111 q 265 201 260 168 q 275 251 269 233 q 299 290 281 261 q 325 332 318 318 l 356 297 q 325 192 356 231 q 258 129 281 153 q 248 112 257 128 q 225 86 239 96 q 189 61 218 79 q 154 31 160 43 q 162 15 151 26 q 172 -1 172 3 l 125 -49 q 160 -78 140 -67 q 200 -90 179 -90 q 219 -87 206 -90 q 249 -67 232 -83 q 279 -31 267 -51 q 321 43 317 38 q 357 81 339 68 q 419 109 375 93 q 490 128 463 125 q 507 126 501 129 q 517 118 513 124 q 424 69 489 96 q 374 38 374 50 q 351 3 374 24 q 328 -31 328 -17 q 353 -58 328 -47 q 407 -69 378 -69 q 455 -47 426 -69 q 494 -21 483 -24 q 563 -8 540 -12 q 606 11 586 -4 q 619 56 617 22 q 628 101 622 89 q 653 118 635 113 q 696 124 671 124 q 735 87 713 124 q 758 22 758 50 q 683 -64 758 -10 q 514 -168 622 -108 q 417 -210 460 -197 q 344 -222 374 -222 q 301 -218 322 -219 q 301 -241 296 -226 q 325 -256 307 -256 q 347 -257 333 -256 q 372 -258 360 -258 q 448 -247 410 -258 q 539 -207 486 -236 q 739 -83 675 -135 q 838 61 838 -6 q 796 169 838 85 q 775 239 775 213 q 775 295 775 267 q 776 353 775 324 q 768 476 776 426 q 735 571 760 526 q 688 657 710 615 q 608 728 656 707 q 485 744 582 740 q 349 760 389 749 q 306 778 340 761 q 253 796 272 796 z "},"9":{"ha":861,"x_min":63,"x_max":799,"o":"m 326 1033 q 364 1051 342 1044 q 404 1057 386 1057 q 449 1047 442 1057 q 461 1057 458 1056 l 465 1054 l 457 1032 q 464 994 464 1014 q 457 953 464 976 q 438 906 450 929 q 378 810 425 882 q 308 646 308 703 q 414 571 308 574 q 525 550 519 568 q 539 543 533 546 q 572 524 557 533 q 613 491 594 508 q 643 454 632 474 q 692 394 647 447 q 739 314 726 354 q 768 164 768 221 q 767 136 768 151 q 760 88 761 104 q 772 58 758 76 q 799 21 793 32 q 769 11 783 15 q 743 10 753 10 q 715 15 728 10 q 632 79 674 47 q 584 92 610 88 q 542 97 558 97 q 506 91 518 97 q 491 58 494 85 q 486 14 488 31 q 453 15 475 14 q 422 17 432 17 q 383 12 401 17 q 314 7 364 7 q 277 7 296 7 q 239 8 258 7 q 218 3 228 3 q 229 18 226 10 q 235 38 232 26 q 250 52 239 49 q 272 56 261 56 q 304 51 285 56 q 344 44 324 47 q 361 48 353 44 q 374 60 369 51 q 383 79 378 69 q 408 104 396 92 q 413 133 413 111 q 339 201 364 176 q 244 314 260 278 q 204 414 213 388 q 196 474 196 440 l 196 524 q 194 544 194 538 q 207 626 194 581 q 235 717 225 683 q 185 681 213 701 q 140 646 157 661 q 108 614 122 631 q 82 583 85 586 l 63 579 q 69 615 65 597 q 133 715 99 657 q 215 854 174 785 q 242 894 233 881 q 269 948 258 921 q 294 997 281 975 q 326 1033 308 1019 m 411 50 q 436 53 422 51 q 461 63 450 54 q 478 86 472 71 q 482 99 479 90 q 478 104 479 101 q 450 113 464 108 q 431 79 450 108 q 411 50 425 69 z "}," ":{"ha":347,"x_min":0,"x_max":0,"o":""},"!":{"ha":1521,"x_min":68,"x_max":1458,"o":"m 1368 997 q 1383 1005 1372 997 q 1403 1015 1393 1013 q 1419 1018 1413 1018 q 1444 1008 1436 1018 q 1456 969 1453 999 q 1458 917 1458 940 l 1458 899 q 1413 742 1458 875 q 1371 603 1382 651 q 1367 565 1367 583 q 1369 519 1367 540 q 1379 442 1379 449 q 1363 362 1379 413 q 1347 292 1347 311 q 1374 236 1347 264 q 1419 192 1396 214 q 1428 158 1428 181 q 1424 65 1428 126 q 1419 -40 1419 4 q 1386 -47 1393 -46 q 1364 -47 1379 -47 q 1289 -25 1335 -47 q 1325 3 1307 -11 q 1344 6 1329 4 q 1363 14 1358 7 q 1372 38 1368 21 q 1376 67 1376 54 q 1367 128 1376 96 q 1342 179 1357 161 q 1287 224 1321 204 q 1221 243 1253 243 q 1167 217 1193 243 q 1160 190 1160 210 q 1164 150 1160 179 q 1168 110 1168 121 q 1165 96 1168 104 q 1143 41 1151 60 q 1123 3 1135 22 q 1107 -22 1111 -15 q 1090 -42 1099 -36 q 1061 -53 1081 -49 q 1021 -57 1042 -57 q 988 -52 999 -57 q 978 -37 978 -47 q 988 -12 978 -25 q 1022 3 993 -6 q 1058 19 1051 13 q 1083 67 1075 36 q 1092 125 1092 97 q 1091 159 1092 139 q 1085 201 1090 179 q 1073 242 1081 222 q 1059 280 1065 263 q 1048 315 1053 297 q 1033 343 1043 333 q 1001 360 1019 357 q 944 364 982 364 q 817 354 906 364 q 682 344 728 344 q 677 206 682 278 q 656 89 672 135 q 641 51 647 61 q 617 31 635 40 q 590 22 600 22 q 561 35 581 22 q 539 44 549 40 q 525 53 529 47 q 525 69 519 60 q 540 83 531 79 q 560 90 549 88 q 578 94 572 93 q 598 117 592 100 q 604 163 604 133 q 603 190 604 175 q 601 221 603 204 l 601 240 q 598 308 601 282 q 581 388 594 335 q 532 208 563 349 q 403 -8 485 -8 q 335 7 376 -8 q 354 27 343 13 q 369 44 365 42 q 399 59 379 51 q 421 69 418 67 q 433 84 431 78 q 442 108 436 90 q 450 142 449 125 q 451 189 451 158 q 451 223 451 206 q 450 258 450 240 l 450 331 l 450 349 q 447 397 450 375 q 436 435 443 418 q 413 492 424 463 q 375 636 393 564 q 344 690 365 664 q 304 740 324 715 q 288 768 299 747 q 256 810 268 803 q 147 846 236 821 q 68 901 86 863 q 138 933 96 914 q 206 960 181 951 q 266 972 232 968 q 324 976 300 976 q 481 899 379 976 q 579 831 546 849 q 754 760 665 781 q 889 744 819 744 q 925 744 907 744 q 961 746 943 744 q 1068 745 1014 746 q 1169 734 1122 744 q 1256 706 1215 724 q 1289 688 1269 700 q 1356 750 1322 688 q 1383 826 1383 803 q 1376 913 1383 856 q 1368 997 1368 969 z "},"\"":{"ha":1701,"x_min":69,"x_max":1640,"o":"m 949 867 l 953 850 q 936 798 944 825 q 928 751 928 771 q 931 733 928 744 q 1056 677 967 707 q 1254 619 1144 647 q 1476 567 1290 610 q 1501 575 1479 565 l 1563 594 q 1601 600 1574 597 q 1632 603 1629 603 q 1569 507 1569 551 q 1640 414 1569 458 q 1558 441 1599 422 q 1479 479 1518 460 l 1442 503 q 1419 504 1435 504 q 1321 490 1382 504 q 1231 472 1260 475 q 1056 449 1201 469 q 649 417 831 417 l 706 274 q 588 336 647 282 q 508 442 533 385 q 457 449 501 446 q 408 453 413 451 q 214 501 311 476 q 114 511 167 511 l 69 517 l 79 533 q 175 569 121 540 q 281 625 229 597 q 376 657 324 644 q 522 683 429 669 q 725 721 614 697 q 847 797 763 729 q 949 867 900 840 z "},"#":{"ha":733,"x_min":47,"x_max":689,"o":"m 335 1021 q 351 1026 346 1025 q 383 1032 368 1032 q 422 1021 400 1032 q 452 1001 436 1014 q 476 967 468 988 q 483 922 483 947 q 481 877 483 906 q 479 846 479 849 q 481 812 479 828 q 492 772 483 796 q 528 701 500 749 q 585 619 563 651 q 619 560 607 586 q 654 471 639 517 q 672 407 663 447 l 681 379 l 689 332 q 674 338 681 335 q 663 346 668 340 q 651 360 657 351 q 640 376 646 368 q 628 397 635 383 q 618 417 622 410 l 594 447 q 567 475 589 456 q 557 483 564 478 q 549 463 549 469 q 550 448 547 456 q 556 431 553 440 q 586 322 558 422 q 597 267 597 283 q 580 193 597 242 q 546 113 563 144 q 537 84 538 97 q 535 65 536 71 q 558 49 538 58 q 592 33 578 40 q 607 15 607 26 q 606 4 607 8 q 600 -4 604 0 q 588 -3 597 -4 q 571 -1 578 -1 q 554 -3 561 -1 q 537 -20 547 -6 q 518 -35 526 -35 q 496 -21 503 -26 q 472 -8 481 -8 q 458 -15 468 -8 q 443 -22 449 -22 q 425 -6 425 -22 q 438 18 429 10 q 468 49 453 33 q 469 69 474 58 q 453 85 465 81 q 431 91 442 90 q 415 92 419 92 q 403 89 408 92 q 365 74 388 81 q 322 67 342 67 q 299 67 311 67 q 275 68 288 67 q 274 60 278 65 q 266 40 269 54 q 267 22 263 26 q 275 9 271 18 q 283 -18 279 0 q 276 -29 285 -25 q 260 -33 268 -33 q 247 -22 253 -32 q 236 -11 240 -12 q 222 -11 231 -8 q 207 -17 214 -14 q 193 -28 200 -22 q 178 -29 186 -35 q 172 -19 175 -28 q 154 7 164 1 q 138 8 146 11 q 121 0 129 6 q 117 28 110 1 q 147 49 121 42 q 193 55 174 57 q 213 79 213 53 q 203 103 213 96 q 169 145 188 114 q 149 196 151 176 q 140 300 140 246 q 147 390 140 313 q 150 453 150 421 q 142 460 150 454 q 132 469 133 465 q 103 414 114 438 q 89 379 92 390 q 83 349 86 368 q 82 318 81 331 q 90 286 83 306 q 96 258 96 267 q 76 251 96 251 q 58 272 64 251 q 53 317 53 293 q 50 333 53 325 q 47 353 47 342 q 60 496 47 446 q 114 610 74 546 l 168 693 q 243 783 188 728 q 279 860 279 819 q 281 890 281 882 q 276 914 281 904 q 261 933 271 924 q 250 946 251 943 q 231 968 244 957 q 175 1001 228 971 q 174 1008 174 1003 q 174 1021 174 1014 q 211 1015 189 1018 q 264 1013 233 1013 q 303 1014 288 1013 q 335 1021 319 1015 z "},"$":{"ha":500,"x_min":36,"x_max":485,"o":"m 238 722 q 271 731 260 731 q 295 725 285 731 q 319 709 306 719 q 337 686 332 699 q 342 654 342 674 q 339 582 340 618 q 372 499 344 547 q 411 443 396 464 q 438 397 426 422 q 461 338 450 372 q 474 293 467 319 l 479 274 l 485 240 q 476 243 481 242 q 467 249 472 244 q 460 257 461 254 q 450 274 453 269 q 436 300 442 292 l 419 321 q 404 338 414 328 q 393 347 401 340 q 389 340 390 343 q 388 332 388 336 q 392 311 392 318 q 408 248 396 288 q 421 194 421 208 q 410 144 422 176 q 385 88 399 111 q 378 69 379 76 q 378 54 378 61 q 398 42 379 50 q 422 30 417 33 q 428 19 428 26 q 426 10 428 13 q 424 6 425 7 q 406 8 415 7 q 390 6 396 8 q 379 -6 388 4 q 365 -15 371 -15 q 349 -6 361 -15 q 333 3 338 3 q 314 -7 319 -7 q 300 4 300 -7 q 312 24 304 17 q 331 42 319 31 q 322 68 340 58 q 299 72 310 71 q 285 71 289 74 q 229 56 260 56 l 196 56 q 194 50 196 53 q 190 37 193 47 q 190 24 188 26 q 201 -4 199 15 q 185 -15 203 -15 q 176 -8 178 -11 q 168 0 171 -1 q 160 1 165 3 q 151 -1 154 0 q 140 -10 147 -3 q 128 -12 133 -17 q 120 3 124 -4 q 111 13 117 10 q 99 14 106 15 q 88 8 93 13 q 85 28 79 10 q 107 42 88 36 q 139 47 126 49 q 151 63 151 44 q 144 82 154 75 q 122 110 133 89 q 106 153 110 132 q 101 217 101 175 q 105 275 101 236 q 108 326 108 314 q 96 338 96 331 q 79 308 82 314 q 64 267 69 289 q 61 231 58 246 q 71 189 65 210 q 67 185 71 185 q 57 185 63 185 q 44 198 47 183 q 40 231 40 213 q 36 256 38 243 q 45 356 36 321 q 83 435 54 390 l 121 493 q 174 557 135 518 q 199 610 199 582 q 200 629 200 624 q 194 651 200 640 q 178 671 186 661 q 157 692 174 681 q 125 710 156 693 l 125 722 q 153 718 138 719 q 189 717 168 717 q 238 722 217 717 z "},"%":{"ha":1375,"x_min":4,"x_max":1360,"o":"m 1338 1044 l 1360 972 l 1360 967 q 1354 944 1360 963 q 1338 878 1338 892 q 1325 850 1338 871 q 1317 833 1318 838 q 1288 728 1315 829 q 1271 639 1271 668 q 1182 511 1271 547 q 1224 479 1194 496 q 1261 454 1254 463 q 1262 435 1264 450 q 1263 415 1260 419 q 1279 404 1265 410 q 1293 389 1293 399 l 1293 306 q 1193 165 1293 240 q 1043 94 1100 94 q 982 125 1011 94 q 921 178 940 168 q 854 219 885 196 q 799 278 817 249 q 791 275 796 275 q 783 266 786 275 q 776 227 781 257 q 771 194 771 197 q 764 201 769 197 q 747 221 750 213 q 739 289 743 254 q 717 317 728 303 q 672 194 686 224 q 599 88 644 133 q 382 22 533 22 q 275 97 324 22 q 226 233 226 172 q 247 297 226 271 q 276 339 268 324 q 194 385 222 350 q 165 461 165 419 q 64 632 165 481 q 4 789 13 710 l 15 800 l 132 800 q 381 751 326 769 q 676 578 519 706 q 695 582 692 581 q 701 586 699 583 q 690 599 696 589 q 685 615 683 610 q 713 646 690 638 q 726 643 719 646 q 739 631 732 640 q 749 600 743 615 l 765 619 q 803 663 789 628 q 867 758 822 713 q 935 824 913 803 q 1010 889 972 860 q 1144 988 1117 971 q 1338 1044 1242 1044 z "},"&":{"ha":1792,"x_min":1,"x_max":1786,"o":"m 1 1050 l 1 1086 q 94 1051 49 1082 q 160 1021 139 1021 q 206 1033 189 1029 q 293 1046 258 1046 q 346 1040 307 1046 q 406 1035 385 1035 q 428 1036 421 1035 q 508 1056 465 1043 q 542 1065 522 1058 q 528 1042 533 1050 q 492 1006 510 1015 q 546 1000 513 1000 q 621 1001 588 1000 q 685 1004 654 1003 q 706 1006 699 1006 q 788 997 728 1006 q 886 989 847 989 q 950 993 904 989 q 1022 997 996 997 q 1164 1013 1075 997 q 1315 1028 1253 1028 q 1507 979 1435 1028 q 1613 850 1571 936 q 1678 665 1635 803 q 1754 518 1692 621 q 1786 428 1776 482 l 1786 340 q 1772 340 1778 339 q 1756 344 1767 340 q 1665 507 1696 411 q 1596 738 1631 622 q 1560 650 1575 701 q 1539 535 1539 583 q 1556 471 1539 500 q 1596 294 1596 399 q 1574 181 1596 243 q 1531 78 1572 176 q 1525 49 1525 61 q 1526 33 1525 39 q 1531 25 1528 28 q 1509 13 1528 17 q 1469 4 1490 8 q 1393 -25 1449 0 q 1335 -50 1350 -44 q 1381 63 1347 -14 q 1431 258 1431 176 q 1378 456 1431 321 q 1271 607 1318 607 q 1163 531 1221 564 q 1031 499 1104 499 q 901 496 971 499 q 733 490 832 493 q 767 288 750 389 q 783 85 783 188 q 757 1 783 61 q 690 -75 724 -75 q 680 -54 685 -75 q 656 -22 675 -33 q 620 -24 650 -21 q 581 -25 590 -26 q 632 81 582 -12 q 654 163 654 122 q 644 252 654 208 q 627 335 635 296 q 608 407 619 374 q 576 469 596 440 q 540 492 568 483 q 500 513 511 501 q 350 694 425 603 q 260 544 293 636 q 197 483 238 483 q 127 595 143 483 q 96 824 111 707 q 105 863 93 835 q 117 919 117 892 q 78 969 117 951 q 1 1050 28 992 z "},"'":{"ha":1658,"x_min":29,"x_max":1619,"o":"m 1188 1033 q 1503 889 1375 1033 q 1619 593 1619 757 q 1604 521 1619 563 q 1549 422 1585 469 q 1520 352 1531 399 q 1500 261 1510 306 q 1469 168 1490 217 q 1432 88 1443 111 q 1401 39 1417 53 q 1365 25 1385 25 q 1331 23 1354 25 q 1304 21 1307 21 q 1257 29 1276 21 q 1233 56 1238 38 q 1228 79 1228 74 q 1251 140 1228 107 q 1299 203 1275 172 q 1297 215 1301 207 q 1294 226 1293 224 q 1222 203 1267 222 q 1161 179 1176 183 q 1140 131 1153 164 q 1119 94 1126 99 q 1085 85 1111 89 q 1048 78 1058 82 q 1033 44 1038 74 q 1026 6 1029 15 q 1012 -19 1024 -4 q 987 -47 1000 -35 q 949 -62 974 -58 q 889 -65 924 -65 q 831 -58 853 -65 q 792 -29 810 -51 q 785 -10 785 -19 q 807 33 785 8 q 850 82 829 58 q 862 105 860 93 q 864 133 864 117 q 857 165 864 142 q 844 211 850 189 q 819 229 838 213 q 793 236 800 246 q 758 119 783 224 q 736 68 747 75 q 675 44 710 51 q 614 36 632 39 l 582 38 q 544 41 551 38 q 526 60 538 44 q 515 78 515 76 q 514 93 511 86 q 526 110 515 100 q 540 125 536 121 q 561 139 556 135 q 575 157 574 147 q 576 188 576 167 q 576 217 576 201 q 571 244 572 238 q 544 239 563 244 q 515 233 526 233 q 482 238 504 233 q 451 242 460 242 q 443 242 447 242 q 436 239 438 239 q 413 215 424 232 q 382 174 388 176 q 310 114 332 146 q 263 90 297 96 q 218 78 240 83 l 194 78 q 98 85 125 78 q 54 108 71 92 q 40 124 43 119 q 29 165 29 139 q 33 240 29 221 q 72 299 43 285 q 117 349 103 331 q 163 432 163 406 l 149 467 q 147 507 147 486 q 163 543 149 522 q 199 606 196 596 q 185 653 201 622 q 181 662 182 657 q 179 676 181 667 q 178 690 178 685 q 182 704 178 701 l 189 708 q 198 701 194 704 q 204 692 201 697 q 210 679 207 686 q 226 683 219 676 q 239 697 232 689 q 276 725 257 711 q 343 804 289 739 q 454 908 418 894 q 607 963 544 944 q 767 989 699 989 q 979 1011 831 989 q 1188 1033 1128 1033 z "},"(":{"ha":1104,"x_min":0,"x_max":1092,"o":"m 632 1065 q 650 1075 640 1075 q 721 1024 660 1075 q 761 1007 747 1001 q 824 1028 808 1024 q 863 1049 849 1036 q 878 1054 868 1054 q 917 1039 896 1054 q 938 1013 938 1024 q 939 994 939 1003 q 939 975 939 985 q 938 951 939 963 q 938 928 938 939 q 939 908 938 913 q 1044 734 1004 811 q 1090 578 1083 657 q 1092 547 1092 568 q 1087 478 1092 528 q 1082 407 1082 429 q 964 4 1082 128 q 553 -125 840 -125 q 528 -125 542 -125 q 496 -126 514 -125 q 361 -114 406 -126 q 279 -46 294 -96 q 267 -11 271 -24 q 258 28 258 13 q 265 54 258 43 q 313 78 282 78 q 431 60 371 68 l 428 94 q 390 132 417 113 q 349 151 364 151 q 300 136 332 151 q 188 94 219 97 q 76 164 117 94 q 8 307 63 188 q 25 335 0 322 q 51 342 39 342 q 112 320 69 342 q 171 294 154 299 l 424 410 l 435 422 q 418 421 429 421 q 359 442 386 421 q 332 486 332 464 l 332 504 q 403 639 332 589 q 549 683 465 683 q 561 708 561 685 q 555 738 561 728 q 523 764 549 747 q 497 794 497 781 q 503 818 497 807 q 517 842 510 829 q 551 913 531 878 q 592 964 571 947 q 615 1015 604 974 q 632 1065 626 1057 z "},")":{"ha":1333,"x_min":4,"x_max":1313,"o":"m 294 1085 q 367 1076 333 1085 q 424 1049 400 1068 q 464 996 447 1029 q 485 936 475 972 l 425 1006 l 461 924 q 397 992 433 961 q 336 1019 360 1022 q 244 964 279 1011 q 238 944 240 958 q 231 924 235 931 q 315 847 283 886 q 353 761 346 807 q 366 741 354 757 q 392 719 378 725 q 429 714 406 714 q 464 715 450 714 q 526 721 519 721 q 543 719 538 719 q 569 713 551 719 q 594 706 586 707 q 610 704 601 704 q 626 704 618 704 q 719 719 668 704 q 871 754 836 754 q 889 754 879 754 q 907 751 901 751 q 1042 706 979 742 q 1158 624 1075 686 q 1181 614 1167 617 q 1211 611 1196 611 q 1256 615 1243 611 q 1279 618 1268 618 q 1310 597 1301 618 q 1284 562 1313 586 q 1221 538 1256 538 q 1184 542 1199 538 q 1151 561 1169 547 q 1119 572 1132 575 q 1106 558 1113 571 q 1093 533 1099 546 q 1078 507 1081 513 q 1071 476 1071 492 q 1072 463 1071 468 q 1084 458 1074 457 q 1096 456 1094 460 q 1083 429 1097 449 q 1074 406 1069 410 q 1103 397 1082 397 q 1132 400 1113 397 q 1158 403 1151 403 q 1167 397 1164 403 q 1172 386 1169 392 q 1131 263 1168 349 q 1099 185 1106 204 q 1107 176 1097 179 q 1115 168 1117 174 l 1089 85 q 1048 115 1065 93 q 1031 157 1031 138 q 1065 254 1031 172 q 1082 319 1082 293 q 1070 320 1081 324 q 1051 317 1060 317 l 1028 317 q 1013 313 1017 317 q 991 277 1004 301 q 975 244 978 253 q 970 216 972 235 q 961 190 968 197 q 932 166 946 174 q 907 157 918 158 q 894 190 897 175 q 890 232 890 204 q 914 281 890 253 q 951 325 950 322 q 895 350 925 339 q 856 361 865 361 q 765 335 824 361 q 639 308 707 308 q 610 314 625 308 q 560 329 567 329 q 540 315 544 329 q 533 291 536 301 q 526 275 531 281 q 444 228 510 253 q 392 198 410 214 q 329 125 375 182 q 265 75 299 86 q 249 115 249 100 q 271 157 249 135 q 309 201 301 188 q 331 232 317 214 q 339 242 333 235 q 306 218 322 232 q 274 188 283 197 q 231 161 251 174 q 217 136 224 154 q 214 126 217 133 q 171 108 201 115 q 144 101 167 107 l 144 122 q 149 151 144 140 q 229 242 165 192 q 310 317 299 296 q 222 397 260 358 q 154 494 175 447 q 132 572 142 521 q 121 629 122 624 q 108 657 115 644 q 101 668 107 661 q 88 665 97 664 q 75 660 79 665 q 67 649 71 654 q 56 646 64 647 q 50 649 53 647 l 49 658 q 17 674 32 665 q 8 694 13 683 q 6 711 4 706 q 19 750 8 731 q 40 783 29 769 q 58 810 50 797 q 71 832 65 824 q 85 839 85 836 q 101 900 93 869 q 126 932 114 915 q 208 1063 150 1026 q 294 1085 244 1085 z "},"*":{"ha":2100,"x_min":22,"x_max":2064,"o":"m 24 675 q 42 701 22 692 q 82 728 72 717 q 166 861 132 814 q 239 925 200 908 q 271 999 249 929 q 292 1035 282 1032 q 337 1000 311 1040 q 376 956 363 960 q 508 913 429 939 q 711 865 647 865 q 826 882 722 865 q 901 890 879 890 q 924 888 913 890 q 1026 874 967 874 q 1157 883 1076 874 q 1400 906 1342 906 q 1542 876 1463 906 q 1696 792 1622 846 q 1803 654 1758 743 q 1915 511 1847 565 q 2028 414 2010 440 q 2064 300 2064 363 q 2022 282 2061 286 q 1989 269 2006 275 q 2014 183 2003 222 q 2033 135 2025 144 q 2044 113 2042 121 q 2057 69 2057 85 q 2053 51 2057 60 q 2013 24 2044 38 q 1956 11 1982 11 q 1929 35 1921 11 q 1954 56 1933 46 q 1975 75 1975 65 q 1907 211 1975 143 q 1753 324 1857 261 q 1585 422 1668 372 q 1562 422 1582 419 q 1524 429 1542 424 q 1522 406 1522 418 q 1521 386 1521 393 q 1543 271 1521 335 q 1565 197 1565 207 q 1561 185 1565 192 q 1474 71 1500 103 q 1375 -21 1431 17 q 1335 -38 1358 -31 q 1279 -46 1311 -46 q 1244 -44 1258 -46 q 1219 -42 1231 -43 q 1214 -30 1217 -36 q 1211 -14 1211 -24 q 1218 1 1211 -6 q 1269 32 1244 21 q 1333 52 1294 43 q 1397 96 1372 61 q 1440 192 1417 124 q 1443 208 1443 203 q 1374 332 1443 232 q 1310 446 1332 392 q 1214 425 1289 446 q 1125 414 1174 414 q 1072 414 1099 414 q 1031 419 1044 418 q 1094 263 1063 340 q 1132 163 1107 213 q 1164 100 1157 114 q 1171 67 1171 86 q 1159 17 1171 43 q 1138 -29 1147 -8 q 1103 -46 1133 -39 q 1039 -53 1074 -53 q 995 -47 1010 -53 q 988 -25 981 -40 q 1021 9 996 -4 q 1082 33 1046 22 q 1004 203 1061 114 q 906 356 947 292 q 836 389 886 383 q 765 396 786 394 q 768 361 764 388 q 772 328 772 335 q 760 297 772 303 q 592 190 678 258 q 447 68 519 129 q 294 -39 363 -3 q 280 -40 288 -42 q 251 -26 272 -39 q 226 -12 233 -18 q 207 8 213 -3 q 257 56 197 33 q 347 100 333 85 q 469 225 392 149 q 599 375 599 353 q 564 453 599 401 q 531 483 543 483 q 394 540 478 483 q 283 628 351 569 q 229 589 249 600 q 163 560 201 572 q 133 578 158 568 q 111 599 107 588 q 190 646 114 608 q 219 683 222 661 q 201 693 218 693 q 122 672 176 693 q 47 640 63 646 q 36 649 39 646 q 24 675 24 661 z "},"+":{"ha":1183,"x_min":47,"x_max":1146,"o":"m 89 1054 l 99 1065 q 112 1065 103 1065 q 126 1058 121 1065 q 165 1018 140 1047 q 176 1004 169 1014 l 203 1044 l 206 1049 q 221 1049 213 1051 q 239 1033 229 1046 l 247 1014 q 244 992 249 1003 q 232 949 231 960 q 260 822 232 900 q 313 696 268 799 q 418 538 325 668 q 468 439 457 483 q 483 393 475 415 q 488 307 488 375 l 488 247 q 504 181 488 210 q 632 71 554 96 q 803 54 683 54 l 978 54 q 1043 58 996 54 q 1100 61 1090 61 q 1138 57 1122 61 q 1146 46 1146 53 q 1129 19 1146 32 l 719 -12 q 567 10 642 -12 q 375 88 492 32 l 382 75 l 422 -8 q 312 -31 365 -22 q 215 -39 258 -39 q 132 -32 174 -39 q 47 -8 90 -25 q 118 26 100 18 q 162 44 144 39 q 218 50 179 49 q 288 64 257 51 q 210 243 264 150 q 144 361 161 324 q 113 501 113 433 q 122 567 113 542 q 171 642 125 574 q 186 652 174 644 q 201 669 199 660 q 204 693 204 679 q 201 728 204 714 q 174 817 197 743 q 151 839 172 826 q 128 844 144 844 q 104 843 113 843 q 85 845 92 843 q 72 855 78 847 q 67 869 67 863 q 76 894 67 879 q 93 917 89 910 l 117 951 q 123 965 119 958 q 133 982 126 972 q 110 1014 131 988 q 89 1054 94 1035 z "},",":{"ha":1889,"x_min":14,"x_max":1893,"o":"m 746 1013 q 804 1004 775 1013 q 896 978 850 990 q 933 975 915 975 q 971 975 951 975 q 1056 976 1022 975 q 1203 982 1189 982 q 1279 997 1224 982 q 1357 1013 1335 1013 q 1617 913 1550 1013 q 1665 665 1665 839 q 1664 586 1665 640 q 1663 503 1663 532 q 1689 432 1663 471 q 1715 350 1715 393 q 1707 288 1715 325 q 1729 243 1706 278 q 1781 185 1753 208 q 1857 133 1796 172 q 1879 117 1876 121 q 1893 88 1893 96 q 1871 64 1893 75 q 1853 60 1863 60 q 1800 81 1835 60 q 1683 142 1711 135 q 1658 49 1671 94 q 1606 8 1642 8 q 1578 13 1594 8 q 1556 33 1563 17 q 1549 74 1549 50 q 1557 146 1549 103 q 1576 257 1576 247 q 1575 271 1576 267 q 1574 293 1579 288 q 1501 371 1529 340 q 1433 450 1450 426 l 1421 475 q 1400 421 1406 439 q 1388 363 1388 386 q 1399 299 1388 342 q 1410 229 1410 256 q 1406 199 1410 214 q 1396 168 1403 183 q 1361 100 1367 111 q 1290 15 1329 43 q 1271 -3 1283 10 q 1238 -26 1253 -21 q 1214 -31 1224 -31 q 1185 -25 1201 -31 q 1147 -15 1168 -19 q 1099 -4 1125 -10 q 1074 13 1075 3 q 1121 72 1068 58 q 1208 89 1164 81 q 1244 124 1233 99 q 1254 189 1254 150 q 1242 292 1254 232 q 1214 463 1214 425 l 1207 481 q 1050 439 1100 453 q 961 365 961 414 q 939 144 961 251 q 842 -76 907 -10 q 801 -118 818 -104 q 751 -140 775 -140 q 685 -123 721 -140 q 618 -89 650 -106 l 624 -43 q 696 -4 689 -8 q 744 44 731 18 q 773 135 767 85 q 779 254 779 185 l 779 332 q 719 346 749 332 q 669 376 707 351 q 649 382 663 382 q 606 372 631 382 q 506 339 529 343 q 611 271 511 335 q 654 196 654 243 q 649 189 654 193 q 636 178 636 179 q 616 171 632 178 q 593 167 600 164 q 518 185 544 178 q 433 217 469 197 q 370 278 396 236 q 344 356 344 319 q 365 407 344 392 q 435 436 378 417 l 449 463 l 401 463 q 361 461 375 463 q 335 451 347 460 q 315 415 322 442 q 300 379 307 388 q 259 335 279 357 q 222 314 239 314 q 197 336 217 314 q 168 384 174 363 q 133 415 163 406 q 79 429 106 422 q 31 465 53 440 q 14 488 24 472 q 50 573 14 514 q 92 660 86 632 q 114 724 97 688 q 135 782 131 761 q 129 820 138 792 q 121 856 121 849 q 126 873 121 863 q 140 898 132 883 q 158 914 149 913 q 194 906 181 918 q 222 882 208 893 q 279 858 257 858 q 349 881 307 858 q 414 906 392 903 q 651 983 507 918 q 746 1013 715 1013 z "},"-":{"ha":1792,"x_min":26,"x_max":1792,"o":"m 1083 788 q 1192 814 1117 788 q 1263 828 1231 828 q 1525 703 1364 828 q 1682 643 1601 643 q 1729 656 1714 651 q 1792 669 1782 669 l 1790 660 q 1728 627 1760 638 q 1665 617 1696 617 q 1557 639 1621 617 q 1492 663 1524 650 q 1433 501 1482 617 q 1394 339 1394 410 q 1408 283 1394 318 q 1435 211 1421 247 q 1412 122 1435 179 q 1389 43 1389 65 q 1406 -6 1389 15 q 1358 -17 1381 -8 q 1307 -25 1335 -25 q 1335 136 1335 42 q 1326 218 1335 181 q 1299 279 1318 256 q 1292 230 1294 250 q 1279 188 1289 210 q 1247 124 1269 167 q 1211 18 1211 54 q 1174 1 1196 6 q 1126 -4 1153 -4 q 1179 122 1168 79 q 1190 221 1190 164 l 1190 300 q 1147 307 1176 300 q 1101 311 1118 314 q 923 295 1042 303 q 774 281 804 288 q 736 215 747 258 q 725 113 725 171 l 725 65 q 701 58 711 61 q 676 56 690 56 q 642 63 663 56 q 647 87 644 74 q 653 109 649 100 q 671 131 657 118 q 683 140 675 135 q 671 224 683 179 q 649 269 660 246 l 633 243 q 619 199 624 214 q 608 131 608 161 q 605 102 608 119 q 601 82 601 85 q 607 60 601 69 q 571 53 585 60 q 549 47 557 47 q 500 56 538 47 q 518 86 508 74 q 540 103 528 99 q 553 125 553 108 q 551 154 551 144 q 531 231 551 188 q 450 325 503 288 q 431 364 438 333 q 418 404 425 394 q 368 443 404 421 q 314 476 318 474 q 275 505 294 490 q 240 518 256 519 q 207 513 219 515 q 136 489 172 504 q 105 479 124 483 q 75 475 86 475 q 26 514 26 475 q 57 567 26 532 q 104 642 93 607 q 124 681 111 663 q 150 713 126 685 q 182 726 161 726 q 202 725 193 726 q 221 722 211 724 q 269 708 236 722 q 300 700 289 700 q 421 744 340 700 q 572 806 513 794 q 630 811 594 810 q 671 813 665 813 q 919 796 715 813 q 1083 788 1022 788 z "},".":{"ha":1683,"x_min":51,"x_max":1667,"o":"m 639 1103 q 658 1104 644 1104 q 696 1103 685 1103 q 723 1100 710 1103 q 761 1089 736 1097 q 814 1064 788 1076 q 1018 1035 893 1035 q 1132 1054 1028 1035 q 1229 1064 1185 1064 q 1461 964 1374 1064 q 1564 732 1535 879 q 1572 656 1571 696 q 1574 564 1574 615 q 1579 435 1574 489 q 1601 329 1585 381 q 1616 265 1613 294 q 1619 200 1619 236 q 1604 249 1617 217 q 1589 294 1592 281 q 1568 432 1579 340 q 1549 593 1553 563 q 1539 576 1542 583 q 1533 554 1536 569 q 1528 533 1531 539 q 1519 485 1515 507 q 1535 368 1526 426 q 1667 29 1561 221 q 1636 21 1647 24 q 1576 13 1600 13 q 1538 11 1557 11 q 1525 16 1529 13 q 1519 21 1521 19 q 1520 37 1518 29 q 1525 56 1522 44 q 1515 104 1525 76 q 1485 176 1504 132 q 1470 217 1475 204 q 1454 247 1465 231 l 1439 197 q 1424 137 1436 172 q 1410 91 1413 101 q 1408 61 1408 81 q 1410 31 1408 53 q 1411 -6 1411 8 q 1343 -9 1375 -6 q 1275 -17 1311 -12 q 1233 4 1246 -17 q 1244 36 1229 10 q 1261 52 1247 40 q 1276 68 1275 64 q 1322 269 1322 169 q 1319 325 1322 303 q 1303 368 1315 347 q 1281 378 1297 375 q 1259 386 1264 382 q 1249 400 1254 390 q 1226 428 1236 424 q 1203 433 1217 433 q 1174 431 1194 433 q 1140 428 1153 428 q 1121 429 1128 428 q 910 494 1015 461 q 863 494 886 494 q 865 469 864 479 q 875 372 875 396 q 871 333 875 357 q 865 295 867 310 q 863 265 863 281 q 863 254 863 258 q 864 249 863 250 q 904 40 883 144 q 916 17 907 32 q 936 -14 925 3 q 907 -26 938 -19 q 839 -33 876 -33 q 787 -31 814 -33 q 746 -25 760 -28 l 754 -3 q 770 19 760 6 q 783 35 781 32 q 790 42 786 38 q 797 64 800 51 q 785 98 793 83 q 770 128 778 113 q 747 189 763 143 q 714 283 728 247 q 678 236 696 265 q 646 178 671 225 q 617 129 631 153 q 583 -28 583 57 q 536 -29 561 -28 q 482 -33 511 -31 q 440 -19 461 -33 q 403 15 428 -11 q 423 38 413 26 q 449 65 433 50 q 481 93 464 79 q 489 117 489 103 q 515 226 489 167 q 594 413 592 400 q 613 476 597 426 q 626 546 629 525 q 624 595 626 575 q 608 622 621 615 q 572 629 594 629 q 546 627 560 629 q 517 622 532 625 q 477 625 501 619 q 445 632 453 631 q 438 643 438 633 q 439 668 438 654 q 439 683 440 682 q 403 676 432 689 q 350 653 374 664 q 308 640 329 646 q 285 624 293 633 q 200 428 240 574 q 158 280 179 354 q 125 140 138 206 q 113 26 113 75 q 113 3 111 14 q 117 -14 115 -7 q 90 -11 113 -19 q 65 -8 68 -3 q 71 5 68 -3 q 74 28 74 13 q 88 261 74 140 q 118 472 94 340 q 140 589 125 515 q 78 601 101 597 q 51 625 56 606 q 120 635 92 631 q 156 656 149 639 q 225 832 211 801 q 340 997 276 940 q 379 1022 356 1010 q 421 1040 403 1033 q 452 1047 439 1046 q 478 1049 465 1047 q 542 1065 518 1049 q 639 1103 585 1089 z "},"/":{"ha":1694,"x_min":46,"x_max":1622,"o":"m 314 961 q 424 884 372 961 q 475 733 475 807 q 457 628 475 681 q 415 532 447 599 q 446 535 431 533 q 606 610 535 588 q 814 640 700 640 q 1115 596 972 640 q 1325 513 1161 582 q 1496 468 1431 468 l 1622 472 l 1617 413 l 1611 413 q 1528 354 1592 382 q 1450 328 1488 336 q 1347 249 1413 319 q 1278 185 1308 207 q 1064 61 1154 96 q 922 32 989 32 q 643 54 779 32 q 319 163 438 88 q 165 419 165 260 q 210 550 165 478 q 343 690 256 622 q 353 707 351 701 q 351 728 361 725 q 295 739 342 732 q 240 746 249 746 q 177 733 207 746 q 118 693 147 719 q 85 678 106 681 q 46 674 65 675 q 92 735 56 699 q 131 776 111 756 q 164 825 151 793 q 176 863 169 843 q 234 932 196 903 q 314 961 272 961 z "},":":{"ha":2299,"x_min":31,"x_max":2269,"o":"m 758 967 q 764 936 764 961 q 775 908 764 911 q 804 924 785 904 q 836 942 824 944 q 833 922 833 928 q 837 894 833 911 q 840 875 840 878 q 833 850 840 863 q 737 733 803 790 q 606 649 671 675 q 685 543 665 543 q 839 606 731 543 q 1068 724 990 693 q 1390 789 1232 789 q 1458 769 1413 789 q 1550 729 1503 750 q 1563 760 1556 744 q 1614 792 1578 792 q 1638 773 1622 790 q 1660 739 1653 756 l 1665 733 q 1624 707 1650 718 q 1600 699 1615 704 q 1628 633 1608 676 q 1650 578 1642 601 q 1674 490 1661 533 q 1690 457 1681 468 q 1803 421 1721 421 q 1876 422 1824 421 q 1935 424 1928 424 q 1969 422 1954 424 q 2004 408 1983 419 q 2101 344 2046 388 q 2183 274 2153 306 q 2240 215 2238 218 q 2257 174 2269 183 q 2228 164 2246 164 q 2178 176 2206 164 q 2094 225 2172 179 l 1907 339 q 1989 241 1938 299 q 2093 133 2040 183 q 2142 99 2100 126 q 2168 69 2168 81 q 2156 53 2168 61 q 2133 43 2144 44 q 2107 42 2122 42 q 2014 78 2065 42 q 1946 138 1986 97 q 1890 196 1918 167 q 1811 240 1864 219 q 1763 253 1786 250 q 1701 257 1739 257 q 1644 256 1674 257 q 1588 253 1615 254 q 1532 255 1546 253 q 1490 265 1518 257 q 1386 322 1479 268 q 1321 343 1350 343 q 1167 272 1292 343 q 1057 238 1106 238 q 908 233 960 238 q 799 207 856 229 q 789 194 793 206 q 778 181 785 183 q 592 110 685 144 q 385 74 481 74 q 217 8 304 38 q 50 -22 131 -22 q 47 0 50 -21 q 46 25 43 21 q 64 40 49 32 q 79 60 79 49 q 65 79 79 68 q 31 114 31 108 q 256 174 131 150 q 525 214 390 193 q 510 306 517 260 q 483 364 500 346 q 342 399 458 382 q 265 489 265 410 q 306 569 265 511 q 406 669 353 639 q 466 689 424 681 q 536 714 508 697 q 586 775 564 731 q 625 847 617 836 q 700 922 654 885 q 758 967 746 957 z "},";":{"ha":1861,"x_min":10,"x_max":1843,"o":"m 556 138 q 503 139 538 138 q 444 144 469 140 q 450 156 447 150 q 471 165 456 158 q 448 176 471 174 q 422 188 425 179 q 433 190 429 190 q 463 194 451 194 q 490 189 471 194 q 518 183 510 183 q 519 192 518 188 q 467 238 475 225 q 441 267 458 251 q 410 289 424 282 q 375 293 397 293 l 349 293 q 326 295 339 293 q 283 315 314 297 q 229 333 253 333 q 131 340 167 333 q 72 355 93 350 q 47 379 50 360 l 54 422 q 67 425 58 424 q 85 425 76 426 q 117 413 93 424 q 153 403 140 403 q 207 397 169 403 q 257 390 244 390 q 317 401 278 390 q 374 413 356 413 q 400 414 385 413 q 428 415 415 415 q 471 414 453 415 q 490 413 489 413 q 484 418 488 415 q 469 424 481 421 q 401 433 443 433 q 357 431 375 433 q 285 422 339 429 q 249 418 268 419 q 217 417 229 417 q 181 421 196 417 q 157 428 165 425 q 104 449 135 435 q 89 457 99 450 l 10 476 q 88 560 33 538 q 178 574 121 574 l 200 574 q 215 571 204 574 q 233 568 226 568 q 312 574 276 568 q 365 597 347 579 q 408 638 394 625 q 471 667 442 667 q 557 640 492 667 q 611 626 592 626 q 706 608 660 626 q 782 557 751 589 q 821 518 801 538 q 857 506 836 506 l 913 506 q 996 535 943 506 q 1085 565 1049 565 q 1136 565 1110 565 q 1190 563 1163 564 q 1242 567 1214 563 q 1326 585 1269 571 q 1286 613 1308 599 q 1244 635 1264 626 q 1080 688 1178 661 q 953 715 982 715 q 888 715 918 715 q 833 714 858 714 q 765 715 786 714 q 703 726 744 717 q 788 784 725 751 q 863 817 851 817 l 907 822 l 942 840 l 993 857 l 1033 863 q 1084 863 1056 863 q 1185 871 1113 864 q 1210 872 1193 872 q 1283 865 1247 872 q 1365 846 1319 858 q 1599 749 1467 818 q 1764 643 1731 681 q 1817 539 1790 614 q 1843 421 1843 464 q 1813 351 1843 403 q 1783 286 1782 300 q 1776 182 1783 229 q 1756 114 1768 135 q 1718 68 1753 110 q 1696 21 1696 42 q 1708 -42 1696 3 q 1719 -94 1719 -86 q 1714 -106 1719 -106 q 1706 -102 1711 -106 q 1697 -84 1700 -99 q 1690 -69 1694 -69 q 1681 -76 1686 -69 l 1657 -121 q 1651 -103 1653 -108 q 1646 -74 1646 -83 q 1626 -87 1635 -81 q 1604 -112 1618 -94 q 1591 -92 1592 -112 q 1590 -61 1590 -72 l 1563 -100 q 1553 -61 1560 -100 q 1549 -42 1553 -56 q 1524 -56 1532 -51 q 1492 -71 1494 -71 q 1507 -17 1482 -67 q 1535 36 1526 19 q 1563 65 1549 50 q 1575 86 1565 75 q 1585 113 1585 97 q 1582 139 1585 117 q 1518 110 1543 118 q 1460 93 1476 99 q 1364 57 1411 75 q 1225 40 1311 40 q 1162 43 1188 40 q 1097 54 1136 46 q 1086 14 1090 29 q 1069 -1 1082 -1 q 969 -21 1033 -1 q 879 -56 906 -40 q 894 -78 876 -64 q 913 -101 913 -93 q 874 -90 904 -108 q 846 -81 857 -81 q 831 -85 838 -81 q 824 -106 824 -89 q 828 -143 828 -132 q 814 -165 828 -160 q 794 -131 806 -151 q 778 -96 783 -110 q 743 -117 768 -99 q 699 -140 718 -136 q 708 -107 696 -135 q 715 -74 721 -79 q 694 -82 707 -71 q 647 -112 660 -112 q 658 -94 647 -110 q 667 -74 669 -78 q 651 -72 665 -71 q 631 -72 638 -72 q 731 1 674 -36 q 789 51 771 28 l 800 75 q 640 106 714 75 q 556 138 567 138 z "},"<":{"ha":1813,"x_min":36,"x_max":1782,"o":"m 865 596 q 994 571 931 596 q 1175 469 1024 560 q 1265 426 1225 439 q 1397 400 1304 413 q 1429 397 1428 397 q 1474 399 1460 397 q 1535 407 1510 406 q 1619 426 1583 418 q 1685 433 1656 433 q 1703 435 1697 435 q 1753 427 1725 435 q 1782 414 1782 419 q 1755 408 1782 411 q 1708 399 1728 404 q 1665 387 1688 393 q 1628 378 1643 381 q 1524 357 1613 376 q 1408 342 1456 342 q 1278 358 1342 342 q 1161 397 1219 378 q 1194 343 1178 369 q 1222 308 1206 335 q 1247 277 1239 281 q 1272 269 1254 274 q 1325 260 1289 265 q 1354 214 1343 235 q 1371 160 1371 182 q 1374 131 1371 151 q 1378 106 1378 111 q 1374 87 1378 94 q 1350 67 1371 79 q 1331 50 1340 58 q 1304 56 1315 43 q 1293 88 1293 69 q 1310 104 1293 96 q 1328 121 1328 113 q 1321 143 1328 131 q 1288 211 1294 193 q 1274 211 1282 211 l 1229 215 l 1117 222 q 1083 229 1101 222 q 1026 253 1054 240 q 990 258 999 258 q 986 251 988 254 q 1008 232 999 240 q 1030 197 1028 214 q 1035 164 1032 179 q 1029 140 1035 149 q 1001 119 1024 131 q 967 82 983 99 q 932 56 950 65 q 882 47 914 47 q 857 53 865 47 q 849 71 849 60 q 853 83 849 79 q 877 90 857 88 q 906 97 897 93 q 926 112 914 100 q 944 129 939 124 l 965 151 q 978 179 978 167 q 969 201 978 189 q 956 197 965 203 q 943 192 947 190 q 858 221 900 203 q 800 249 840 228 q 781 253 789 253 q 754 247 772 253 q 722 242 736 242 q 653 248 714 242 q 558 254 593 254 q 542 167 553 213 q 522 97 538 147 q 510 85 513 89 q 501 60 507 81 q 485 36 494 39 q 424 25 451 25 q 408 33 407 25 q 433 61 413 47 q 463 79 447 69 q 474 107 469 92 q 481 142 478 122 l 486 171 l 479 204 q 485 224 485 218 q 415 236 450 229 q 365 221 383 236 q 360 219 361 221 q 326 189 340 200 q 279 161 304 171 q 268 151 274 158 q 247 126 253 131 q 228 114 242 121 q 185 92 186 93 q 137 56 163 74 q 69 32 111 38 q 47 38 58 31 q 46 54 36 46 q 77 70 56 63 q 113 85 99 78 q 153 120 128 92 q 190 157 179 149 q 257 207 247 199 q 311 279 292 239 q 292 299 299 293 q 269 317 278 310 q 259 333 261 324 q 259 357 257 342 q 257 374 261 372 q 225 351 240 363 q 176 326 192 326 q 151 335 167 326 q 129 349 136 344 q 110 362 122 353 q 92 379 99 371 q 65 431 65 410 q 63 457 64 443 q 67 470 63 461 q 71 481 71 479 q 59 503 65 490 q 53 533 53 517 q 56 549 53 540 q 76 560 65 564 q 104 531 83 557 q 119 517 114 518 q 146 524 131 514 q 168 535 161 535 q 228 519 197 526 q 254 533 239 519 q 276 558 269 547 q 297 561 293 561 q 308 554 303 560 q 311 528 313 544 q 301 493 306 510 q 326 490 304 483 l 346 493 q 401 503 374 497 q 496 522 426 521 q 621 544 565 524 q 760 583 689 569 q 865 596 832 596 z "},"=":{"ha":667,"x_min":17,"x_max":642,"o":"m 188 1074 l 194 1069 l 206 1067 l 218 1061 q 226 1054 224 1057 q 229 1050 228 1051 q 217 1041 226 1049 q 207 1031 207 1033 q 210 1019 207 1024 q 213 1011 213 1015 l 238 840 q 240 808 240 824 q 240 775 240 792 q 249 742 240 758 q 274 703 257 725 q 305 676 282 692 q 329 658 328 660 q 346 633 340 639 l 367 618 q 381 605 374 611 q 400 593 389 599 q 436 582 411 588 q 513 558 493 568 q 546 535 532 549 q 568 506 553 528 q 599 433 592 474 q 606 354 606 393 l 613 319 q 628 283 615 306 q 642 249 642 260 q 636 232 642 239 q 611 208 626 218 q 604 210 607 208 q 610 251 610 233 q 603 288 610 267 q 596 319 597 310 l 585 357 q 576 310 583 350 q 568 246 568 271 q 572 225 568 238 q 582 192 582 196 q 579 180 582 188 q 575 167 576 172 l 574 68 l 572 -4 q 557 -35 569 -22 q 547 -67 544 -47 l 522 -71 q 510 -67 513 -69 q 507 -62 507 -64 q 488 -60 494 -61 q 485 -54 482 -58 q 496 -36 490 -44 q 510 -17 501 -28 q 525 8 519 -7 q 529 24 526 11 q 533 51 532 38 q 535 93 535 65 l 535 125 q 536 156 535 139 q 538 174 538 172 q 534 195 538 188 q 474 275 531 203 q 435 342 447 308 q 408 340 419 340 q 390 339 397 339 q 323 347 354 339 q 261 372 292 354 q 267 279 261 331 q 274 222 274 228 q 274 165 274 186 q 275 132 274 144 l 279 89 l 282 79 l 283 72 l 282 58 l 282 13 l 272 -10 q 267 -29 268 -26 q 263 -33 265 -32 q 235 -33 238 -44 q 238 -17 235 -19 q 258 15 253 -4 q 263 46 263 33 l 261 65 l 258 126 q 250 133 258 132 q 242 131 242 135 q 240 115 240 121 q 242 85 240 100 q 244 57 243 71 l 244 50 l 242 44 q 233 17 240 39 q 222 -22 226 -4 q 222 -42 222 -32 l 194 -49 q 189 -46 190 -46 q 181 -37 182 -42 q 185 -24 179 -33 q 196 -11 194 -15 q 215 35 206 11 q 224 92 224 60 q 222 142 224 126 q 215 240 215 217 q 213 277 215 263 q 207 308 210 292 l 190 392 q 172 443 188 417 q 157 492 157 469 q 168 532 157 513 q 176 544 175 540 q 185 567 185 558 q 165 617 185 588 q 138 667 142 653 q 135 690 135 682 q 142 744 135 699 q 144 781 144 763 l 144 853 q 144 916 144 886 q 146 972 144 946 q 133 990 146 974 q 119 1007 121 1006 q 79 1017 96 1013 q 47 1031 63 1021 q 33 1036 38 1033 q 24 1043 28 1039 q 19 1050 21 1047 l 26 1054 q 17 1058 17 1056 l 17 1065 q 24 1069 21 1068 q 39 1078 35 1076 q 61 1079 56 1078 l 110 1085 q 128 1090 121 1088 q 140 1090 136 1092 q 164 1082 160 1082 l 185 1099 q 197 1096 192 1097 q 200 1090 201 1094 q 188 1074 193 1082 z "},">":{"ha":1625,"x_min":22,"x_max":1610,"o":"m 915 826 q 1040 821 999 826 q 1178 776 1122 810 q 1306 653 1243 738 q 1397 514 1331 619 q 1428 476 1404 503 q 1443 440 1443 460 q 1458 431 1443 435 q 1476 422 1474 428 q 1451 397 1479 414 q 1422 372 1422 381 q 1593 406 1492 372 l 1610 411 q 1494 346 1603 375 q 1388 324 1458 336 q 1339 300 1388 321 q 1317 290 1332 297 q 1338 256 1326 272 q 1385 239 1372 246 q 1421 167 1421 218 l 1419 146 q 1422 125 1421 135 q 1410 111 1413 115 q 1410 94 1410 103 q 1390 88 1394 92 q 1382 71 1386 74 q 1364 72 1369 74 l 1354 63 q 1347 68 1350 65 q 1339 72 1343 71 q 1258 143 1300 83 q 1213 219 1246 163 q 1199 217 1210 217 l 1182 217 q 1169 214 1172 217 q 1151 113 1156 142 q 1131 35 1142 61 q 1087 15 1119 21 q 1018 8 1054 8 q 988 10 994 8 q 973 14 981 13 q 962 19 965 15 q 960 27 958 22 q 960 35 961 32 q 939 42 949 38 q 939 60 939 50 q 933 63 936 63 q 925 65 931 64 q 936 76 931 71 l 931 90 q 967 97 935 93 q 1003 106 1000 101 q 1010 135 1006 111 q 1019 172 1014 158 q 1024 193 1024 185 q 1020 197 1024 196 q 1010 194 1017 199 q 992 200 1001 197 q 971 203 982 203 q 856 200 919 203 q 738 194 792 197 q 760 110 742 181 q 771 50 771 68 q 738 6 771 19 q 663 -8 704 -8 q 604 -1 642 -8 q 571 6 592 0 l 581 21 l 564 26 l 569 40 l 556 46 q 560 52 556 49 q 565 57 564 56 q 560 60 561 60 q 553 67 553 64 q 561 76 553 71 q 606 106 600 100 q 613 125 613 111 q 601 171 613 140 q 588 211 589 201 q 563 215 581 211 q 543 218 546 218 q 525 213 538 218 q 481 185 513 208 q 365 106 393 121 q 339 85 354 100 q 324 72 329 75 q 315 90 319 76 q 308 106 311 103 q 293 110 306 110 q 279 110 281 110 q 278 121 278 118 q 267 135 274 132 q 243 133 250 133 q 239 145 238 133 q 239 160 240 157 q 228 166 238 164 q 215 171 219 168 q 276 193 249 188 q 333 204 304 199 q 380 217 361 210 q 413 229 399 225 q 443 238 426 233 q 382 267 426 250 q 308 290 368 272 q 128 340 218 315 q 26 444 38 375 q 61 505 22 472 q 128 538 100 538 q 294 485 197 538 q 399 433 368 444 l 361 492 q 429 517 408 507 q 485 553 463 532 q 639 729 561 640 q 915 826 743 826 z "},"?":{"ha":1924,"x_min":28,"x_max":1914,"o":"m 817 996 q 843 999 833 999 q 925 982 876 999 q 1078 938 1044 940 q 1191 943 1110 938 q 1296 949 1272 949 q 1408 937 1351 949 q 1532 878 1465 925 q 1653 767 1588 839 q 1769 628 1682 735 q 1858 510 1838 543 q 1899 388 1899 444 q 1897 368 1899 375 q 1906 343 1897 360 q 1913 315 1914 326 q 1900 289 1910 301 q 1882 265 1890 276 q 1872 242 1881 264 q 1851 212 1863 219 q 1821 204 1839 204 q 1757 217 1792 204 q 1742 224 1751 218 q 1783 278 1758 240 q 1825 340 1804 308 q 1841 359 1831 349 q 1856 374 1851 369 q 1858 407 1857 397 q 1824 501 1863 451 q 1783 543 1811 518 q 1751 387 1783 476 q 1718 261 1718 297 q 1694 189 1706 225 q 1700 164 1699 172 q 1701 136 1701 156 q 1699 106 1701 115 q 1691 82 1697 97 q 1683 48 1685 67 q 1682 26 1682 29 l 1682 -10 q 1691 -34 1685 -26 q 1697 -58 1697 -42 q 1658 -89 1672 -79 q 1586 -121 1613 -121 q 1553 -118 1557 -121 q 1518 -92 1535 -104 q 1507 -75 1507 -86 q 1527 -38 1507 -64 q 1549 3 1547 -12 q 1551 28 1551 19 q 1533 104 1551 49 q 1515 249 1515 160 q 1496 242 1501 244 q 1478 221 1475 232 q 1479 197 1479 214 q 1475 154 1479 174 q 1464 124 1471 135 q 1437 98 1457 114 q 1413 75 1417 82 q 1399 48 1401 60 q 1396 15 1396 36 l 1396 -17 q 1344 -37 1396 -37 q 1294 -33 1315 -37 q 1252 -17 1272 -28 q 1228 0 1232 -7 q 1225 11 1225 7 q 1242 32 1225 19 q 1285 79 1281 61 q 1293 110 1290 97 q 1296 138 1296 122 q 1294 158 1296 151 q 1293 197 1293 183 q 1296 224 1293 204 q 1289 235 1297 235 l 1278 232 q 1216 215 1250 222 q 1151 207 1182 207 q 1108 211 1132 207 q 1008 254 1071 219 q 978 172 989 203 q 928 22 942 72 q 923 -27 926 17 q 899 -83 919 -71 q 876 -89 889 -89 q 840 -81 864 -89 q 808 -72 817 -72 q 785 -75 803 -72 q 757 -78 767 -78 q 743 -76 749 -78 q 738 -64 738 -75 q 743 -31 738 -53 q 747 -3 749 -10 q 714 6 746 6 q 685 14 685 6 q 710 63 682 40 q 760 106 753 96 q 761 114 761 107 q 763 126 761 121 q 749 196 763 160 q 686 338 717 267 q 663 341 675 333 q 639 357 650 349 l 639 339 q 617 301 629 313 q 581 275 606 289 q 572 258 578 272 q 563 239 567 243 q 563 224 560 235 q 560 214 561 218 q 518 231 556 214 q 493 236 500 239 q 378 132 453 225 q 276 8 310 47 q 246 -3 269 -3 q 210 7 221 -3 q 247 69 233 15 q 257 124 251 88 q 175 88 213 111 q 101 19 124 57 q 93 22 97 21 q 82 29 89 24 q 56 62 58 42 q 53 101 53 82 q 60 163 53 129 q 67 215 68 196 q 55 237 67 224 q 40 260 43 250 q 28 346 28 304 q 32 390 28 369 q 40 422 36 410 q 53 443 44 435 q 67 446 57 447 q 83 437 78 444 q 101 399 89 429 q 119 361 113 368 q 172 414 153 390 q 214 493 204 453 q 214 513 215 499 q 213 535 213 526 q 213 543 213 539 q 215 550 215 549 q 271 628 243 589 q 274 656 274 639 q 275 679 275 674 q 272 714 274 696 q 279 745 275 735 q 294 764 283 756 q 318 781 299 767 q 343 794 338 794 q 362 772 350 794 q 375 747 374 750 q 388 768 381 757 q 399 779 394 779 q 418 775 413 779 q 423 767 421 769 q 428 758 425 764 q 478 808 440 765 q 517 847 500 833 q 679 956 601 921 q 817 996 736 981 z "},"@":{"ha":2042,"x_min":18,"x_max":2032,"o":"m 35 761 q 99 794 57 785 q 179 804 142 804 q 258 794 224 804 q 326 758 293 785 q 429 658 392 690 q 592 601 496 601 q 619 596 603 599 q 657 593 636 593 q 768 599 697 593 q 942 611 929 611 q 1143 544 1044 611 q 1303 403 1201 504 q 1446 278 1399 307 q 1590 186 1547 213 q 1722 121 1661 142 q 1864 74 1731 118 q 2032 14 1954 43 l 1990 -11 q 1794 6 1903 -11 q 1463 78 1647 28 q 1349 121 1406 93 q 1219 171 1244 171 q 1150 135 1175 171 q 1107 79 1115 85 q 978 46 1056 46 q 900 6 961 46 q 853 -14 871 -14 q 810 -7 825 -14 q 792 21 796 0 q 857 83 786 49 q 868 106 863 94 q 838 114 857 111 q 797 117 819 117 q 716 114 775 117 q 646 111 657 111 q 616 107 628 111 q 599 96 604 103 q 588 67 593 81 q 498 8 551 35 q 414 -19 444 -19 q 388 -8 397 -19 q 363 6 378 3 q 367 31 364 17 q 383 56 371 44 q 424 83 396 68 q 485 117 451 99 q 463 172 472 153 q 425 221 449 199 q 271 364 347 292 q 222 469 247 397 q 179 561 196 542 q 85 615 174 568 q 18 717 18 650 q 35 761 18 742 z "},"A":{"ha":1861,"x_min":21,"x_max":1854,"o":"m 1419 153 q 1365 148 1399 150 q 1308 146 1332 146 q 1189 103 1246 122 q 1064 83 1132 83 l 1075 60 q 1133 10 1093 38 q 1233 -64 1192 -29 q 1213 -63 1226 -64 q 1197 -65 1199 -62 q 1201 -81 1194 -69 q 1217 -104 1208 -92 q 1171 -75 1204 -104 q 1149 -65 1157 -62 q 1156 -99 1143 -71 q 1165 -132 1168 -126 q 1120 -108 1146 -128 q 1086 -87 1094 -89 q 1071 -122 1076 -112 q 1050 -157 1058 -143 q 1036 -133 1036 -151 q 1040 -94 1040 -107 q 1033 -76 1040 -81 q 1018 -72 1026 -72 q 985 -86 1008 -72 q 951 -93 961 -100 q 969 -69 951 -83 q 985 -47 988 -56 q 894 -12 958 -32 q 794 7 831 7 q 778 26 783 7 q 767 63 768 58 q 702 51 728 54 q 639 49 676 49 q 500 65 553 49 q 404 101 444 89 q 361 113 378 108 q 282 147 332 121 q 279 119 279 122 q 286 96 279 104 q 301 75 299 81 q 314 60 303 69 q 329 44 325 51 q 364 -24 361 -17 q 372 -62 381 -58 q 332 -43 367 -62 q 315 -33 326 -40 q 311 -62 313 -53 q 301 -92 306 -92 l 274 -53 q 272 -87 274 -69 q 260 -104 271 -104 q 239 -79 246 -86 q 218 -65 228 -72 q 211 -100 218 -76 q 207 -112 211 -104 l 183 -68 q 174 -61 178 -61 q 167 -76 171 -61 q 160 -93 163 -92 q 149 -97 153 -97 q 144 -86 144 -97 q 156 -29 144 -74 q 168 29 168 15 q 138 86 168 51 q 108 122 115 111 q 89 194 97 140 q 81 294 81 247 q 51 360 82 308 q 21 429 21 413 q 48 547 21 471 q 100 651 75 622 q 266 757 132 688 q 499 854 400 826 q 581 874 543 867 q 657 881 619 881 q 679 879 672 879 q 767 874 725 875 q 831 871 808 872 l 871 865 l 922 849 l 957 831 l 1001 825 q 1076 794 1015 825 q 1161 735 1138 763 q 1099 725 1132 728 q 1031 722 1065 722 q 978 722 1003 722 q 931 724 953 722 l 911 724 q 787 699 876 724 q 619 643 697 674 q 564 614 588 631 q 538 593 550 603 q 623 575 597 579 q 674 571 649 571 q 725 572 688 571 q 779 574 763 574 q 888 533 813 574 q 951 514 924 514 l 1007 514 q 1043 526 1026 514 q 1082 565 1065 549 q 1157 616 1113 597 q 1253 635 1201 635 q 1340 661 1276 635 q 1393 675 1374 675 q 1456 647 1422 675 q 1497 607 1476 626 q 1551 582 1517 588 q 1631 576 1586 576 q 1647 579 1636 576 q 1664 582 1658 582 l 1685 582 q 1774 569 1742 582 q 1854 485 1831 547 l 1775 465 q 1751 454 1760 458 q 1708 437 1724 442 q 1677 428 1693 432 q 1644 425 1661 425 q 1608 425 1626 425 q 1569 432 1589 429 q 1533 436 1549 435 q 1463 442 1488 442 q 1394 432 1421 442 q 1382 426 1386 429 q 1374 421 1378 424 q 1405 422 1381 419 q 1440 424 1429 424 q 1463 424 1451 424 q 1490 421 1481 421 q 1560 407 1506 421 q 1607 399 1592 399 q 1646 401 1628 399 q 1711 411 1710 411 q 1751 422 1726 411 q 1779 433 1776 433 q 1798 434 1792 435 q 1810 431 1804 433 l 1817 388 q 1790 363 1814 368 q 1729 349 1765 357 q 1635 342 1693 342 q 1593 332 1613 342 q 1530 303 1538 304 q 1493 301 1522 301 q 1452 297 1464 301 q 1423 276 1440 292 q 1396 244 1406 261 q 1346 201 1392 238 q 1346 192 1346 196 q 1372 197 1353 192 q 1401 203 1392 203 q 1436 199 1421 203 q 1442 196 1439 199 q 1416 185 1439 188 q 1393 174 1393 182 q 1418 161 1413 164 q 1419 153 1418 157 z "},"B":{"ha":1764,"x_min":33,"x_max":1718,"o":"m 1463 839 q 1561 814 1517 839 q 1638 756 1590 797 q 1674 736 1650 744 q 1718 718 1710 722 q 1672 705 1700 708 q 1624 699 1644 701 q 1594 689 1603 697 q 1547 619 1564 660 q 1529 536 1529 578 q 1517 469 1529 503 q 1486 397 1506 436 q 1358 290 1444 321 q 1214 269 1299 269 q 1180 269 1196 269 q 1149 271 1164 269 q 1115 268 1131 271 q 1090 264 1099 265 q 1061 263 1081 263 q 1016 265 1031 263 q 914 292 1001 268 q 935 207 922 243 q 981 78 978 86 q 1011 71 983 71 q 1063 74 1029 71 q 1100 78 1096 78 q 1090 65 1100 74 q 1072 56 1081 57 q 1050 54 1064 54 q 1043 51 1046 53 q 1054 44 1050 46 q 1078 34 1069 36 q 1104 32 1088 32 l 1118 32 q 1133 28 1128 31 q 1143 22 1139 25 q 1124 19 1140 21 q 1108 4 1107 17 q 1074 15 1107 3 q 1039 25 1042 26 q 1055 10 1046 17 q 1074 -4 1064 3 l 1049 -1 q 1008 22 1031 1 q 972 51 981 47 q 949 56 963 56 q 904 56 926 56 q 899 72 901 64 q 919 74 906 74 q 943 72 938 72 q 957 81 957 72 q 936 157 957 106 q 896 260 915 208 q 885 281 893 269 q 875 293 882 285 q 846 276 869 289 q 825 257 829 268 q 857 121 825 233 q 872 29 872 67 q 886 10 872 15 q 923 1 900 4 q 969 -12 946 -1 q 999 -26 983 -19 l 988 -31 q 957 -23 982 -33 q 921 -12 932 -12 q 932 -26 918 -19 q 979 -46 946 -33 q 996 -51 985 -47 q 992 -61 994 -57 q 981 -62 989 -65 q 924 -33 972 -58 q 888 -17 890 -15 q 890 -30 885 -18 q 904 -51 896 -42 q 918 -62 908 -57 q 919 -65 918 -64 l 903 -72 q 881 -47 890 -58 q 865 -21 872 -35 q 856 8 860 -1 q 847 23 853 18 q 810 30 842 28 q 772 36 779 32 q 774 46 769 38 q 774 51 774 49 q 805 50 786 56 q 828 44 824 44 q 849 50 839 44 q 848 77 849 65 q 843 101 847 89 q 811 195 825 142 q 797 294 797 249 q 814 313 797 301 q 831 322 819 315 q 815 336 832 326 q 775 361 788 353 l 697 407 q 632 398 672 403 q 567 393 592 393 q 508 400 529 393 q 519 419 514 411 q 532 436 524 428 q 574 460 540 444 q 622 481 608 475 l 549 499 q 488 529 535 503 q 457 542 465 542 q 431 540 454 542 q 389 539 407 539 q 257 545 318 539 q 146 569 196 551 q 106 576 131 574 q 58 586 81 579 q 52 592 58 589 q 39 600 46 596 q 49 628 33 614 q 71 653 69 647 q 67 674 72 657 q 64 700 61 690 q 97 717 69 717 q 138 711 115 717 q 158 704 144 710 l 593 619 q 803 649 685 619 q 1126 713 1060 713 q 1310 776 1193 713 q 1463 839 1426 839 z "},"C":{"ha":1813,"x_min":21,"x_max":1767,"o":"m 628 453 q 768 535 754 528 q 938 579 858 579 q 1067 563 990 579 q 1178 529 1119 551 q 1307 506 1238 507 q 1401 486 1376 504 q 1424 479 1410 481 q 1457 476 1439 478 l 1476 474 q 1493 471 1488 471 q 1501 476 1500 471 q 1497 494 1503 482 q 1492 511 1492 507 q 1494 538 1490 528 q 1506 544 1500 543 q 1516 544 1510 546 q 1526 542 1522 543 q 1546 519 1533 531 q 1575 503 1564 503 q 1607 510 1586 501 q 1635 518 1628 518 q 1683 500 1658 508 q 1704 521 1689 501 q 1726 543 1719 540 q 1747 532 1738 547 q 1750 515 1750 528 q 1744 487 1750 500 q 1732 464 1738 474 q 1740 440 1736 451 q 1738 414 1738 421 q 1711 363 1738 393 q 1689 342 1701 350 q 1673 332 1685 339 q 1647 317 1661 325 q 1626 310 1633 310 q 1590 325 1613 310 q 1546 357 1568 340 q 1545 342 1543 356 q 1544 319 1547 329 q 1532 299 1542 308 q 1511 282 1528 293 q 1492 263 1501 272 q 1544 192 1510 222 q 1613 140 1556 182 q 1660 92 1617 138 q 1692 67 1675 75 q 1722 56 1697 64 q 1757 38 1746 47 q 1756 21 1767 28 q 1733 15 1744 14 q 1663 40 1692 21 q 1618 75 1633 65 q 1553 111 1585 93 q 1524 144 1538 128 q 1487 165 1504 153 q 1443 203 1469 176 q 1440 204 1442 204 l 1438 204 q 1388 219 1419 219 q 1353 215 1371 219 q 1318 207 1335 211 q 1324 188 1324 194 l 1317 154 l 1322 125 q 1328 93 1325 108 q 1340 63 1332 78 q 1369 44 1361 50 q 1394 17 1390 31 q 1392 10 1396 11 q 1378 8 1388 8 q 1318 19 1349 8 q 1301 44 1308 22 q 1293 67 1294 65 q 1281 81 1286 74 q 1267 131 1272 107 q 1244 238 1250 194 q 1163 233 1200 238 q 1081 225 1125 229 q 1049 231 1067 225 q 1022 236 1031 236 q 1003 232 1014 236 q 963 213 979 219 q 860 175 911 189 q 847 180 856 174 q 833 185 838 186 q 825 163 825 172 q 829 144 825 153 q 838 135 836 138 l 858 113 q 879 93 867 104 q 900 79 892 82 q 926 74 908 76 q 949 67 944 72 q 954 54 954 61 q 944 36 954 43 q 934 32 942 33 q 918 31 926 31 q 872 39 889 31 q 826 75 849 51 q 801 103 814 89 q 775 124 782 113 q 768 149 768 135 q 773 182 771 168 q 793 214 775 196 q 817 235 804 224 q 813 242 821 240 q 776 236 806 243 q 721 215 774 236 q 686 206 696 206 l 574 199 l 529 194 q 515 194 522 194 q 490 139 506 165 q 475 104 475 113 q 492 88 475 96 q 510 71 510 79 q 498 41 510 54 q 472 33 486 28 q 461 42 467 35 q 453 50 456 49 q 428 73 432 63 q 425 89 425 83 q 427 114 425 101 q 432 143 429 126 q 447 196 432 167 q 478 243 457 215 q 521 250 499 246 q 553 258 543 254 q 581 290 564 263 q 607 325 597 318 q 626 352 617 332 q 642 381 636 372 q 520 342 588 360 q 394 325 453 325 q 281 340 349 325 q 172 363 194 360 q 140 368 150 365 q 93 383 106 379 q 51 391 81 386 q 21 399 21 396 q 28 404 24 403 q 49 410 32 406 q 100 418 78 418 q 118 417 111 417 q 198 407 160 417 q 268 390 236 397 q 332 384 297 388 q 375 381 367 381 q 406 383 378 381 q 538 409 497 396 q 628 453 578 422 z "},"D":{"ha":1317,"x_min":71,"x_max":1240,"o":"m 256 903 q 262 875 263 881 q 260 867 261 869 q 246 871 253 868 q 218 922 240 907 q 175 936 196 936 q 147 931 158 936 q 114 888 124 919 q 104 813 104 857 q 139 720 108 767 q 206 651 169 674 q 255 682 226 667 q 310 697 283 697 q 417 690 360 697 q 518 678 475 683 l 568 678 q 754 696 694 678 q 869 753 814 714 q 919 794 899 778 q 1000 843 960 826 q 1031 849 1013 849 q 1104 825 1063 849 q 1142 801 1132 807 q 1188 792 1151 796 q 1233 774 1224 788 q 1232 744 1240 763 q 1204 716 1224 726 q 1166 701 1185 706 q 1131 696 1147 696 q 1106 698 1117 696 q 1082 703 1096 700 q 1058 693 1069 703 q 1004 638 1039 676 q 962 590 978 608 q 942 542 946 571 q 939 476 939 513 q 926 403 939 456 q 919 358 919 374 q 922 333 919 347 q 935 230 925 319 q 954 100 944 140 q 981 69 958 83 q 1019 42 1011 50 q 1026 26 1026 33 q 1015 17 1026 22 q 1004 7 1004 11 q 956 9 969 7 q 928 24 942 11 q 906 63 914 36 q 892 114 899 89 q 856 231 874 172 q 833 274 846 258 l 822 228 l 801 97 q 814 46 796 65 q 857 18 822 38 q 868 1 868 13 q 850 -21 868 -18 q 826 -24 832 -24 q 790 -14 806 -24 q 768 4 774 0 q 737 165 739 46 q 729 328 735 285 q 568 375 656 338 q 426 436 481 413 q 365 256 424 422 q 343 158 343 192 q 378 74 343 108 q 415 46 390 61 q 435 28 435 35 q 426 16 435 22 q 406 10 417 10 q 383 11 392 11 q 317 60 339 11 q 274 163 294 110 q 293 241 286 199 q 300 322 300 283 q 299 347 300 339 q 160 147 229 247 q 136 96 139 101 q 125 33 119 54 q 156 13 128 24 q 176 -11 183 3 q 144 -40 168 -35 q 104 -25 128 -44 q 83 -4 97 -19 q 74 18 74 4 q 79 61 76 39 q 81 106 76 79 q 86 144 86 133 q 85 161 85 156 q 103 208 83 182 q 157 292 154 278 q 160 319 160 307 q 146 404 160 339 q 138 460 138 443 q 143 499 138 482 q 140 513 140 507 q 136 550 136 536 q 139 576 136 558 q 150 608 142 594 q 158 626 158 622 q 150 636 158 632 q 92 723 113 665 q 71 839 71 781 q 83 901 71 881 q 119 941 96 922 q 164 960 142 960 q 215 949 186 960 q 239 938 224 946 l 256 903 z "},"E":{"ha":1683,"x_min":22,"x_max":1638,"o":"m 993 1094 q 1033 1096 1021 1096 q 1050 1094 1046 1096 q 1147 1057 1104 1081 q 1211 1040 1171 1040 q 1237 1038 1225 1039 q 1261 1033 1249 1038 q 1309 1014 1289 1024 q 1349 989 1329 1004 q 1464 824 1413 933 q 1533 647 1478 794 q 1574 626 1540 631 q 1638 617 1607 621 q 1606 593 1633 599 q 1549 581 1553 582 q 1571 465 1564 508 q 1601 253 1594 333 q 1615 19 1615 132 q 1618 -3 1615 6 q 1624 -17 1621 -11 q 1599 -19 1621 -11 q 1572 -22 1576 -28 q 1574 -1 1571 -15 q 1576 18 1576 13 q 1565 130 1576 65 q 1528 282 1553 194 q 1476 465 1503 369 q 1404 615 1444 571 q 1371 635 1393 628 q 1339 644 1349 642 q 1292 665 1310 658 q 1250 675 1257 681 q 1249 656 1247 672 q 1251 635 1251 640 q 1233 622 1251 625 q 1200 615 1215 618 q 1172 614 1185 613 q 1145 619 1158 617 q 1115 621 1132 621 q 1083 615 1093 621 q 1067 592 1072 608 q 1063 538 1063 575 q 1074 471 1060 514 q 1097 394 1094 406 q 1172 218 1099 383 q 1200 108 1200 156 q 1213 80 1200 92 q 1240 57 1226 68 q 1265 31 1249 50 q 1286 7 1281 13 q 1246 -30 1263 -18 q 1207 -42 1229 -42 q 1163 -39 1196 -42 q 1106 -36 1129 -36 q 1099 45 1106 11 q 1072 121 1092 79 q 1060 144 1068 132 q 1043 169 1051 157 q 1004 240 1010 232 q 975 275 993 258 q 949 201 961 240 q 919 121 928 138 q 907 97 910 104 q 892 56 896 76 q 906 26 889 43 q 935 -11 919 7 l 943 -33 q 850 -42 904 -42 q 782 -36 810 -42 q 753 -22 767 -29 q 769 3 756 -15 q 785 32 782 22 q 803 113 794 61 q 825 240 822 229 q 826 264 826 256 q 825 281 826 275 q 814 364 819 322 q 819 442 814 396 q 826 486 821 457 q 804 486 819 485 q 779 486 789 488 q 675 456 740 479 q 568 421 594 426 q 546 419 560 419 q 515 422 535 419 q 489 425 496 425 q 463 420 472 425 q 444 398 453 415 q 429 376 435 381 q 407 369 424 372 q 386 360 390 367 q 370 317 374 339 q 367 261 367 294 q 376 163 367 207 q 413 60 386 118 q 431 42 417 54 q 444 28 444 29 q 453 15 451 18 q 456 -4 460 4 q 413 -25 443 -25 q 357 -19 401 -25 q 278 -14 313 -14 q 279 22 278 0 q 281 53 281 44 q 278 83 281 74 q 265 128 276 93 q 250 189 253 164 l 235 239 q 217 203 224 222 q 204 168 210 185 q 182 118 193 143 q 164 50 164 75 q 169 13 167 31 q 163 7 167 10 q 151 3 160 4 q 113 4 124 4 q 54 13 90 4 q 22 21 43 15 q 108 199 76 118 q 154 360 140 279 q 160 410 157 371 q 169 476 164 449 q 161 525 174 499 q 157 538 158 529 q 151 565 151 564 q 140 585 146 575 q 123 443 136 554 q 100 286 110 332 q 90 253 96 267 q 69 192 72 207 q 74 265 69 239 q 90 327 78 290 q 108 426 101 364 q 115 556 115 489 q 116 637 115 597 q 125 724 117 676 q 226 956 154 872 q 460 1056 314 1056 q 554 1047 508 1056 q 671 1026 669 1026 q 875 1056 796 1026 q 901 1067 888 1060 q 928 1081 914 1074 q 964 1091 950 1088 q 993 1094 978 1094 z "},"F":{"ha":717,"x_min":67,"x_max":647,"o":"m 403 1064 q 500 1032 433 1064 q 610 950 579 993 q 533 933 553 939 q 443 901 513 928 q 444 861 443 879 q 457 835 444 843 q 578 701 531 775 q 647 478 647 594 q 600 199 647 344 q 588 155 593 174 q 579 133 582 136 q 571 128 576 131 q 564 119 565 125 q 568 157 560 133 q 572 194 569 179 q 572 214 575 210 q 560 225 571 218 q 540 185 553 207 q 516 142 528 163 q 494 113 504 122 q 465 94 481 97 q 478 126 471 110 q 492 161 485 143 q 471 134 489 160 q 438 97 453 108 q 402 83 424 86 q 374 81 381 81 l 368 14 q 382 10 376 11 q 392 -24 401 -10 q 385 -19 386 -22 q 368 -6 372 -4 q 365 -11 365 -10 q 357 -25 361 -21 q 340 -42 346 -42 q 344 -32 343 -37 q 349 -19 346 -26 l 353 6 q 335 -11 350 7 q 315 -28 325 -19 q 319 -8 315 -14 q 338 8 324 -3 q 351 21 353 18 q 356 53 356 42 q 357 79 357 65 q 344 78 353 79 q 331 79 335 78 q 306 83 313 82 q 297 82 300 85 q 290 62 293 78 q 290 39 286 46 q 303 26 290 32 q 302 21 301 25 q 304 11 303 17 q 301 1 303 6 q 297 -7 300 -3 q 293 7 294 -1 q 289 15 292 15 q 281 10 285 15 q 273 -1 278 6 q 263 -8 268 -7 q 254 -11 258 -10 l 261 7 q 267 25 264 15 q 251 19 265 26 q 236 14 238 13 l 224 22 l 244 29 l 272 46 q 278 63 278 53 q 281 82 279 74 q 224 103 251 92 q 106 310 146 178 q 67 579 67 442 q 67 632 67 604 q 79 682 68 660 q 147 788 99 726 q 229 889 188 838 q 278 960 247 913 q 321 1022 308 1008 q 364 1056 343 1047 q 403 1064 385 1064 z "},"G":{"ha":2042,"x_min":7,"x_max":2021,"o":"m 1860 813 q 1950 801 1914 813 q 2003 769 1986 789 q 2021 725 2021 750 q 1956 625 2021 660 q 1858 567 1867 578 q 1810 454 1850 557 q 1767 372 1790 404 q 1692 296 1743 339 q 1614 229 1625 240 q 1579 184 1593 208 q 1554 125 1565 160 q 1608 97 1579 111 q 1656 65 1638 82 q 1674 33 1668 53 q 1676 14 1675 26 q 1651 0 1661 11 q 1625 -11 1642 -11 q 1542 17 1597 -11 q 1451 75 1486 44 q 1439 105 1446 97 q 1419 116 1432 113 q 1393 119 1407 119 q 1311 122 1364 119 q 1239 125 1258 125 q 1199 123 1211 125 q 1171 114 1186 121 q 1181 93 1175 103 q 1247 29 1253 58 q 1229 1 1243 7 q 1186 -6 1215 -6 q 1124 24 1167 -6 q 1061 54 1082 54 q 990 61 1019 54 q 932 88 961 68 q 889 143 924 93 q 819 179 864 179 q 749 160 790 179 q 576 86 614 96 q 317 28 453 53 q 49 -3 150 -3 l 7 22 q 175 82 76 49 q 310 128 246 106 q 447 195 374 150 q 593 286 519 240 q 736 410 644 317 q 894 551 840 514 q 1097 619 994 619 q 1190 614 1124 619 q 1382 601 1342 601 q 1419 604 1403 601 q 1447 610 1436 607 q 1610 665 1544 610 q 1713 767 1661 715 q 1781 801 1742 789 q 1860 813 1819 813 z "},"H":{"ha":1644,"x_min":56,"x_max":1606,"o":"m 1418 1106 q 1433 1139 1433 1114 q 1433 1149 1433 1144 q 1432 1156 1433 1153 q 1453 1136 1436 1154 q 1482 1118 1469 1118 q 1499 1138 1490 1128 q 1518 1158 1508 1147 q 1520 1096 1518 1118 q 1531 1046 1522 1074 l 1581 893 q 1597 842 1590 863 q 1606 811 1603 821 l 1561 764 q 1488 819 1525 768 q 1417 903 1438 888 q 1404 915 1410 907 q 1383 943 1386 942 q 1369 942 1376 943 q 1356 938 1363 942 q 1342 925 1350 935 q 1335 917 1340 922 q 1301 819 1310 857 q 1292 744 1292 781 q 1295 678 1292 726 q 1299 610 1299 629 q 1271 492 1299 538 q 1221 431 1235 449 q 1185 356 1197 399 q 1172 242 1172 314 q 1167 133 1172 169 q 1151 53 1158 93 q 1154 18 1151 36 q 1164 -10 1157 0 q 1179 -33 1171 -21 q 1193 -61 1188 -44 q 1200 -81 1199 -78 q 1140 -62 1172 -83 q 1122 -60 1128 -54 q 1098 15 1104 -14 q 1092 76 1092 44 q 1093 117 1092 97 q 1096 157 1094 136 q 1092 210 1096 189 q 1076 264 1088 231 q 1039 215 1051 232 q 981 151 999 165 q 943 117 958 129 q 868 92 913 92 l 890 174 q 905 179 893 178 q 919 183 917 181 q 931 183 921 185 q 942 183 940 182 q 964 211 950 197 q 1017 263 1013 257 q 1043 305 1033 282 q 1061 356 1053 328 q 1030 383 1044 365 q 993 407 1015 401 q 788 435 960 417 q 660 456 711 443 q 609 418 644 460 q 567 369 574 376 q 528 344 560 363 q 506 324 507 332 q 521 267 501 300 q 569 199 536 239 q 596 157 583 182 q 619 103 608 132 q 624 82 624 92 q 601 34 624 61 q 578 -5 579 7 q 569 -24 576 -17 q 551 -37 563 -32 l 529 38 q 536 61 529 61 q 544 60 540 60 q 549 78 549 61 q 490 214 549 146 q 403 319 407 311 l 475 385 l 461 435 l 389 413 q 283 235 303 335 q 246 28 264 135 q 256 14 253 18 q 281 -12 268 -3 q 318 -46 293 -21 q 339 -67 325 -53 q 274 -58 315 -67 q 222 -36 232 -50 q 215 -19 218 -25 q 204 9 213 -12 q 196 49 196 31 q 206 182 196 64 q 211 328 211 250 q 276 417 219 353 q 300 454 300 443 q 291 527 300 488 q 269 608 282 567 q 215 533 236 558 q 107 457 151 457 q 87 462 96 457 q 65 478 78 467 q 56 488 63 481 q 213 650 129 524 q 309 785 275 744 q 413 844 343 825 q 582 864 483 864 q 699 843 628 864 q 819 822 769 822 l 836 822 q 901 828 881 822 q 1013 889 949 840 q 1046 944 1028 919 q 1099 992 1064 969 q 1169 1038 1133 1014 q 1249 1077 1215 1065 q 1328 1094 1283 1089 q 1418 1106 1374 1100 z "},"I":{"ha":667,"x_min":28,"x_max":653,"o":"m 475 1069 l 482 1074 q 476 1081 483 1075 q 469 1090 469 1088 q 476 1096 468 1093 q 485 1099 483 1099 l 506 1082 q 529 1090 510 1082 q 543 1090 535 1093 q 560 1085 551 1088 l 608 1079 q 628 1077 619 1078 q 644 1071 636 1076 q 653 1065 647 1069 l 653 1058 q 647 1056 649 1056 q 643 1054 646 1056 l 650 1050 q 647 1046 647 1047 q 635 1036 643 1039 q 622 1031 628 1033 q 580 1015 604 1021 q 552 1008 556 1010 q 538 992 549 1006 q 528 980 532 985 q 524 972 524 975 q 524 909 524 939 q 525 853 524 879 l 525 781 q 532 722 525 768 q 535 690 535 704 q 531 665 535 682 q 506 617 528 649 q 485 567 485 585 q 492 548 485 558 q 501 532 499 538 q 513 492 513 513 q 504 454 513 471 q 479 392 481 408 l 463 308 q 457 274 460 294 q 454 240 454 253 q 450 158 454 200 q 446 92 446 117 q 449 53 446 65 q 474 -11 451 42 q 487 -26 483 -19 q 489 -37 490 -33 q 484 -44 488 -42 q 475 -49 481 -47 l 447 -42 q 446 -33 444 -40 q 447 -22 447 -25 q 437 17 442 4 q 428 44 432 31 l 425 50 l 425 57 q 428 131 426 93 q 419 132 424 131 q 411 126 411 131 l 408 65 l 407 46 q 407 33 407 39 q 413 10 410 24 q 432 -17 417 -4 q 435 -24 435 -19 q 435 -33 435 -28 q 425 -37 433 -37 q 407 -33 411 -35 q 403 -30 404 -32 q 402 -25 401 -28 q 401 -18 403 -22 q 397 -10 399 -14 l 388 13 l 388 58 l 386 72 l 388 79 l 390 89 l 394 132 q 396 163 396 142 q 396 196 396 183 l 396 222 q 402 290 396 239 q 408 372 408 342 q 348 347 378 354 q 279 339 318 339 q 258 339 268 339 q 235 342 242 342 q 197 275 221 304 q 135 194 138 200 q 132 174 132 188 q 133 151 132 168 q 135 125 135 135 q 135 73 135 97 q 139 32 135 49 q 147 4 143 15 q 158 -17 150 -7 q 172 -36 161 -19 q 185 -54 178 -44 q 175 -61 179 -57 q 163 -62 172 -61 q 147 -71 156 -71 l 122 -67 q 113 -35 125 -47 q 97 -4 100 -22 l 96 68 l 94 167 q 88 192 90 179 q 94 219 88 199 q 101 246 101 240 q 94 308 101 269 q 85 357 86 346 l 74 319 q 66 285 72 304 q 60 251 60 265 q 65 210 60 233 q 54 211 60 210 q 33 231 39 224 q 28 250 28 239 q 46 290 28 260 q 57 319 54 306 l 64 354 q 70 436 64 401 q 101 506 76 471 q 124 533 114 522 q 160 560 140 550 q 217 578 179 569 q 267 592 256 588 q 283 601 278 597 q 303 618 297 614 l 324 633 q 339 657 333 651 q 366 676 344 663 q 398 705 388 690 q 419 740 408 719 q 429 775 429 761 q 429 806 429 790 q 432 840 429 821 l 457 1011 q 463 1031 460 1021 q 440 1050 463 1044 q 451 1061 447 1058 l 464 1067 l 475 1069 z "},"J":{"ha":1208,"x_min":49,"x_max":1164,"o":"m 768 1157 l 761 1157 q 912 1094 849 1149 q 975 968 975 1039 q 982 929 975 946 q 1003 897 989 913 q 1154 796 1078 846 q 1160 778 1164 786 q 1158 760 1158 768 l 1149 756 q 1157 751 1153 753 q 1163 747 1161 749 q 1138 742 1149 742 q 1089 746 1125 742 q 1032 750 1053 750 q 1004 748 1014 750 q 985 738 994 746 q 956 711 957 713 q 922 700 933 704 q 906 681 911 696 q 868 585 888 628 q 818 499 844 533 q 747 424 768 451 q 725 365 725 397 q 726 272 725 336 q 728 174 728 208 q 731 140 729 154 q 738 103 732 126 q 745 70 743 81 q 752 52 747 60 q 769 31 757 44 q 807 0 781 18 l 760 6 q 744 19 746 11 q 739 33 743 28 q 728 38 735 39 q 717 47 721 36 q 709 85 713 57 q 703 150 706 114 l 683 265 q 678 232 681 246 q 671 200 676 218 q 648 115 653 136 q 643 75 643 94 l 647 71 l 642 61 q 642 46 640 54 q 644 33 644 38 q 661 9 649 22 q 686 -17 674 -4 q 622 -8 654 -12 q 626 4 622 -3 q 629 14 629 11 q 622 25 629 18 q 614 36 614 32 q 633 156 614 64 q 643 233 643 201 q 640 335 643 260 q 638 424 638 411 q 560 419 600 424 q 449 410 464 410 q 322 436 389 410 q 288 381 304 408 q 264 358 278 369 q 246 342 250 347 q 235 308 238 326 q 232 268 232 290 l 236 233 q 254 193 244 213 q 273 138 263 163 q 297 93 283 113 l 324 69 l 340 50 l 368 29 q 347 25 364 29 q 329 17 329 21 q 319 34 324 19 q 307 56 314 49 q 289 61 294 58 q 281 71 283 68 q 257 114 269 85 q 233 171 244 143 q 201 229 232 175 q 181 288 181 267 q 193 315 190 306 q 193 329 194 324 q 190 336 192 335 q 138 297 164 317 q 103 246 103 268 q 101 193 103 231 q 100 154 100 156 q 100 126 100 139 q 104 95 100 114 q 113 60 108 76 q 133 36 118 47 q 167 18 149 25 q 165 9 164 17 q 159 -4 165 1 q 150 -10 153 -10 q 121 -7 142 -7 q 115 3 117 -7 q 113 14 114 13 q 101 31 106 26 l 81 58 q 77 89 81 74 q 72 137 74 104 q 71 186 71 169 q 68 230 71 208 q 63 282 65 251 q 108 344 63 301 q 153 408 153 386 q 140 493 153 449 q 126 538 133 515 q 122 529 124 532 q 112 508 114 515 q 110 488 110 500 q 108 468 110 474 q 61 347 92 401 q 49 322 54 335 q 54 346 53 332 q 57 365 56 360 q 72 420 58 371 q 90 501 85 469 q 103 601 97 560 q 128 668 110 642 q 333 756 188 756 q 419 738 346 756 q 475 729 453 729 q 627 727 567 729 q 715 717 688 725 q 742 707 721 715 q 768 699 763 699 q 826 738 804 699 q 858 813 842 775 q 882 833 869 822 q 879 847 881 840 q 871 864 878 854 q 847 897 858 881 l 844 922 q 863 924 860 919 q 864 935 865 929 q 864 946 863 942 q 874 943 868 946 q 885 938 879 940 q 901 910 889 924 q 924 883 913 896 q 936 882 929 882 q 946 885 943 882 q 948 893 949 888 q 946 906 947 899 q 914 1046 929 975 q 768 1157 879 1121 z "},"K":{"ha":1183,"x_min":49,"x_max":1147,"o":"m 1096 1065 l 1106 1054 q 1083 1014 1101 1038 q 1061 982 1065 990 q 1069 967 1065 975 q 1078 951 1074 958 l 1101 917 q 1119 892 1110 906 q 1128 868 1128 879 q 1124 856 1128 863 q 1092 843 1115 843 q 1065 844 1074 844 q 1043 839 1050 844 q 1021 817 1022 826 q 997 735 1003 760 q 990 693 990 711 q 993 669 990 679 q 1009 651 996 660 q 1024 642 1022 643 q 1064 583 1043 613 q 1082 501 1082 550 q 1036 331 1082 419 q 985 243 1028 314 q 939 153 958 197 q 907 64 919 108 q 976 50 938 51 q 1033 44 1015 49 q 1093 18 1051 39 q 1147 -8 1135 -3 q 1062 -32 1103 -25 q 976 -39 1021 -39 q 886 -32 928 -39 q 772 -8 844 -25 l 813 75 l 819 88 q 628 9 703 31 q 475 -12 553 -12 l 65 19 q 49 46 49 32 q 57 57 49 53 q 99 61 72 61 q 158 58 126 61 q 217 54 189 56 l 392 54 q 561 69 514 54 q 690 181 639 94 q 707 247 707 210 l 707 307 q 710 393 707 379 q 728 448 719 413 q 775 536 738 483 q 882 696 871 671 q 933 822 918 781 q 963 949 963 904 q 955 983 964 963 q 947 1014 946 1003 l 956 1033 q 989 1049 971 1054 l 992 1044 l 1018 1004 q 1035 1025 1029 1018 q 1068 1058 1054 1047 q 1080 1063 1072 1063 q 1096 1065 1088 1064 z "},"L":{"ha":1007,"x_min":43,"x_max":974,"o":"m 814 1113 q 846 1110 832 1113 q 881 1097 860 1108 q 924 1067 903 1085 q 963 1032 944 1050 q 974 999 974 1017 q 972 990 974 992 q 969 986 971 988 q 934 963 969 971 q 879 956 899 954 q 858 911 869 956 q 839 814 856 901 q 824 735 829 761 q 808 675 811 689 q 781 556 794 615 q 732 468 763 490 q 686 444 731 467 q 664 429 672 438 q 639 383 644 408 q 633 324 633 358 l 633 289 q 632 245 633 260 q 624 213 631 231 q 608 175 613 189 q 604 139 604 161 q 611 89 604 118 q 629 28 618 60 q 648 9 632 21 q 661 -12 664 -3 l 656 -26 q 619 -15 638 -21 q 600 -29 610 -18 q 593 -39 597 -32 q 574 -29 585 -39 q 559 -13 563 -17 q 550 -10 556 -10 q 542 -1 544 -10 q 542 21 539 7 q 539 39 539 32 q 532 135 532 88 q 529 301 532 211 q 522 415 526 390 q 482 407 500 410 q 446 404 464 404 q 307 453 399 404 q 276 363 300 425 q 232 215 232 244 q 260 97 232 164 q 294 21 268 76 q 315 0 308 8 l 339 -29 l 308 -28 q 299 -18 301 -18 q 297 -31 296 -28 q 296 -36 297 -35 q 293 -39 294 -37 q 271 0 279 -14 q 229 75 238 57 q 197 151 221 93 q 179 197 190 168 l 174 193 l 175 146 q 176 92 175 118 q 179 52 176 67 q 188 18 182 38 q 193 -10 193 -1 q 204 -22 204 -19 q 204 -39 210 -32 l 194 -37 q 174 -28 183 -32 l 169 -39 l 157 -40 q 153 -24 153 -29 l 150 -8 q 147 31 150 13 q 143 61 144 50 q 124 181 135 119 q 111 238 119 203 q 140 328 114 274 q 149 358 151 351 q 117 418 139 388 q 72 479 76 474 q 58 506 60 503 q 43 569 43 539 q 100 705 43 664 q 274 746 157 746 q 490 732 336 746 q 619 725 568 725 q 650 722 631 725 q 678 719 669 719 q 689 724 683 719 q 711 763 704 735 q 733 890 724 808 q 742 1003 742 972 q 745 1020 744 1011 q 743 1035 746 1029 q 701 1049 725 1038 q 668 1068 678 1060 l 681 1082 q 718 1088 692 1088 q 746 1083 738 1083 q 761 1089 756 1083 q 814 1113 793 1113 z "},"M":{"ha":639,"x_min":8,"x_max":629,"o":"m 176 926 q 251 1060 214 993 q 329 1090 278 1090 q 351 1090 339 1090 q 372 1084 363 1089 q 395 1065 382 1079 q 421 1038 408 1051 q 454 1003 444 1014 q 479 961 475 979 q 474 926 481 953 q 467 896 467 900 q 473 884 467 886 q 486 881 479 882 q 508 863 494 876 q 517 838 511 860 q 528 813 524 815 q 600 756 581 778 q 629 681 629 722 q 601 625 629 644 q 513 606 574 606 q 507 593 508 606 q 504 579 506 581 q 468 532 485 564 q 421 431 444 481 q 423 424 418 426 q 440 419 428 422 q 465 408 453 415 q 490 350 490 393 q 492 322 492 339 q 480 253 492 290 q 468 192 468 217 q 438 104 468 139 q 376 63 418 83 q 397 51 388 56 q 413 44 407 46 q 432 49 422 46 q 454 39 447 44 q 466 24 463 29 q 469 13 469 19 q 465 -8 469 -1 q 453 -14 460 -14 q 424 -15 436 -18 q 379 4 413 -11 q 383 -14 381 -4 q 385 -25 383 -19 q 354 -15 375 -25 q 319 11 333 -4 q 300 26 314 18 q 279 47 279 40 l 283 76 q 297 114 283 89 q 310 147 310 139 l 338 200 l 332 207 l 279 261 l 257 261 q 219 182 249 228 q 196 114 196 143 q 194 81 196 103 q 193 50 193 58 q 199 22 193 32 q 222 -2 204 11 q 243 -17 240 -15 q 264 -42 257 -26 q 263 -53 263 -47 q 239 -43 250 -47 q 234 -56 236 -46 q 230 -77 232 -67 q 215 -90 228 -87 q 186 -92 203 -92 q 142 -65 163 -92 q 104 7 121 -39 q 110 23 101 13 q 117 38 118 33 q 72 211 72 114 q 60 253 72 218 q 49 299 49 289 q 75 394 49 340 q 163 596 151 554 q 117 599 139 599 q 86 599 96 599 l 64 599 q 18 606 28 599 q 8 650 8 614 q 35 762 8 689 q 107 894 63 835 q 142 910 114 903 q 176 926 171 918 z "},"N":{"ha":1975,"x_min":7,"x_max":1950,"o":"m 590 893 q 692 872 635 893 q 788 850 750 850 q 968 858 863 850 q 1244 876 1196 876 q 1299 875 1272 876 q 1351 869 1326 874 q 1551 785 1407 860 q 1651 753 1613 753 q 1704 769 1667 753 q 1738 778 1724 778 q 1779 782 1764 782 q 1801 779 1792 782 q 1819 765 1810 776 q 1844 730 1829 753 q 1868 689 1860 707 q 1929 592 1878 657 q 1950 547 1950 565 q 1899 506 1950 506 q 1832 522 1865 506 q 1754 546 1793 536 q 1717 554 1740 549 q 1668 533 1696 557 q 1635 506 1651 519 q 1561 463 1586 478 q 1521 428 1536 447 q 1506 384 1514 418 q 1485 340 1499 350 q 1399 236 1429 300 q 1374 150 1374 185 q 1372 119 1372 129 q 1382 99 1372 101 q 1410 78 1400 90 q 1431 43 1421 65 q 1375 33 1392 33 q 1350 40 1365 33 q 1311 47 1335 47 q 1317 71 1317 58 q 1313 97 1317 79 q 1308 125 1308 115 q 1305 173 1308 151 q 1285 249 1301 194 l 1267 278 q 1251 249 1257 260 q 1242 229 1244 238 q 1229 136 1229 179 q 1243 125 1239 129 q 1263 101 1258 111 q 1269 77 1267 92 q 1274 50 1272 63 q 1232 43 1256 43 q 1208 46 1221 43 q 1181 51 1194 49 l 1181 106 q 1170 221 1181 176 q 1129 292 1160 265 q 1024 304 1097 299 q 767 325 807 319 q 731 324 747 328 q 668 311 674 311 l 668 225 q 680 119 668 163 q 740 -22 692 75 q 688 -17 710 -22 q 647 3 665 -12 q 619 94 647 40 q 568 190 593 142 q 559 236 563 204 q 550 290 556 268 q 520 221 531 263 q 510 128 510 179 q 517 35 510 82 q 539 -46 525 -11 q 486 -36 511 -46 q 432 -24 461 -26 q 450 29 450 -1 q 425 117 450 56 q 400 214 400 178 q 422 276 400 222 q 443 356 443 329 q 401 533 443 433 q 338 713 349 661 q 238 679 290 696 q 144 663 185 663 q 76 673 107 663 q 8 710 44 683 l 7 719 q 94 700 26 719 q 128 690 106 697 q 285 742 213 690 q 410 840 347 790 q 590 893 490 893 z "},"O":{"ha":1875,"x_min":44,"x_max":1815,"o":"m 1431 639 q 1232 683 1340 639 q 1082 728 1124 728 q 962 731 1036 728 q 872 735 888 735 q 754 729 835 735 q 631 724 674 724 q 526 707 617 724 q 408 685 467 696 q 349 676 378 681 q 307 658 325 671 q 260 604 289 644 q 233 571 240 578 l 214 550 q 197 546 208 546 q 178 544 185 546 q 164 557 164 540 q 168 573 164 565 q 181 588 172 581 q 200 601 190 594 q 200 608 203 604 q 188 611 197 611 q 165 597 178 611 q 147 567 151 582 l 144 542 q 152 531 146 536 q 168 524 158 526 q 183 521 178 521 q 205 523 197 521 q 232 533 213 525 q 258 556 244 544 l 254 444 q 249 370 254 403 q 229 313 244 338 q 238 301 233 307 q 157 238 185 260 q 88 162 103 194 q 63 79 74 129 q 44 -19 53 29 q 76 -28 54 -24 q 106 -35 99 -32 q 129 -54 114 -37 q 156 -71 144 -71 q 168 -46 168 -68 q 164 -22 168 -35 q 153 -6 158 -14 q 153 21 153 11 q 158 78 153 31 q 160 113 160 99 q 169 135 161 126 q 314 192 207 176 q 349 54 328 113 q 357 29 353 42 q 368 10 361 17 q 392 1 379 6 q 424 -4 404 -4 q 471 4 438 -4 q 506 13 504 13 l 478 39 q 449 56 467 47 q 424 72 432 64 q 415 108 417 81 q 413 179 413 136 q 413 186 413 182 q 425 194 417 185 q 457 210 433 204 q 492 223 481 217 q 526 247 504 229 q 554 265 549 265 q 646 249 583 265 q 765 221 733 225 q 1029 189 897 204 q 1114 156 1063 181 q 1186 122 1176 125 q 1350 93 1218 113 q 1432 71 1397 86 q 1451 57 1442 67 q 1488 22 1486 24 q 1490 35 1492 26 q 1486 54 1489 44 q 1482 66 1483 61 q 1486 71 1481 71 q 1499 65 1492 71 q 1514 53 1506 58 l 1533 42 l 1542 53 q 1536 61 1538 58 q 1529 74 1529 71 l 1553 82 q 1566 78 1557 81 q 1579 81 1575 76 q 1571 108 1588 90 q 1508 154 1550 131 q 1424 193 1465 178 q 1394 206 1408 199 q 1340 231 1350 228 q 1286 244 1304 239 q 1258 257 1268 249 q 1304 275 1276 261 q 1352 292 1332 289 q 1396 296 1372 296 q 1488 286 1419 296 q 1546 281 1526 281 q 1597 285 1569 281 q 1697 293 1657 290 q 1764 315 1738 296 q 1788 344 1781 335 q 1799 358 1796 354 q 1813 391 1810 374 q 1815 433 1815 408 q 1814 442 1815 440 q 1811 446 1813 444 q 1783 444 1799 446 q 1767 442 1768 442 q 1663 466 1708 447 q 1579 517 1617 485 q 1561 539 1568 533 l 1542 554 q 1538 568 1538 563 q 1544 592 1538 569 q 1547 613 1547 600 q 1551 642 1551 629 q 1543 674 1551 660 q 1507 706 1535 688 q 1464 658 1497 688 q 1431 639 1442 639 z "},"P":{"ha":733,"x_min":53,"x_max":694,"o":"m 358 1032 q 386 1028 374 1032 q 410 1019 399 1024 q 438 1014 422 1015 q 478 1013 454 1013 q 529 1015 507 1013 q 568 1021 551 1018 q 568 1009 568 1015 q 567 1001 568 1003 q 522 975 544 989 q 494 951 499 961 q 479 931 489 940 q 468 918 469 921 q 461 888 461 904 q 463 863 463 872 q 501 783 467 821 q 574 693 554 726 l 628 610 q 680 495 665 550 q 694 353 694 440 q 692 333 694 342 q 689 317 689 325 q 683 273 689 294 q 665 251 678 251 q 646 258 646 251 q 652 290 646 269 q 660 318 658 311 q 658 353 663 335 q 653 379 654 371 q 633 428 647 400 q 610 469 615 458 q 592 450 600 460 q 599 369 596 404 q 601 299 601 333 q 595 211 601 246 q 572 146 589 176 q 539 103 556 115 q 529 76 529 96 q 547 55 529 53 q 593 49 565 57 q 625 28 621 42 q 629 8 629 15 q 621 0 629 3 q 610 6 614 4 q 588 7 596 11 q 572 -13 579 1 q 564 -29 565 -28 q 548 -28 556 -35 q 535 -17 540 -22 q 518 -12 526 -14 q 506 -11 510 -10 q 482 -33 493 -22 q 465 -31 475 -33 q 458 -18 456 -28 q 465 7 461 -1 q 475 22 468 15 q 475 40 479 26 q 469 59 471 54 q 467 68 467 64 q 442 67 454 68 q 419 67 431 67 q 377 74 400 67 q 339 89 354 81 q 325 92 333 92 q 290 86 303 92 q 272 69 276 81 q 274 49 268 58 q 304 18 289 33 q 317 -6 313 10 q 311 -18 317 -14 q 299 -22 306 -22 q 285 -15 294 -22 q 269 -8 275 -8 q 245 -22 261 -8 q 224 -35 229 -35 q 205 -20 215 -35 q 188 -3 194 -6 q 169 -1 181 -1 q 154 -2 161 -1 q 142 -4 147 -3 q 139 1 139 0 q 135 17 135 11 q 144 32 135 26 q 182 49 171 43 q 207 65 204 58 q 206 85 207 74 q 196 113 204 96 q 161 192 178 144 q 144 267 144 239 q 154 321 144 288 q 185 433 185 429 q 190 447 186 436 q 193 463 194 458 q 185 483 185 478 q 176 476 179 479 q 147 447 156 460 l 124 417 q 102 380 113 397 q 81 347 92 363 q 65 336 72 339 q 53 332 58 333 l 61 379 l 69 407 q 88 471 81 447 q 122 560 103 518 q 157 619 136 589 q 214 701 185 660 q 246 765 233 735 q 260 811 258 794 q 263 846 263 828 q 261 885 263 867 q 258 924 260 904 q 263 963 258 943 q 292 1003 267 983 q 319 1021 306 1014 q 358 1032 340 1032 z "},"Q":{"ha":1694,"x_min":64,"x_max":1640,"o":"m 1211 725 q 1263 874 1211 796 q 1372 953 1314 953 q 1451 923 1413 953 q 1510 854 1490 893 q 1521 817 1515 832 q 1556 768 1532 786 q 1574 749 1564 761 q 1594 726 1585 738 q 1625 692 1614 707 q 1640 665 1636 676 q 1597 670 1614 668 q 1568 685 1581 672 q 1510 723 1543 708 q 1446 738 1478 738 q 1385 731 1425 738 q 1335 719 1346 724 q 1336 693 1324 715 q 1343 682 1338 690 q 1475 542 1429 615 q 1521 411 1521 469 q 1367 154 1521 251 q 1044 46 1247 79 q 764 24 908 24 q 624 51 696 24 q 408 176 536 85 q 321 261 385 193 q 236 319 274 311 q 158 346 199 328 q 75 404 94 374 l 69 404 l 64 464 l 190 460 q 361 504 256 460 q 569 588 526 574 q 872 632 713 632 q 1043 613 963 632 q 1240 526 1124 594 q 1256 525 1246 524 q 1271 524 1265 526 q 1231 619 1244 579 q 1211 725 1211 676 z "},"R":{"ha":2299,"x_min":22,"x_max":2258,"o":"m 1514 900 q 1524 926 1524 903 q 1531 958 1524 950 q 1589 914 1560 936 q 1664 839 1633 878 q 1703 768 1674 826 q 1752 706 1726 721 q 1820 682 1778 690 q 1883 661 1863 674 q 1982 563 1935 631 q 2024 481 2024 503 q 1949 392 2024 403 q 1806 356 1833 375 q 1781 299 1790 339 q 1764 206 1778 289 q 1968 178 1886 190 q 2258 106 2122 154 q 2244 86 2258 97 q 2210 51 2210 57 q 2225 31 2210 39 q 2243 17 2240 22 q 2244 -6 2247 10 q 2239 -31 2240 -21 q 2067 -1 2151 -31 q 1904 65 1985 32 q 1747 86 1826 65 q 1511 172 1717 94 q 1501 185 1506 174 q 1490 199 1497 196 q 1387 223 1443 217 q 1265 229 1331 229 l 1232 229 q 1124 263 1183 229 q 968 335 994 335 q 904 317 936 335 q 799 257 800 257 q 749 247 775 250 q 697 244 724 244 q 640 246 669 244 q 583 249 611 247 q 478 232 522 249 q 388 175 422 210 q 343 129 365 151 q 275 69 303 89 q 182 33 224 33 q 158 34 169 33 q 134 44 147 35 q 121 61 121 53 q 147 90 121 72 q 196 125 188 117 q 299 233 240 167 q 382 331 358 299 l 194 217 q 129 178 161 197 q 61 156 88 156 q 32 165 43 156 q 36 191 22 174 q 106 265 50 208 q 190 338 136 297 q 285 400 243 379 q 315 413 303 410 q 354 415 326 415 q 425 414 382 415 q 482 413 468 413 q 556 419 531 413 q 599 449 581 426 q 620 498 611 464 q 639 569 629 532 q 661 624 643 583 q 689 690 679 665 q 667 697 675 694 q 624 725 640 708 l 629 731 q 651 766 638 750 q 675 783 664 782 q 719 764 704 783 q 739 721 729 742 q 808 751 743 721 q 899 781 874 781 q 1218 718 1061 781 q 1449 600 1299 686 q 1604 535 1563 535 q 1683 640 1624 535 q 1552 724 1618 667 q 1456 842 1486 781 q 1449 868 1449 854 q 1452 892 1449 876 q 1456 914 1456 908 q 1453 933 1456 919 q 1485 916 1465 936 q 1514 900 1504 896 z "},"S":{"ha":1826,"x_min":8,"x_max":1794,"o":"m 1729 810 q 1670 822 1706 814 q 1617 831 1635 831 q 1461 780 1528 831 q 1357 636 1394 729 q 1267 576 1349 615 q 1167 518 1185 536 q 1031 410 1099 447 q 854 347 964 372 q 529 288 692 317 q 447 256 494 278 q 299 188 372 221 q 236 154 267 171 q 115 122 165 139 q 8 83 50 97 q 158 96 43 83 q 260 103 222 103 q 297 102 278 103 q 331 94 315 101 q 340 76 335 85 l 519 19 q 576 -6 544 11 q 619 -22 608 -22 q 631 -26 628 -26 q 632 -22 633 -26 q 619 -13 631 -21 q 606 -3 608 -6 q 607 7 603 0 l 649 -21 q 656 -22 653 -22 q 658 -18 660 -22 q 650 -9 653 -12 q 646 -3 647 -6 q 664 -11 649 -1 q 679 -21 668 -14 l 692 -17 q 679 -3 686 -10 q 667 10 672 3 l 714 -15 l 725 -11 q 701 6 713 -3 q 678 22 689 14 q 717 8 682 24 q 754 -7 753 -7 l 775 1 l 732 28 q 757 25 736 31 q 781 19 764 24 q 818 13 799 14 q 854 11 838 11 q 958 17 908 11 q 1079 33 1007 22 q 1081 18 1081 29 q 1076 -8 1081 7 l 1076 -22 q 1078 -43 1079 -36 q 1068 -67 1069 -58 q 1075 -85 1075 -79 q 1072 -103 1074 -96 q 1067 -113 1071 -111 q 1063 -117 1064 -115 q 1065 -150 1063 -143 q 1190 -101 1133 -135 q 1283 -14 1247 -67 q 1313 53 1301 14 q 1326 129 1319 79 q 1356 124 1332 129 q 1394 118 1379 118 q 1431 132 1419 118 q 1533 196 1467 175 q 1593 207 1556 201 q 1540 225 1567 215 q 1489 221 1515 221 q 1422 231 1451 221 q 1521 464 1460 290 q 1633 661 1569 601 q 1682 677 1646 672 q 1726 684 1718 682 q 1747 689 1735 686 q 1764 694 1758 692 q 1772 708 1769 697 q 1763 710 1767 708 q 1729 707 1742 707 q 1703 711 1711 707 q 1693 725 1694 715 q 1736 739 1714 732 q 1786 769 1771 751 q 1794 794 1794 778 q 1792 807 1794 801 q 1785 811 1789 813 q 1744 808 1758 808 q 1729 810 1735 808 z "},"T":{"ha":1625,"x_min":21,"x_max":1608,"o":"m 453 776 q 573 817 506 808 q 715 826 640 826 q 1032 688 913 826 q 1146 553 1089 619 q 1200 517 1168 532 q 1269 492 1214 510 l 1232 433 q 1336 483 1269 447 q 1503 538 1436 538 q 1569 505 1531 538 q 1604 444 1608 472 q 1540 357 1596 389 q 1322 290 1539 356 q 1250 267 1272 275 q 1188 238 1203 250 q 1219 229 1208 233 q 1251 217 1229 225 q 1303 203 1274 210 q 1344 196 1310 201 q 1415 171 1378 190 q 1402 166 1411 168 q 1392 160 1393 164 q 1392 145 1390 157 q 1388 133 1393 133 q 1364 135 1375 133 q 1355 124 1357 133 q 1351 110 1353 115 q 1322 107 1336 108 q 1317 91 1321 104 q 1307 72 1313 78 q 1265 106 1286 89 q 1172 167 1229 125 q 1101 215 1115 210 q 1072 215 1093 219 q 1043 211 1050 211 q 1024 158 1031 178 q 1018 125 1018 138 q 1025 106 1018 111 q 1061 82 1038 94 q 1078 67 1078 74 q 1069 58 1078 63 q 1065 57 1068 58 q 1075 46 1075 49 l 1061 40 l 1067 26 l 1050 21 l 1060 6 q 1026 -1 1039 0 q 968 -8 989 -8 q 893 6 926 -8 q 860 50 860 19 q 870 113 860 74 q 893 194 881 151 q 776 200 840 197 q 660 203 713 203 q 639 200 649 203 q 621 194 629 197 q 610 197 613 199 q 607 193 607 196 q 615 165 611 178 q 622 132 618 153 q 628 106 625 111 q 663 97 631 101 q 700 90 696 93 l 694 76 q 701 69 696 72 q 706 65 706 67 q 692 60 693 61 q 692 42 694 47 q 682 38 690 38 q 671 35 674 38 q 669 19 669 26 q 647 12 657 15 q 613 8 636 8 q 543 15 575 8 q 500 35 511 21 q 478 113 488 63 q 461 214 469 163 q 448 217 458 217 q 432 217 438 217 q 418 219 421 217 q 344 108 371 138 q 292 72 317 79 q 283 67 290 72 q 276 63 282 65 l 267 72 q 249 71 257 71 q 240 88 244 85 q 221 94 225 90 q 221 111 222 107 q 208 125 214 118 q 211 146 213 139 l 210 167 q 233 229 210 208 q 293 256 250 244 q 303 272 297 260 q 314 290 308 283 q 279 304 290 300 q 243 324 243 319 q 136 346 172 336 q 21 411 28 375 l 38 406 q 208 372 139 372 q 180 397 208 381 q 154 422 151 414 q 188 440 171 431 q 203 476 188 460 q 233 514 228 504 q 324 651 301 622 q 453 776 388 736 z "},"U":{"ha":1924,"x_min":17,"x_max":1903,"o":"m 853 946 q 1006 989 889 949 q 1089 1007 1058 1007 q 1114 1004 1097 1007 q 1250 965 1199 989 q 1414 856 1328 931 q 1461 807 1431 842 q 1503 767 1492 772 q 1506 774 1504 769 q 1513 783 1508 779 q 1523 788 1518 788 q 1532 788 1528 788 q 1546 769 1536 788 q 1556 756 1550 763 q 1572 789 1565 775 q 1588 803 1578 803 q 1610 792 1596 803 q 1635 773 1624 781 q 1651 753 1646 765 q 1658 722 1656 740 q 1658 708 1660 717 q 1656 688 1657 699 q 1656 663 1656 676 q 1660 636 1656 649 q 1693 590 1664 624 q 1715 558 1708 574 q 1718 543 1718 550 q 1717 501 1717 522 q 1757 422 1726 460 q 1811 369 1772 403 q 1828 404 1817 375 q 1849 447 1840 433 q 1867 456 1856 456 q 1880 449 1874 456 q 1890 426 1886 443 q 1899 394 1894 410 q 1903 354 1903 378 q 1890 268 1903 313 q 1864 224 1876 246 q 1870 172 1863 206 q 1878 110 1878 139 l 1878 90 q 1876 78 1876 82 q 1849 38 1872 50 q 1837 31 1842 32 q 1829 28 1832 29 q 1757 94 1807 64 q 1674 132 1717 119 q 1682 79 1678 97 q 1721 15 1696 24 q 1685 6 1710 6 q 1654 17 1661 6 q 1528 172 1590 94 q 1438 244 1474 235 q 1403 235 1428 247 q 1371 222 1378 222 q 1369 233 1367 222 q 1368 247 1371 243 q 1360 265 1365 250 q 1350 283 1354 279 q 1315 306 1324 299 q 1292 347 1301 318 l 1292 365 q 1271 351 1278 356 q 1244 346 1256 342 q 1192 228 1239 329 q 1168 135 1168 176 q 1173 110 1168 117 q 1221 71 1178 104 q 1246 22 1249 49 q 1216 14 1246 14 q 1183 6 1186 14 q 1187 -26 1181 -3 q 1193 -56 1193 -50 q 1186 -68 1193 -67 q 1151 -67 1176 -71 q 1122 -64 1126 -64 q 1090 -72 1114 -64 q 1054 -81 1067 -81 q 1032 -75 1042 -81 q 1010 -43 1014 -65 q 1003 31 1006 -6 q 954 181 985 97 q 922 263 943 211 q 878 240 907 254 q 824 220 849 225 q 776 215 799 215 q 719 221 743 215 q 653 240 694 226 q 640 243 646 244 q 635 232 633 242 q 638 201 638 210 q 636 167 636 178 q 635 146 635 153 q 646 88 635 124 q 688 42 650 71 q 706 19 706 28 q 702 9 706 15 q 691 -2 699 3 q 679 -8 683 -7 q 585 -29 642 -29 q 535 -8 535 -29 l 535 24 q 533 57 535 49 q 518 83 531 65 q 503 100 514 92 q 468 129 471 126 q 451 208 451 157 q 453 229 451 222 q 436 250 456 240 q 415 257 431 253 q 392 94 415 163 q 379 36 379 58 q 381 14 379 28 q 411 -40 383 0 q 424 -68 424 -58 q 413 -83 424 -76 q 377 -109 382 -106 q 344 -112 372 -112 q 274 -82 318 -112 q 233 -50 260 -72 q 240 -24 233 -32 q 249 -1 247 -15 l 249 35 q 242 84 249 67 q 232 116 235 101 q 229 144 229 131 q 230 163 229 154 q 236 197 231 172 q 226 234 239 210 q 213 269 213 258 q 169 431 213 299 q 147 551 147 499 q 110 510 122 526 q 72 411 72 458 q 75 382 72 392 q 91 365 82 375 q 106 349 100 356 q 189 232 147 290 q 164 222 174 225 q 110 213 133 213 q 81 219 92 213 q 63 243 69 226 q 49 274 51 269 q 32 294 38 288 q 18 324 21 310 q 25 354 17 336 q 33 376 33 372 q 32 397 32 383 q 92 547 32 463 q 161 636 114 578 q 278 775 247 742 q 397 886 344 849 q 535 947 463 932 q 636 957 579 957 q 747 951 674 957 q 853 946 821 946 z "},"V":{"ha":2100,"x_min":36,"x_max":2078,"o":"m 2018 736 q 2058 711 2026 726 q 2076 683 2078 701 q 2065 657 2076 668 q 2053 649 2063 654 q 1979 679 2015 664 q 1899 701 1921 701 q 1881 692 1882 701 q 1908 656 1878 671 q 1989 607 1986 617 q 1967 586 1993 596 q 1938 568 1942 576 q 1872 597 1904 579 q 1817 636 1850 610 q 1707 549 1743 574 q 1569 492 1624 492 q 1527 446 1553 492 q 1501 383 1501 400 q 1629 233 1501 360 q 1753 108 1726 136 q 1843 64 1767 93 q 1893 17 1903 42 q 1875 -4 1888 4 q 1851 -18 1872 -7 q 1822 -32 1829 -29 q 1806 -31 1815 -35 q 1654 76 1742 4 q 1510 197 1582 136 q 1340 306 1421 267 q 1328 336 1328 311 q 1332 374 1328 350 q 1335 404 1336 399 q 1254 397 1294 400 q 1194 364 1213 390 q 1097 214 1106 228 q 1018 42 1038 119 q 1077 17 1050 32 q 1113 -17 1104 3 q 1103 -37 1119 -31 q 1060 -44 1086 -44 q 997 -37 1026 -44 q 963 -21 967 -31 q 938 34 947 10 q 929 75 929 58 q 936 108 929 94 q 958 150 950 133 q 1006 271 990 211 q 1038 351 1013 297 q 1069 428 1063 404 q 974 422 1018 422 q 888 432 922 422 q 790 454 808 454 q 686 286 774 415 q 657 217 657 243 q 660 200 657 211 q 701 104 685 128 q 774 60 726 69 q 829 41 804 51 q 882 10 854 31 q 889 -6 889 4 q 886 -21 889 -14 q 881 -33 883 -28 q 848 -35 872 -33 q 818 -37 824 -37 q 771 -33 793 -37 q 725 -12 749 -28 q 628 80 674 24 q 539 193 583 136 q 535 206 535 197 q 565 308 551 260 q 579 397 579 357 q 576 438 579 424 q 543 431 567 435 q 515 431 519 426 q 265 279 390 354 q 125 83 125 179 q 146 65 125 75 q 171 43 167 54 q 143 19 179 19 q 87 32 118 19 q 49 56 56 44 q 43 78 43 68 q 54 121 43 96 q 66 141 57 129 q 82 175 75 153 q 111 278 96 226 q 93 288 101 282 q 36 308 39 293 q 93 449 36 389 q 185 519 99 454 q 296 662 251 572 q 404 800 340 751 q 556 884 478 854 q 700 914 635 914 q 847 904 761 914 q 1076 882 1043 882 q 1176 896 1135 882 q 1200 899 1188 899 q 1274 892 1231 899 q 1389 874 1386 874 q 1544 903 1453 874 q 1724 964 1636 933 q 1774 1024 1731 965 q 1808 1043 1792 1047 q 1835 989 1821 1039 q 1861 933 1849 939 q 1953 839 1907 914 q 2018 736 2014 742 z "},"W":{"ha":2049,"x_min":38,"x_max":2007,"o":"m 1338 775 q 856 701 1126 747 q 417 622 676 671 q 225 585 321 603 q 163 639 172 632 q 56 661 153 646 q 92 604 81 621 q 111 538 111 574 q 88 490 111 524 q 38 440 64 457 q 82 438 54 438 q 154 451 126 438 q 203 485 178 468 q 342 460 289 468 q 604 421 506 432 q 622 408 611 419 q 632 397 625 406 q 649 406 635 397 q 672 414 663 414 q 800 406 696 414 q 968 397 904 397 q 1347 431 1064 397 q 1579 447 1489 447 q 1631 458 1585 447 q 1699 474 1678 468 q 1828 499 1781 490 q 1965 536 1911 515 q 1994 554 1985 550 q 1994 567 1994 561 q 1984 576 1993 574 q 1972 578 1975 578 q 1958 574 1968 578 q 1933 569 1949 569 q 1851 556 1907 567 q 1779 544 1796 544 l 1779 556 q 1799 581 1789 568 q 1831 586 1810 585 q 1869 590 1853 588 q 1937 598 1885 593 q 2007 607 1989 603 q 2004 643 2006 625 q 1742 753 1926 711 q 1493 786 1596 786 q 1424 783 1458 785 q 1338 775 1389 782 z "},"X":{"ha":747,"x_min":68,"x_max":679,"o":"m 342 1149 q 438 1128 390 1149 q 586 1063 511 1094 q 583 1049 585 1058 q 579 1036 582 1039 q 501 979 563 1018 q 453 931 453 949 q 460 917 453 926 q 519 872 468 907 q 578 819 564 842 q 679 422 679 657 q 676 388 679 394 q 654 368 665 378 l 643 365 q 643 376 643 371 q 625 361 632 360 l 628 368 l 607 364 q 615 372 615 369 q 613 378 617 375 q 608 382 610 381 q 590 378 596 376 q 595 385 597 379 q 583 406 593 392 q 588 442 588 431 q 581 472 588 447 q 558 504 565 493 q 544 480 557 500 q 532 439 532 460 q 527 417 531 433 q 524 392 524 400 q 533 339 524 369 q 563 256 542 308 q 568 221 568 240 q 558 163 568 197 q 536 71 536 82 q 539 52 536 63 q 550 33 542 42 q 578 6 564 19 q 538 -3 556 1 q 514 -7 521 -7 q 458 1 478 -7 q 425 31 439 8 q 385 129 404 79 q 297 208 353 189 q 239 111 268 160 q 200 6 200 40 q 225 -31 200 -14 q 232 -41 231 -35 q 236 -56 233 -47 q 200 -58 224 -57 q 167 -60 176 -60 q 150 -60 158 -60 q 127 -56 139 -57 q 92 -47 115 -56 q 68 -37 83 -44 l 72 131 q 72 176 72 153 q 71 224 71 199 q 72 276 71 258 q 82 326 74 294 q 103 488 103 408 q 81 656 103 575 q 74 683 76 669 q 74 701 74 696 q 114 817 74 751 q 176 928 168 904 q 179 945 179 933 q 181 965 179 957 q 180 992 181 978 q 179 1019 179 1006 q 181 1051 179 1036 q 201 1090 183 1065 q 253 1165 251 1158 q 262 1174 256 1172 q 269 1178 268 1176 q 342 1149 306 1163 z "},"Y":{"ha":861,"x_min":68,"x_max":804,"o":"m 540 1033 q 503 1051 525 1044 q 463 1057 481 1057 q 418 1047 425 1057 q 406 1057 408 1056 l 401 1054 l 410 1032 q 403 994 403 1014 q 410 953 403 976 q 429 906 417 929 q 489 810 442 882 q 558 646 558 703 q 453 571 558 574 q 342 550 347 568 q 328 543 333 546 q 294 524 310 533 q 253 491 272 508 q 224 454 235 474 q 175 394 219 447 q 128 314 140 354 q 99 164 99 221 q 101 129 99 147 q 107 88 103 111 q 94 58 108 76 q 68 21 74 32 q 97 11 82 15 q 124 10 115 10 q 151 15 140 10 q 235 79 193 47 q 283 92 257 88 q 325 97 308 97 q 360 91 349 97 q 376 58 372 85 q 381 14 376 54 q 415 15 393 14 q 444 17 436 17 q 484 12 465 17 q 553 7 503 7 q 588 7 569 7 q 628 8 607 7 q 649 3 639 3 q 638 18 640 10 q 631 38 635 26 q 617 52 628 49 q 594 56 606 56 q 562 51 582 56 q 522 44 542 47 q 506 48 514 44 q 492 60 497 51 q 483 79 488 69 q 458 104 471 92 q 454 133 454 111 q 528 201 503 176 q 622 314 607 278 q 663 414 654 388 q 671 474 671 440 l 671 524 q 672 544 672 538 q 660 626 672 581 q 632 717 642 683 q 682 681 654 701 q 727 646 710 661 q 758 614 744 631 q 785 583 782 586 l 804 579 q 797 615 800 597 q 733 715 768 657 q 651 854 692 785 q 625 894 633 881 q 597 948 608 921 q 572 997 586 975 q 540 1033 558 1019 m 404 64 q 430 53 417 54 q 456 50 443 51 q 436 79 442 69 q 417 113 417 108 q 403 107 415 110 q 385 99 393 103 q 390 81 386 90 q 404 64 393 72 z "},"Z":{"ha":1313,"x_min":22,"x_max":1304,"o":"m 965 1044 q 1168 976 1058 1044 q 1304 767 1304 892 q 1297 716 1304 735 q 1264 697 1290 697 q 1244 699 1256 697 q 1101 749 1233 701 q 1025 768 1047 768 q 1010 765 1018 768 q 982 736 990 757 q 974 688 974 715 q 985 596 974 658 q 996 511 996 533 q 993 489 996 503 q 949 172 971 331 q 825 11 911 49 q 788 1 804 1 q 774 3 778 1 q 742 10 750 10 q 724 -7 733 8 q 708 -31 710 -29 q 697 -12 703 -21 q 697 6 694 0 q 694 -11 696 -3 q 689 -27 693 -19 q 675 -32 685 -35 q 675 -4 675 -18 q 665 15 675 15 q 656 -4 656 15 l 656 -19 q 647 -36 656 -33 q 633 -24 636 -40 q 612 29 626 24 q 589 37 597 35 q 564 39 581 39 q 542 26 547 39 q 533 -10 538 14 q 524 -44 529 -33 q 506 -56 519 -56 q 500 -35 503 -56 q 494 -17 497 -25 q 476 -36 481 -31 q 464 -49 471 -42 l 451 -19 q 447 -36 450 -28 q 439 -44 444 -44 l 425 -37 q 438 17 425 -11 q 468 68 446 33 q 428 101 439 90 q 408 125 417 113 q 399 149 400 138 q 396 171 399 168 q 353 196 383 182 q 317 217 322 210 q 292 262 304 232 q 267 305 281 292 q 226 319 254 318 q 183 328 199 321 q 140 342 168 335 q 89 354 96 353 q 50 371 61 363 q 22 408 32 383 q 35 408 28 408 q 44 408 43 407 q 40 421 46 411 q 35 432 33 431 l 57 429 q 47 447 51 438 q 69 447 60 450 q 81 442 79 443 q 97 442 83 442 q 144 424 118 432 q 171 424 153 421 q 196 428 189 428 q 218 425 210 425 q 233 432 226 425 q 196 440 208 438 q 146 461 157 451 q 149 483 147 472 q 132 485 144 486 q 117 485 119 483 q 75 558 69 522 q 96 643 81 619 q 140 694 118 668 q 150 740 147 715 q 153 790 153 765 q 146 876 153 831 q 143 894 146 883 q 215 756 179 825 q 233 747 224 747 q 274 771 253 747 q 324 869 300 800 q 333 900 326 881 q 363 840 351 886 q 376 790 375 793 q 402 720 394 747 q 410 676 410 693 q 408 657 410 664 q 404 628 403 633 q 507 613 404 624 q 643 572 610 603 q 653 567 649 567 q 649 622 650 594 q 632 706 632 693 q 713 950 632 863 q 965 1044 799 1044 z "},"[":{"ha":1465,"x_min":44,"x_max":1421,"o":"m 196 751 q 211 764 199 753 q 228 775 224 775 q 232 767 229 771 q 235 742 231 742 q 252 747 239 742 q 269 753 265 751 q 297 753 290 753 q 282 726 297 740 q 267 700 267 713 q 311 688 294 693 q 400 650 363 671 q 538 565 468 607 q 649 531 588 543 q 763 518 710 518 q 915 546 803 518 q 1010 560 971 560 q 1196 492 1135 560 q 1214 478 1201 485 q 1242 465 1226 472 q 1274 444 1257 457 q 1307 422 1290 432 q 1340 403 1324 413 q 1363 375 1357 393 q 1400 306 1369 357 q 1421 240 1421 271 q 1344 269 1372 254 q 1297 310 1315 285 q 1281 342 1288 322 q 1258 400 1269 371 q 1232 426 1251 413 q 1196 450 1229 429 q 1185 422 1189 439 q 1178 392 1181 404 q 1168 366 1175 381 q 1157 342 1161 351 q 1151 318 1153 333 q 1149 306 1149 308 q 1140 276 1140 285 q 1146 260 1140 269 q 1179 235 1151 250 q 1218 209 1207 219 q 1244 163 1229 199 q 1261 132 1253 142 q 1268 117 1264 124 q 1298 95 1276 108 q 1324 69 1319 82 q 1324 62 1325 67 q 1321 48 1322 57 q 1308 19 1319 39 q 1289 29 1304 14 q 1274 58 1281 51 q 1255 72 1268 64 q 1235 87 1242 81 q 1225 104 1229 93 q 1218 121 1221 115 q 1203 157 1207 146 q 1183 185 1194 176 q 1119 214 1158 203 q 1074 143 1096 178 l 1061 104 q 1045 57 1053 81 q 1025 19 1038 33 q 1014 -1 1019 8 q 967 -10 1000 -10 l 943 -10 q 954 10 949 0 q 978 19 965 14 q 998 63 993 38 q 1004 96 1003 89 q 1013 121 1006 103 q 1019 154 1019 139 q 1014 183 1019 176 q 992 203 1008 190 q 965 225 975 215 q 914 278 939 251 q 886 292 900 288 q 869 296 872 296 q 792 279 838 296 q 717 254 728 256 q 694 252 707 253 q 676 251 682 251 q 633 253 654 251 q 590 256 611 254 q 537 244 558 256 q 499 203 515 232 q 476 145 482 175 q 469 92 469 115 l 469 76 l 474 44 q 469 33 469 36 q 478 13 474 22 q 450 -3 478 7 q 410 -18 422 -12 q 410 15 408 -3 q 418 29 418 25 l 419 89 q 426 139 419 114 q 439 186 432 164 q 440 201 440 194 q 440 213 440 208 q 425 206 431 208 q 392 188 401 194 q 373 176 382 182 q 360 160 364 171 q 357 132 357 149 q 360 85 357 115 q 364 51 364 56 l 364 -3 q 369 -24 364 -14 q 376 -31 371 -26 l 318 -51 q 324 -22 317 -47 q 331 18 331 4 q 319 108 331 50 q 307 175 307 165 q 342 220 307 189 q 378 274 378 251 q 356 311 378 289 q 329 345 333 333 q 324 375 325 357 q 322 396 322 393 q 324 433 322 415 q 326 469 325 451 q 317 483 321 478 q 228 575 286 521 q 184 556 201 565 q 157 538 167 547 q 129 500 139 513 q 71 467 110 475 q 63 481 65 475 q 50 508 53 499 q 46 537 47 517 q 44 560 44 557 q 44 576 44 569 q 46 590 44 583 q 72 636 69 631 q 118 697 94 674 q 157 729 135 714 q 196 751 169 738 z "},"\\":{"ha":758,"x_min":40,"x_max":707,"o":"m 451 922 q 502 905 472 922 q 551 865 532 888 q 578 797 578 835 q 576 782 578 788 l 571 761 q 540 740 563 749 q 583 681 556 714 q 626 628 624 632 q 688 517 669 565 q 707 407 707 469 q 693 338 707 379 q 665 257 679 296 q 660 207 660 240 q 658 180 660 188 q 650 149 657 172 q 643 117 643 125 q 649 82 649 96 q 644 60 649 72 q 638 39 640 49 q 594 -19 626 17 q 540 -79 575 -42 q 511 -99 532 -89 q 483 -116 490 -110 q 465 -131 475 -122 q 444 -139 454 -139 q 432 -131 439 -135 q 408 -112 419 -122 q 397 -90 397 -101 q 403 -72 397 -81 q 431 -46 410 -62 q 452 -35 436 -42 q 472 -26 468 -29 q 467 -14 469 -19 q 394 26 458 -11 q 343 46 368 42 q 338 38 340 38 q 331 6 338 17 q 314 -4 325 -4 q 249 6 278 -4 q 213 40 221 15 q 253 78 242 67 q 274 117 274 97 q 267 142 274 122 q 260 178 260 161 q 267 242 260 188 q 269 282 269 263 q 232 292 247 286 q 167 317 172 315 q 86 331 126 324 q 40 376 40 343 q 62 424 43 401 q 97 446 81 446 q 124 439 111 446 q 154 424 138 432 q 221 453 182 424 q 275 513 260 482 q 226 533 243 524 q 199 560 210 543 q 186 604 190 588 q 163 640 178 638 q 102 683 126 649 q 82 743 78 718 q 92 819 86 781 q 128 851 101 842 q 163 849 136 856 q 190 843 189 843 q 240 855 210 843 q 283 867 269 867 q 313 865 294 868 q 335 861 332 861 q 351 868 346 861 q 398 906 365 890 q 451 922 431 922 z "},"]":{"ha":1764,"x_min":54,"x_max":1739,"o":"m 135 756 q 210 814 185 800 q 310 839 254 839 q 464 776 347 839 q 646 713 581 713 q 968 650 717 713 q 1179 619 1092 619 l 1614 704 q 1633 710 1626 708 q 1675 717 1661 717 q 1708 700 1703 717 q 1706 675 1711 692 q 1701 653 1700 658 q 1722 628 1704 644 q 1733 600 1739 613 q 1720 594 1726 597 q 1714 586 1714 590 q 1667 576 1692 579 q 1626 569 1642 574 q 1509 547 1581 554 q 1379 539 1438 539 q 1342 540 1364 539 q 1315 542 1319 542 q 1272 522 1303 542 q 1224 499 1240 503 l 1150 481 q 1193 463 1172 472 q 1242 435 1231 446 q 1253 419 1249 429 q 1264 400 1258 408 q 1229 394 1251 396 q 1203 393 1207 393 q 1131 399 1169 393 q 1075 407 1092 404 l 997 361 q 967 343 975 349 q 942 322 940 328 q 958 314 953 317 q 975 294 975 303 q 963 197 975 246 q 929 101 950 149 q 925 77 926 94 q 924 50 924 60 q 944 44 933 44 q 970 50 951 44 q 999 51 989 56 q 999 46 999 49 q 1000 36 1004 39 q 966 32 999 36 q 926 22 933 28 q 915 6 918 17 q 907 -21 911 -6 q 888 -51 900 -37 q 869 -72 875 -65 l 853 -65 q 867 -51 860 -61 q 881 -30 875 -42 q 885 -17 888 -18 q 849 -33 882 -15 q 792 -62 800 -58 q 781 -61 783 -65 q 776 -51 778 -57 q 801 -43 793 -46 q 840 -27 825 -35 q 853 -16 856 -19 q 845 -12 851 -12 q 803 -28 839 -12 q 785 -31 789 -33 l 774 -26 q 814 -8 797 -15 q 850 2 831 0 q 885 10 869 4 q 900 29 900 15 q 924 149 900 72 q 947 257 947 225 q 929 274 943 265 q 897 293 915 282 q 893 286 894 289 q 876 260 878 265 q 838 158 865 226 q 815 81 815 103 q 828 74 815 74 q 854 75 844 75 q 867 75 860 75 q 874 72 872 72 q 871 65 871 72 q 868 56 871 57 q 822 56 839 56 q 805 53 810 56 q 756 15 800 51 q 724 -1 738 1 l 699 -4 q 716 9 707 1 q 733 25 725 17 q 699 14 731 26 q 664 4 667 1 q 649 19 665 17 q 629 22 632 21 q 636 25 633 24 q 654 32 649 31 q 678 32 671 32 q 695 34 688 32 q 718 44 703 36 q 729 51 722 46 q 722 54 725 53 q 699 56 708 54 q 678 69 690 58 q 672 78 672 75 q 726 74 692 78 q 763 71 760 71 q 793 85 789 71 q 836 206 797 99 q 858 292 851 246 q 783 272 819 281 q 710 263 746 263 q 688 263 699 263 q 651 269 661 268 q 625 271 642 271 q 590 270 608 271 q 553 269 572 269 q 411 289 465 269 q 286 397 329 318 q 256 467 268 433 q 243 536 243 501 q 226 618 243 576 q 178 689 208 660 q 141 700 171 696 q 107 704 111 704 q 54 718 72 708 q 93 734 64 724 q 135 756 122 744 z "},"^":{"ha":950,"x_min":17,"x_max":939,"o":"m 406 1164 q 422 1134 417 1153 q 426 1093 426 1115 q 424 1047 426 1075 q 420 992 422 1019 q 408 947 418 965 q 358 893 393 917 q 300 858 318 869 q 278 840 290 853 q 266 829 272 835 q 256 810 260 824 q 249 787 253 797 q 236 774 246 776 q 226 763 226 771 q 235 742 232 751 q 254 698 243 718 q 279 671 265 678 q 306 663 293 664 q 339 661 319 661 l 360 661 q 462 656 371 661 q 585 650 553 650 q 806 621 750 650 q 861 536 861 592 q 858 513 861 524 q 852 492 854 501 q 822 397 850 482 q 807 335 811 361 q 832 314 806 325 q 869 285 858 303 q 913 160 893 243 q 939 -4 932 78 q 924 -24 939 -17 q 906 -36 908 -32 q 890 -47 896 -47 q 888 -24 886 -47 q 889 8 889 -1 q 878 81 889 43 q 847 178 868 119 q 811 218 839 201 q 768 117 789 167 q 725 49 750 79 q 721 37 721 43 q 720 26 721 31 q 712 21 719 22 q 700 18 704 19 q 678 5 696 17 q 653 -7 661 -7 q 642 -4 646 -8 q 635 7 639 0 q 674 50 649 25 q 699 79 693 69 q 708 112 704 89 q 715 140 713 135 q 731 164 718 146 q 744 196 744 182 q 719 275 744 231 q 656 363 693 319 q 644 369 649 369 q 632 363 642 369 q 615 356 622 356 q 582 358 606 356 q 544 361 558 361 q 503 358 518 361 q 471 356 489 356 q 431 355 450 356 q 399 344 411 354 q 347 218 347 307 q 367 178 347 190 q 406 158 375 172 q 469 106 456 135 q 452 99 471 101 q 433 93 433 96 q 382 113 400 103 q 343 135 364 122 l 331 58 q 335 40 333 49 q 331 25 336 31 q 302 1 315 10 q 275 -7 289 -7 q 257 0 264 -7 q 292 60 279 29 q 306 126 306 92 l 306 151 q 301 185 306 176 q 279 205 297 193 q 261 228 261 217 q 269 260 261 243 q 289 313 289 299 q 292 344 292 333 q 285 367 292 360 q 260 378 278 374 q 238 388 243 383 q 196 415 210 406 q 151 454 168 433 q 128 494 142 467 q 110 539 114 522 q 106 619 107 556 q 101 661 103 653 q 94 671 100 669 q 83 675 89 672 q 65 688 68 683 q 61 701 61 693 l 58 718 q 54 731 53 728 q 74 745 57 735 q 92 763 92 756 q 83 770 92 765 q 71 779 75 775 q 68 794 69 790 q 56 819 63 808 q 28 868 29 865 q 19 897 22 881 q 17 925 17 913 q 24 946 22 939 q 31 985 31 969 q 32 1006 32 999 q 28 1048 32 1024 q 24 1082 25 1072 q 25 1101 22 1093 q 33 1114 28 1108 q 39 1067 38 1113 q 47 1022 40 1022 q 47 1040 47 1036 q 51 1076 47 1044 q 72 1138 54 1108 q 81 1150 75 1142 q 74 1114 81 1140 q 68 1082 68 1088 l 68 1043 q 102 1048 81 1036 q 147 1075 124 1060 q 146 1067 146 1069 q 128 1042 139 1046 q 61 990 78 1024 q 44 899 44 957 q 57 915 50 906 q 71 933 64 924 q 72 914 72 932 q 71 879 71 896 q 76 856 71 863 q 101 835 81 849 q 125 832 121 822 q 119 861 122 846 q 115 891 117 876 q 113 908 113 906 q 115 925 113 918 q 121 939 118 932 l 133 869 l 168 842 q 171 872 168 858 q 181 926 181 918 q 182 964 181 944 q 192 969 186 967 q 197 953 197 964 q 195 931 197 944 q 183 858 193 917 q 179 831 179 835 q 274 872 250 838 q 278 886 275 879 q 289 897 283 892 q 283 921 289 906 q 271 968 271 956 q 271 991 271 979 q 275 1017 271 1003 q 281 1024 278 1019 q 288 972 285 994 q 298 931 292 949 q 313 896 304 913 q 372 941 349 917 q 394 981 394 965 q 392 1006 394 994 q 379 1033 389 1018 q 354 1054 367 1043 q 343 1079 346 1068 q 339 1100 340 1090 q 364 1078 350 1100 q 378 1063 371 1069 q 378 1095 381 1068 q 375 1140 375 1122 q 388 1105 381 1140 q 399 1058 396 1069 q 405 1053 400 1051 q 410 1061 410 1056 q 408 1096 410 1078 q 403 1139 406 1114 q 402 1155 401 1150 q 406 1164 403 1160 z "},"_":{"ha":868,"x_min":19,"x_max":874,"o":"m 246 1076 q 404 946 374 1076 q 459 765 443 778 q 546 708 475 751 q 592 674 569 694 q 643 607 610 658 q 693 539 676 556 q 779 425 749 483 q 831 254 817 353 l 779 286 q 806 184 794 221 q 818 106 818 147 q 813 63 818 97 q 808 11 808 29 q 814 -26 808 -6 q 838 -78 819 -47 q 874 -139 856 -108 q 856 -162 874 -147 q 835 -198 838 -178 q 775 -235 832 -218 q 692 -251 710 -247 q 653 -222 682 -253 q 632 -197 635 -200 q 602 -176 619 -183 q 556 -161 585 -168 q 494 -137 503 -147 q 481 -85 486 -126 q 468 -44 476 -44 q 451 -48 458 -47 q 443 -46 444 -49 q 413 -14 426 -25 q 393 -1 410 -12 l 389 -31 q 419 -52 393 -39 q 449 -68 444 -65 q 461 -83 454 -75 q 374 -56 425 -83 q 285 -15 310 -21 q 295 -4 288 -10 q 307 -8 303 1 q 322 -9 314 -6 q 336 -15 331 -12 q 344 -5 340 -15 q 351 19 347 6 q 347 56 349 43 q 326 100 340 92 q 310 92 314 108 q 304 50 307 71 q 260 75 301 50 q 235 88 238 88 q 221 56 228 86 q 207 26 214 26 l 242 7 q 246 -6 239 6 q 250 -17 247 -11 q 178 -10 214 -12 q 115 -15 146 -15 q 51 1 78 -15 q 19 -4 35 -1 l 35 14 q 66 11 46 15 q 90 7 86 7 q 132 25 111 7 q 153 58 153 43 q 144 190 153 113 q 135 296 135 268 q 43 415 71 361 q 21 499 21 458 q 68 657 21 611 q 129 724 115 703 q 174 828 156 764 q 199 951 192 892 q 187 958 196 951 q 168 969 178 964 q 125 963 146 965 q 121 976 121 965 q 124 1004 124 999 q 176 1058 147 1040 q 246 1076 204 1076 z "},"`":{"ha":2049,"x_min":40,"x_max":2010,"o":"m 710 733 q 1192 660 921 706 q 1631 581 1371 629 q 1822 543 1726 561 q 1885 597 1875 590 q 1992 619 1894 604 q 1956 563 1967 579 q 1936 496 1936 532 q 1960 449 1936 482 q 2010 399 1983 415 q 1965 396 1993 396 q 1893 410 1921 396 q 1844 443 1868 426 q 1706 418 1758 426 q 1443 379 1542 390 q 1425 367 1436 378 q 1415 356 1422 364 q 1399 364 1413 356 q 1375 372 1385 372 q 1247 364 1351 372 q 1079 356 1143 356 q 704 389 978 356 q 485 406 568 406 q 422 415 467 406 q 349 432 378 424 q 219 457 267 449 q 82 494 136 474 q 53 513 63 508 q 53 526 53 519 q 63 534 54 532 q 75 536 72 536 q 89 532 79 536 q 114 528 99 528 q 196 514 140 525 q 268 503 251 503 l 268 514 q 249 539 258 526 q 216 544 238 543 q 178 549 194 546 q 110 556 163 551 q 40 565 58 561 q 43 601 42 583 q 306 711 121 669 q 554 744 451 744 q 624 742 589 743 q 710 733 658 740 z "},"a":{"ha":2194,"x_min":13,"x_max":2174,"o":"m 1149 593 q 1421 535 1276 593 q 1672 432 1546 483 q 1713 426 1689 426 q 1767 432 1729 426 q 1825 438 1804 438 q 1878 430 1857 438 q 1919 401 1899 422 q 1989 332 1954 367 q 2072 296 2013 315 q 2174 247 2132 276 q 2174 231 2174 239 q 2144 174 2171 199 q 2086 150 2117 150 q 1992 184 2053 150 q 1915 218 1931 218 q 1895 213 1911 218 q 1867 210 1879 207 q 1799 177 1847 199 q 1669 138 1750 156 q 1699 114 1683 125 q 1738 92 1710 107 l 1711 75 q 1726 54 1718 64 q 1728 46 1726 50 l 1700 64 q 1679 60 1688 60 l 1674 31 q 1668 46 1671 40 q 1661 58 1665 51 l 1638 50 l 1628 25 q 1619 53 1624 40 q 1608 67 1615 67 q 1593 56 1603 67 q 1581 44 1583 44 q 1576 58 1578 54 q 1567 74 1571 74 q 1508 77 1529 74 q 1418 99 1488 81 q 1401 100 1413 100 q 1360 94 1385 100 q 1304 79 1336 88 q 1127 56 1232 67 q 951 44 1022 44 q 879 50 903 44 q 883 21 878 40 q 889 -3 889 1 q 890 -27 890 -18 q 886 -44 889 -36 l 868 -21 l 840 -26 l 836 -61 q 826 -47 831 -54 q 815 -29 818 -29 l 797 -32 l 788 -64 q 783 -47 785 -53 q 772 -26 778 -29 q 760 -42 769 -25 q 747 -61 751 -58 q 747 -50 746 -57 q 747 -36 747 -43 q 743 -26 747 -26 q 727 -3 729 -26 q 722 24 725 19 q 697 46 715 38 q 640 65 679 54 q 563 81 608 76 q 469 89 517 85 q 161 115 315 101 q 56 143 86 126 q 13 215 13 167 q 48 247 14 239 q 138 256 82 256 q 169 255 154 256 q 200 254 185 254 l 367 254 q 401 249 378 254 q 431 243 424 243 q 572 314 490 243 q 718 454 644 383 q 879 551 808 536 q 1014 581 1000 578 q 1149 593 1083 593 z "},"b":{"ha":1375,"x_min":13,"x_max":1368,"o":"m 13 972 l 35 1044 q 228 988 131 1044 q 363 889 256 971 q 453 808 400 858 q 507 756 488 775 q 569 663 550 713 q 607 619 583 628 l 624 600 q 629 613 628 600 q 633 631 631 626 q 660 646 643 646 q 688 615 682 638 q 682 599 689 611 q 671 586 675 588 q 683 581 678 582 q 696 578 689 579 q 992 751 853 706 q 1240 800 1046 769 l 1357 800 l 1368 789 q 1283 595 1358 693 q 1207 461 1207 497 q 1181 388 1207 419 q 1096 339 1150 350 q 1131 289 1122 301 q 1146 233 1146 267 q 1100 101 1146 172 q 990 22 1049 22 q 861 40 918 22 q 774 88 804 57 q 701 193 731 131 q 656 317 685 228 q 643 303 650 310 q 633 289 636 297 q 629 247 631 281 q 624 221 626 228 q 613 206 622 214 q 601 194 603 199 q 594 240 596 224 q 588 271 592 256 q 574 278 581 274 q 519 219 554 246 q 451 178 492 197 q 390 126 429 167 q 329 94 360 94 q 179 164 271 94 q 79 306 79 239 l 79 389 q 94 405 79 399 q 110 414 108 411 q 111 454 110 433 q 160 485 113 457 q 190 511 178 496 q 101 639 101 547 q 85 728 101 668 q 56 832 57 829 q 35 878 44 854 q 24 931 35 894 q 13 967 18 949 l 13 972 z "},"c":{"ha":1132,"x_min":13,"x_max":1108,"o":"m 503 943 q 483 1016 503 968 q 460 1089 464 1064 q 532 1063 482 1089 q 590 1036 582 1036 q 624 1040 594 1036 q 665 1043 653 1043 q 756 1028 714 1043 q 871 956 813 1007 q 906 943 896 949 q 914 935 911 938 q 925 917 924 924 l 928 888 l 919 869 q 912 859 914 861 q 906 853 910 857 q 918 842 906 849 q 926 827 924 839 q 931 799 928 815 q 911 783 929 794 q 893 761 893 772 q 903 742 893 754 q 913 742 906 738 q 924 751 921 747 q 1013 881 968 815 q 1051 915 1029 904 q 1074 911 1063 914 q 1093 900 1085 908 q 1105 880 1101 892 q 1108 853 1108 868 q 1058 765 1108 824 q 996 651 1004 701 q 922 201 958 426 q 971 92 922 146 q 1019 11 1019 38 q 959 -20 1019 -6 q 871 -35 899 -35 q 801 -26 846 -35 q 714 -3 757 -18 q 669 4 696 4 q 624 -8 646 4 q 567 -27 603 -19 q 503 -35 532 -35 q 144 185 276 -35 q 40 401 67 313 q 13 578 13 489 q 22 583 19 582 q 43 589 35 589 q 54 583 53 589 q 128 396 90 489 q 202 311 153 361 q 264 244 251 261 q 276 338 265 251 q 324 499 288 424 q 401 599 353 561 q 518 672 403 600 q 474 754 492 711 q 451 842 451 806 q 467 900 451 875 q 503 943 485 921 z "},"d":{"ha":1521,"x_min":78,"x_max":1468,"o":"m 135 999 q 168 981 151 989 q 160 890 168 944 q 153 810 153 835 q 179 735 153 786 q 247 671 213 671 q 281 688 267 682 q 360 716 326 708 q 440 726 394 724 q 522 729 486 729 l 575 729 q 614 728 596 729 q 647 728 632 728 q 782 742 722 728 q 957 814 865 761 q 1086 904 972 822 q 1213 960 1164 960 q 1272 956 1247 960 q 1332 942 1297 953 q 1400 915 1367 931 q 1468 885 1433 900 q 1390 831 1450 847 q 1281 793 1303 807 q 1256 763 1271 788 q 1232 724 1235 728 q 1193 675 1206 690 q 1161 619 1171 646 q 1139 532 1158 610 q 1124 475 1129 494 q 1090 383 1107 429 q 1087 345 1088 371 q 1086 304 1086 319 l 1086 242 q 1085 206 1086 224 q 1085 169 1085 188 q 1087 124 1085 142 q 1093 94 1089 107 q 1100 72 1097 81 q 1115 53 1103 64 q 1131 44 1119 49 q 1167 27 1160 32 q 1186 8 1175 22 q 1201 -10 1197 -7 q 1133 -25 1160 -25 q 1004 190 1050 -25 q 956 371 974 333 q 938 286 942 321 q 935 204 935 251 q 933 172 935 196 q 932 142 932 147 q 938 99 932 115 q 958 78 944 83 q 974 74 964 76 q 994 67 983 72 q 1012 53 1006 63 q 1011 36 1018 43 q 996 26 1006 31 q 975 18 986 22 q 946 6 958 6 q 919 15 938 6 q 896 33 901 25 q 881 72 890 42 q 858 208 863 122 q 854 328 854 293 q 719 338 808 328 q 592 347 631 347 q 551 347 571 347 q 503 326 521 344 q 487 296 493 317 q 476 262 481 275 q 464 225 472 249 q 451 185 456 201 q 446 151 447 169 q 444 108 444 132 q 452 49 444 78 q 478 3 460 21 q 514 -14 486 -7 q 550 -31 542 -21 q 558 -56 558 -42 q 548 -69 558 -64 q 514 -74 538 -74 q 446 -58 469 -74 q 428 -37 436 -51 q 415 -17 419 -24 q 392 30 407 -3 q 373 75 378 63 q 368 96 368 88 q 372 135 368 106 q 376 176 376 164 q 369 200 376 193 q 315 226 343 226 q 247 207 282 226 q 194 163 219 192 q 169 113 179 144 q 160 50 160 81 q 174 -4 160 17 q 192 -11 178 -10 q 213 -15 207 -12 q 231 -28 218 -17 q 247 -42 243 -39 q 171 -64 204 -64 q 117 -57 154 -64 q 113 47 117 -14 q 108 142 108 108 q 117 175 108 164 q 150 207 139 196 q 189 275 189 244 q 179 328 189 296 q 157 425 157 401 q 160 471 157 450 q 169 550 169 544 q 165 586 169 569 q 125 725 151 649 q 78 882 78 861 l 78 900 q 81 958 78 938 q 92 990 83 979 q 119 1001 100 1001 q 128 1001 124 1001 q 135 999 133 999 z "},"e":{"ha":1928,"x_min":18,"x_max":1907,"o":"m 1058 893 q 1134 857 1101 893 q 1201 783 1167 821 l 1246 783 q 1400 732 1342 783 q 1533 518 1415 718 q 1576 454 1558 476 q 1633 404 1600 425 q 1705 368 1676 378 q 1763 358 1733 358 q 1836 374 1796 358 q 1893 397 1871 389 l 1907 367 q 1819 313 1863 333 q 1711 286 1763 286 q 1563 310 1643 286 q 1496 333 1536 317 q 1576 256 1525 299 q 1665 194 1636 206 l 1654 183 q 1525 232 1588 194 q 1424 311 1471 264 l 1368 278 q 1358 267 1368 272 q 1349 256 1347 261 q 1406 165 1354 235 q 1457 92 1457 94 q 1425 68 1457 79 q 1390 39 1393 57 q 1401 6 1388 25 q 1406 -25 1414 -14 q 1376 -45 1394 -40 q 1335 -50 1358 -50 l 1308 -50 q 1231 -40 1264 -50 q 1182 -4 1197 -29 q 1145 94 1157 33 q 1124 208 1133 156 q 978 181 1051 190 q 832 172 904 172 q 706 176 751 172 q 633 186 657 183 q 667 89 642 157 q 685 33 678 58 q 649 35 663 33 q 518 61 569 42 q 490 24 500 33 q 444 -1 467 -1 q 371 14 399 3 q 289 53 367 15 q 264 90 264 64 q 318 207 264 110 q 344 281 344 254 q 336 324 344 300 q 307 411 308 406 l 313 411 l 301 444 q 167 332 231 367 q 40 294 114 304 q 32 303 35 300 q 18 311 22 311 q 135 378 81 339 q 221 451 175 407 q 272 489 225 456 q 307 532 301 510 q 408 703 336 649 q 694 774 501 774 q 826 764 772 774 q 929 744 881 754 q 971 847 935 800 q 1058 893 1007 893 z "},"f":{"ha":868,"x_min":-7,"x_max":847,"o":"m 406 772 q 463 954 424 786 q 621 1085 493 1085 q 691 1066 661 1085 q 743 1013 721 1047 q 746 985 746 994 q 742 971 746 974 q 719 974 738 967 q 699 978 701 981 q 685 969 692 974 q 668 960 671 960 q 692 835 675 896 q 738 732 708 775 q 813 650 793 675 q 846 507 846 608 q 825 425 846 467 q 732 304 799 372 q 726 222 732 272 q 714 67 714 111 q 734 33 714 50 q 776 15 754 15 q 805 19 786 15 q 832 22 824 24 l 847 4 q 831 6 844 1 q 815 10 817 11 q 749 -7 789 -7 q 714 -7 731 -7 q 689 -1 697 -3 q 651 -4 675 1 q 617 -8 628 -10 q 623 6 618 -1 q 625 15 628 14 l 660 35 q 649 53 653 35 q 632 96 638 94 q 606 85 626 97 q 563 58 585 72 q 556 101 560 85 q 540 108 553 117 q 518 51 526 100 q 515 28 517 43 q 521 9 517 26 q 531 -7 525 -8 q 547 0 540 -3 q 560 0 554 3 q 574 3 563 8 q 582 -7 578 -1 q 474 -57 574 -8 q 406 -75 436 -75 q 411 -67 410 -72 q 418 -60 413 -62 q 453 -43 442 -49 q 478 -22 474 -33 l 474 7 q 453 -6 464 1 q 424 -37 442 -14 q 413 -39 421 -40 q 399 -36 406 -37 q 387 -76 392 -36 q 373 -127 382 -115 q 322 -150 364 -139 q 266 -167 281 -161 q 236 -189 251 -174 q 214 -214 226 -199 q 175 -243 185 -244 q 92 -226 133 -235 q 32 -189 35 -210 q 6 -147 29 -168 q -7 -131 -7 -136 q 8 -101 -7 -125 q 54 -12 46 -46 q 58 21 58 4 q 53 67 58 33 q 49 114 49 100 q 56 176 49 156 q 88 294 72 228 l 36 263 q 88 432 50 360 q 174 547 119 493 q 275 682 224 614 q 336 725 296 701 q 406 772 382 753 z "},"g":{"ha":1117,"x_min":21,"x_max":1099,"o":"m 772 818 q 778 860 776 832 q 779 892 779 888 q 778 925 779 908 q 778 958 778 942 q 793 1061 778 1029 q 875 1107 815 1107 q 918 1090 893 1107 l 938 1075 q 983 1040 981 1042 q 1099 982 1040 1000 q 1028 988 1060 982 q 946 1001 947 1001 q 851 968 874 1001 q 842 926 842 953 q 843 892 842 904 q 850 828 850 831 q 843 717 850 750 q 794 640 832 661 q 753 626 788 636 q 704 608 718 617 q 600 521 701 607 q 527 478 561 488 q 482 428 493 468 q 476 358 476 407 q 483 290 476 335 q 496 197 489 246 q 499 86 496 119 q 517 25 503 53 q 538 26 522 15 q 558 35 554 36 q 554 26 556 31 q 531 3 531 4 q 546 -17 531 -3 q 557 -35 561 -31 q 538 -28 551 -42 q 511 -8 519 -10 q 493 -22 497 -15 q 482 -29 488 -25 q 487 -8 479 -18 q 494 8 494 1 q 489 24 490 17 q 478 64 482 46 q 472 117 474 82 q 471 172 471 151 l 471 208 q 464 222 469 215 q 457 233 458 229 q 460 267 461 258 l 422 451 q 417 457 421 456 q 407 460 413 458 q 336 442 358 449 q 278 394 267 418 q 279 347 278 371 q 301 296 290 321 q 361 211 331 253 q 429 82 400 142 q 456 26 440 60 q 467 19 464 21 q 478 6 479 11 q 461 6 469 4 q 437 5 442 11 q 430 -25 432 -1 q 422 -49 428 -49 q 415 -28 417 -49 q 411 -7 414 -8 q 390 -21 410 -6 q 381 -24 385 -22 q 399 3 376 -11 q 419 31 422 18 q 304 250 404 103 q 226 401 249 332 q 239 411 235 408 q 264 428 256 424 q 226 440 244 438 q 194 443 208 442 l 163 456 q 122 425 136 436 q 56 367 74 386 q 27 422 33 403 q 21 457 21 440 q 22 483 22 474 q 36 601 22 564 q 117 674 57 658 q 183 708 147 682 q 294 788 286 783 q 441 844 374 825 q 556 864 508 864 q 569 863 565 863 q 647 820 601 858 q 713 782 692 782 q 730 788 724 782 q 743 800 736 793 q 762 807 754 804 q 772 818 769 810 z "},"h":{"ha":1465,"x_min":49,"x_max":1425,"o":"m 1242 767 q 1258 756 1246 767 q 1274 743 1271 744 q 1311 722 1301 728 q 1351 689 1333 708 q 1397 628 1376 664 q 1424 582 1418 592 q 1424 569 1424 576 q 1425 551 1424 563 q 1424 528 1425 542 q 1419 501 1424 515 q 1406 468 1415 486 q 1399 458 1404 465 q 1344 488 1361 467 q 1313 529 1326 510 q 1242 567 1296 546 q 1164 488 1193 522 q 1143 461 1154 476 q 1145 415 1143 444 q 1147 385 1147 386 q 1142 344 1147 363 q 1114 303 1136 325 q 1092 265 1092 281 q 1140 201 1092 246 q 1163 167 1163 182 q 1156 118 1163 151 q 1139 10 1139 38 q 1146 -33 1139 -10 q 1151 -60 1153 -57 l 1093 -39 q 1099 -32 1097 -35 q 1106 -11 1106 -21 l 1106 43 q 1109 90 1106 58 q 1113 126 1113 121 q 1109 152 1113 142 q 1095 169 1106 163 q 1079 179 1085 176 q 1039 200 1063 190 q 1029 204 1036 201 q 1029 193 1029 200 q 1033 171 1029 186 q 1043 128 1036 156 q 1050 81 1050 100 l 1051 21 q 1056 12 1053 15 q 1060 7 1058 8 q 1060 -26 1061 -11 q 1017 -11 1029 -15 q 992 4 992 -1 q 1000 25 999 18 q 999 32 1001 29 q 996 36 997 35 l 1000 68 q 994 138 1000 110 q 972 194 989 165 q 932 236 956 224 q 908 244 924 242 q 878 247 892 247 q 825 245 858 247 q 790 243 792 243 q 772 243 781 243 q 753 246 758 246 q 600 288 676 267 q 581 283 594 288 q 556 270 568 279 q 531 246 544 261 q 504 217 506 218 q 457 176 481 196 q 449 158 449 167 q 450 146 450 149 q 456 115 450 132 q 465 86 463 99 q 472 52 467 74 q 492 11 476 31 q 503 6 494 8 q 515 1 511 4 q 526 -18 522 -14 l 493 -18 q 456 -10 469 -18 q 444 11 449 6 q 423 52 432 26 q 408 96 414 78 l 396 135 q 374 169 390 146 q 350 206 358 192 q 317 194 332 200 q 286 176 303 189 q 267 149 275 168 q 253 117 258 131 q 244 95 247 103 q 237 82 242 88 q 219 68 232 76 q 194 49 206 60 q 181 21 186 26 q 161 11 165 6 q 148 44 150 31 q 146 61 146 58 q 161 81 150 72 q 201 108 181 94 q 206 115 204 110 q 208 124 207 119 q 251 200 229 161 q 288 224 258 207 q 323 252 317 240 q 329 269 329 264 q 321 297 329 276 q 313 333 317 315 q 303 354 306 346 q 290 388 294 372 q 283 418 286 404 q 274 442 281 432 q 238 418 256 431 q 211 392 219 406 q 172 301 192 346 q 126 261 154 276 q 49 232 97 246 q 69 297 49 263 q 108 372 100 349 q 122 390 113 382 q 161 413 149 406 q 232 458 196 435 q 253 468 246 465 q 274 483 267 475 q 460 551 335 551 q 613 524 500 551 q 707 510 668 510 q 932 557 822 510 q 1022 610 969 574 q 1069 642 1065 639 q 1158 679 1107 663 q 1203 692 1175 685 q 1188 718 1203 704 q 1172 744 1172 732 q 1200 744 1186 744 q 1235 733 1217 739 q 1238 744 1239 733 q 1242 767 1239 756 z "},"i":{"ha":950,"x_min":14,"x_max":936,"o":"m 528 1044 q 526 1069 526 1050 q 531 1109 526 1090 q 547 1139 536 1128 q 551 1136 549 1138 q 550 1114 550 1118 q 547 1074 551 1106 q 543 1036 543 1043 q 548 1027 543 1029 q 554 1033 553 1025 q 565 1087 558 1058 q 578 1115 571 1115 q 576 1081 576 1097 q 575 1038 572 1043 q 589 1053 582 1044 q 614 1075 603 1075 q 608 1052 611 1063 q 599 1029 606 1042 q 574 1008 581 1018 q 563 982 567 999 q 558 956 558 965 q 581 916 558 940 q 640 871 604 892 q 653 905 644 879 q 664 946 661 931 q 669 981 667 961 q 674 1001 671 1001 q 679 988 678 996 q 681 967 681 981 q 682 943 682 954 q 676 915 682 932 q 664 872 664 878 q 675 861 669 867 q 679 847 676 851 q 774 806 703 813 q 767 853 774 814 q 758 907 760 892 q 756 928 756 922 q 761 944 756 939 q 769 940 765 942 q 772 901 772 908 q 775 868 772 882 q 785 817 785 819 l 819 844 l 832 914 q 838 900 835 907 q 840 883 840 893 q 838 852 840 865 q 833 831 835 839 q 828 815 831 822 q 828 807 826 808 q 852 810 832 797 q 877 830 872 822 q 882 854 882 838 q 881 889 882 871 q 882 908 881 907 q 894 890 888 899 q 908 874 901 882 q 894 961 908 933 q 825 1017 876 999 q 808 1039 817 1019 q 806 1050 807 1042 q 853 1022 833 1032 q 885 1018 872 1011 l 885 1057 q 878 1094 885 1068 q 872 1125 872 1121 q 885 1104 881 1113 q 901 1056 899 1078 q 905 1020 904 1035 q 906 997 906 1006 q 914 1042 913 997 q 919 1089 915 1088 q 927 1074 924 1082 q 929 1057 931 1067 q 924 1024 928 1049 q 921 975 921 999 q 922 961 922 965 q 928 928 925 940 q 936 900 931 915 q 935 872 936 882 q 925 843 933 861 q 885 769 904 806 q 882 754 883 761 q 861 738 871 746 q 879 719 861 731 q 899 706 897 707 q 894 693 900 703 l 892 676 q 885 662 892 668 q 865 649 879 656 q 850 633 851 642 q 847 579 849 625 q 842 513 846 533 q 827 469 839 493 q 801 429 815 446 q 760 392 783 407 q 715 363 736 376 q 691 353 708 358 q 667 342 674 349 q 661 319 661 335 q 664 288 664 296 q 672 256 664 272 q 692 203 692 217 q 674 180 692 192 q 651 160 656 168 q 647 126 647 151 l 647 101 q 660 37 647 68 q 696 -25 672 6 q 678 -32 689 -32 q 649 -22 664 -32 q 622 0 642 -18 q 619 15 617 6 q 622 33 621 25 l 610 110 q 569 88 608 110 q 519 68 550 76 q 500 74 519 71 q 483 81 492 76 q 531 126 497 108 q 586 153 558 139 q 606 193 606 165 q 554 319 606 282 q 531 328 547 325 q 503 331 515 331 l 474 331 q 447 333 461 331 q 403 336 432 336 q 375 335 386 336 q 336 331 364 335 q 324 334 331 329 q 308 344 317 339 q 297 338 304 344 q 236 254 260 294 q 208 171 208 206 q 219 140 208 156 q 238 115 238 117 q 253 57 244 86 q 271 35 257 50 q 318 -18 306 -1 q 313 -25 314 -24 q 300 -32 306 -33 q 277 -23 290 -32 q 254 -7 264 -14 q 242 -4 250 -6 q 232 0 233 -3 q 231 14 232 8 q 228 24 231 19 q 175 114 201 57 q 142 193 158 153 q 106 153 114 176 q 76 65 83 89 q 64 -17 64 19 q 64 -40 64 -29 q 65 -60 64 -50 q 61 -72 65 -72 q 47 -61 57 -72 q 22 -44 29 -49 q 14 -29 14 -39 q 40 134 21 51 q 83 260 58 217 q 111 285 93 276 q 146 310 147 301 q 132 371 142 342 q 100 469 103 458 q 94 493 97 479 q 92 511 92 507 q 178 607 92 582 q 368 625 239 625 q 497 631 418 625 q 593 636 576 636 l 624 636 q 651 638 640 636 q 674 647 661 640 q 700 675 688 654 q 718 717 707 689 q 726 738 722 726 q 717 749 726 746 q 704 757 707 753 q 698 785 700 774 q 686 804 696 796 q 672 818 685 806 q 653 833 658 831 q 594 867 624 850 q 544 922 561 889 q 531 980 533 943 q 528 1044 529 1017 z "},"j":{"ha":1333,"x_min":14,"x_max":1319,"o":"m 901 1065 q 958 1092 925 1083 q 1031 1101 990 1101 q 1117 1079 1081 1101 q 1199 949 1175 1043 q 1211 931 1200 942 q 1226 912 1222 919 q 1235 881 1229 904 q 1241 855 1240 858 q 1246 850 1242 851 q 1254 849 1250 849 q 1269 823 1261 836 q 1285 801 1278 810 q 1309 762 1301 781 q 1319 728 1317 743 q 1318 717 1319 724 q 1309 693 1311 699 q 1293 683 1307 688 q 1276 675 1279 679 l 1275 665 q 1269 663 1272 664 q 1258 665 1260 664 q 1251 674 1257 667 q 1236 681 1244 682 q 1224 685 1228 681 q 1218 675 1219 679 q 1204 646 1208 657 q 1189 567 1194 596 q 1171 511 1183 538 q 1104 414 1149 463 q 1015 333 1074 381 q 1094 258 1029 310 q 1176 168 1160 207 q 1181 142 1181 158 l 1181 118 q 1143 128 1163 122 q 1111 143 1124 133 q 1107 157 1108 153 q 1095 177 1101 171 q 1072 192 1089 183 q 1051 204 1056 200 q 1018 235 1036 219 q 986 258 1000 250 q 999 243 994 249 q 1017 216 1010 228 q 1054 174 1024 204 q 1076 132 1076 151 q 1060 92 1076 117 q 982 158 1025 104 q 933 215 951 197 q 865 251 914 232 q 799 292 815 271 q 790 309 793 299 q 784 333 788 319 q 765 346 781 346 q 717 332 757 346 q 686 325 697 325 q 585 342 631 325 q 469 378 486 378 q 431 366 463 378 q 374 342 400 354 q 411 299 399 313 q 435 249 435 271 q 432 208 435 225 q 418 174 429 192 q 394 182 407 175 q 364 207 381 189 q 356 231 357 214 q 350 261 354 247 q 335 294 346 275 q 313 329 325 314 q 297 333 308 333 l 271 333 q 255 337 265 333 q 243 336 244 340 q 269 249 243 304 q 294 174 294 193 q 278 132 294 154 q 236 101 261 110 l 210 185 q 218 193 208 190 q 226 201 228 196 q 185 304 219 221 q 153 403 157 371 q 157 414 154 408 q 167 419 160 419 q 192 417 172 419 q 222 414 211 414 q 251 422 243 414 q 242 446 256 426 q 229 472 228 465 q 242 474 231 475 q 253 478 253 474 q 254 488 254 483 q 254 494 254 493 q 251 517 254 508 q 232 550 249 525 q 221 574 224 567 q 206 589 214 588 q 176 581 192 592 q 140 559 153 563 q 122 554 126 556 q 104 554 110 554 q 72 559 86 554 q 43 576 57 564 q 21 596 22 594 q 15 614 14 604 q 47 635 24 635 q 71 631 57 635 q 114 628 85 628 q 147 630 138 628 q 167 640 157 632 q 254 704 231 689 q 418 768 332 757 q 454 771 443 771 q 606 738 493 771 q 700 721 661 721 l 719 721 q 732 722 728 722 q 782 736 757 729 q 801 738 794 738 q 857 734 822 738 q 897 731 892 731 q 932 735 922 731 q 948 744 942 739 q 963 762 954 750 q 972 778 971 774 q 1010 863 979 822 q 1094 940 1042 903 q 1088 961 1090 949 q 1081 981 1086 974 q 1040 1017 1064 1003 q 989 1036 1015 1032 q 926 1008 964 1039 q 864 940 894 982 l 900 1022 l 840 953 q 867 1024 853 1000 q 901 1065 882 1049 z "},"k":{"ha":758,"x_min":43,"x_max":710,"o":"m 199 865 q 248 906 219 890 q 299 922 276 922 q 351 906 317 922 q 399 868 385 889 q 415 861 404 861 q 467 867 440 864 q 514 855 483 867 q 560 843 544 843 q 592 849 568 843 q 622 851 615 854 q 664 790 658 839 q 668 743 665 767 q 647 684 672 719 q 588 640 622 649 q 564 601 574 638 q 551 560 554 564 q 514 529 540 542 q 475 513 494 521 q 529 453 490 482 q 596 424 568 424 q 619 435 601 424 q 653 446 638 446 q 688 423 668 446 q 710 376 708 400 q 644 326 710 338 q 589 317 614 321 q 518 294 564 313 q 481 282 492 283 q 485 224 481 261 q 490 178 490 188 q 483 142 490 163 q 476 117 476 121 q 497 78 476 97 q 538 40 517 60 q 500 6 531 17 q 436 -4 469 -4 q 417 10 422 -4 q 413 38 413 25 q 407 46 410 38 q 357 28 381 42 q 283 -14 290 -12 q 278 -26 281 -19 q 296 -34 281 -28 q 319 -46 311 -40 q 344 -68 335 -58 q 353 -90 353 -78 q 342 -114 353 -103 q 318 -131 336 -121 q 313 -135 315 -132 q 306 -139 310 -139 q 284 -129 296 -139 q 266 -115 272 -119 q 239 -99 260 -110 q 210 -79 218 -89 q 154 -18 182 -50 q 113 39 126 14 q 106 58 111 42 q 101 82 101 75 q 104 101 101 89 q 107 117 107 114 q 101 146 107 124 q 92 176 94 168 q 90 214 90 183 q 85 257 89 244 q 58 336 67 311 q 43 407 43 383 q 63 517 43 467 q 124 628 82 567 q 210 740 167 683 q 179 761 188 749 l 174 782 q 172 791 172 786 q 172 797 172 796 q 199 865 172 835 z "},"l":{"ha":1194,"x_min":11,"x_max":1193,"o":"m 997 1013 q 1122 944 1053 1013 q 1190 824 1190 875 q 1193 800 1193 813 q 1188 781 1193 788 q 1158 757 1175 757 q 1129 760 1144 757 q 1076 771 1099 767 l 1079 743 l 1081 721 l 1053 714 q 1036 721 1050 714 q 996 740 999 739 q 956 692 969 708 q 925 631 928 660 q 868 486 911 544 q 817 443 854 469 q 783 402 789 424 q 776 360 776 381 q 781 299 776 328 q 792 244 786 269 q 790 206 792 232 q 789 165 789 179 q 802 83 789 121 q 858 -6 815 44 q 828 -10 843 -10 q 801 -8 813 -10 q 779 -6 789 -7 q 763 -1 769 -4 q 749 8 753 6 q 718 110 724 28 q 640 428 704 322 q 619 444 631 444 q 601 441 615 444 q 579 436 588 438 q 417 422 497 429 q 363 428 394 418 q 294 449 331 438 q 191 322 250 449 q 132 142 132 194 q 142 84 132 108 q 199 -11 151 60 l 200 -22 q 152 -20 178 -21 q 107 -3 126 -19 q 72 44 88 14 q 57 111 57 75 q 83 328 57 211 q 115 464 99 396 q 94 469 110 464 q 71 474 79 474 q 30 499 49 474 q 11 567 11 524 q 32 674 11 619 q 97 771 53 728 q 179 820 129 803 q 281 838 229 838 q 346 831 311 838 q 461 807 403 818 q 483 806 468 806 q 533 811 500 806 q 586 817 567 817 q 672 807 604 817 q 728 801 711 801 q 858 907 765 801 q 997 1013 951 1013 z "},"m":{"ha":896,"x_min":65,"x_max":853,"o":"m 650 788 q 751 749 710 788 q 801 614 801 701 q 774 492 801 576 q 719 408 746 408 q 699 412 711 408 q 686 415 688 415 q 676 408 681 415 q 671 389 671 400 q 688 338 671 368 q 725 265 725 268 l 725 231 q 726 204 725 214 q 738 184 728 194 q 782 164 747 174 q 824 150 817 154 q 844 141 836 146 q 853 125 851 136 q 821 101 853 101 q 806 100 817 100 q 776 101 799 100 q 739 103 753 103 q 649 149 672 103 q 638 192 643 160 q 628 243 633 225 q 603 281 622 253 q 578 324 585 310 l 547 289 q 578 183 547 222 q 644 121 622 144 q 655 103 646 119 q 678 78 664 88 q 714 53 685 71 q 749 22 743 35 q 741 6 751 18 q 731 -10 731 -6 l 778 -57 q 743 -87 763 -75 q 703 -99 724 -99 q 684 -95 697 -99 q 653 -76 671 -92 q 624 -39 636 -60 q 582 35 586 29 q 546 72 564 60 q 484 101 528 85 q 413 119 440 117 q 396 118 401 121 q 386 110 390 115 q 479 61 414 88 q 529 29 529 42 q 552 -5 529 15 q 575 -39 575 -25 q 550 -67 575 -56 q 496 -78 525 -78 q 448 -55 476 -78 q 408 -29 419 -32 q 340 -17 363 -21 q 297 3 317 -12 q 283 47 286 14 q 276 89 281 81 q 250 110 268 104 q 207 115 232 115 q 167 78 190 115 q 144 14 144 42 q 219 -72 144 -18 q 389 -176 281 -117 q 486 -218 443 -206 q 558 -231 529 -231 q 588 -228 575 -231 q 601 -226 600 -225 q 601 -249 607 -235 q 578 -264 596 -264 q 551 -265 565 -264 q 531 -267 538 -267 q 455 -256 493 -267 q 364 -215 417 -244 q 164 -92 228 -143 q 65 53 65 -14 q 107 161 65 76 q 128 231 128 204 q 127 287 128 258 q 126 344 126 315 q 135 468 126 418 q 169 565 143 518 q 215 649 192 607 q 294 719 247 699 q 417 736 321 732 q 554 751 514 740 q 597 770 563 753 q 650 788 631 788 z "},"n":{"ha":1783,"x_min":21,"x_max":1772,"o":"m 744 928 q 476 847 610 888 q 271 738 367 806 q 218 620 235 713 q 184 505 201 528 q 104 467 167 482 q 28 429 42 451 q 21 404 21 415 q 27 385 21 396 q 57 375 33 375 q 131 401 89 375 q 208 481 172 428 q 244 572 233 515 q 257 654 254 633 q 251 621 251 642 q 273 508 251 585 q 290 415 294 431 q 236 338 289 408 q 215 285 215 310 q 222 201 215 272 q 225 147 225 174 l 225 104 q 230 40 225 65 q 251 -7 235 15 q 292 -26 265 -22 q 339 -33 319 -31 q 352 -24 339 -28 q 372 -21 365 -19 q 306 50 325 19 q 282 136 278 92 q 301 219 282 183 q 371 329 338 275 l 404 361 l 389 261 q 463 146 401 232 q 499 75 486 113 q 503 47 503 63 q 501 19 503 38 q 500 -7 500 0 q 535 -10 525 -10 q 574 -6 556 -10 q 631 14 592 -1 q 509 147 542 93 q 476 250 476 201 q 478 265 478 260 q 499 311 479 282 q 522 350 519 340 q 552 372 524 360 q 592 401 581 383 q 681 354 642 367 q 763 342 719 342 q 808 343 775 342 q 865 344 842 344 q 897 344 882 344 q 936 342 913 344 q 935 324 936 333 q 935 301 935 314 q 938 248 935 271 q 953 207 942 225 q 984 194 957 199 q 1014 178 1011 190 q 1017 140 1017 165 q 1014 97 1017 126 q 1011 57 1011 68 q 1028 17 1011 22 q 1058 3 1033 15 q 1096 -8 1082 -8 q 1156 5 1126 -8 q 1192 39 1185 18 q 1163 81 1197 56 q 1138 106 1142 96 q 1134 129 1135 115 q 1133 153 1133 143 q 1133 171 1133 164 q 1135 185 1133 178 q 1186 240 1149 226 q 1258 260 1235 251 q 1325 288 1281 268 q 1422 315 1394 318 q 1513 219 1463 315 q 1551 140 1532 179 l 1572 113 q 1594 210 1582 138 q 1617 303 1606 282 q 1665 333 1629 325 q 1710 350 1700 340 q 1753 429 1739 379 q 1767 512 1763 463 q 1772 608 1772 561 q 1751 746 1772 697 q 1654 814 1722 814 q 1638 811 1643 811 q 1619 819 1626 811 q 1613 847 1613 826 q 1613 857 1613 853 q 1614 863 1613 861 l 1571 833 l 1546 807 q 1504 872 1522 835 q 1457 956 1468 944 q 1399 985 1439 975 q 1299 1001 1360 996 q 1232 1001 1265 1001 q 1165 1003 1199 1001 q 926 982 1029 1003 q 744 928 843 965 z "},"o":{"ha":1313,"x_min":15,"x_max":1297,"o":"m 15 767 q 151 976 15 892 q 354 1044 261 1044 q 606 950 519 1044 q 688 706 688 861 q 675 640 688 692 q 663 576 663 589 q 665 567 663 568 q 676 572 668 565 q 812 612 708 601 q 915 628 915 622 q 913 653 917 638 q 910 676 910 669 q 915 717 910 696 q 943 790 921 739 q 957 847 953 828 q 986 900 967 883 q 1001 851 996 868 q 1046 771 1021 799 q 1088 747 1067 747 q 1104 756 1097 747 q 1140 822 1119 775 q 1176 894 1160 869 q 1172 864 1174 876 q 1167 790 1167 818 q 1169 738 1167 754 q 1179 694 1171 721 q 1218 656 1182 685 q 1244 565 1244 633 q 1203 485 1244 518 q 1171 483 1186 483 q 1172 472 1167 481 q 1174 461 1176 464 q 1111 438 1163 450 q 1086 432 1103 436 q 1103 425 1093 425 q 1124 428 1117 428 q 1153 425 1136 428 q 1175 424 1169 422 q 1201 434 1185 426 q 1222 442 1218 442 q 1239 443 1231 442 q 1244 446 1242 446 q 1272 447 1256 450 q 1272 440 1275 446 q 1263 429 1268 435 l 1285 432 q 1280 419 1286 429 q 1275 408 1274 410 q 1297 408 1286 408 q 1272 374 1289 386 q 1231 354 1254 361 q 1132 326 1181 340 q 1093 319 1121 321 q 1053 306 1065 318 q 1033 276 1042 294 q 1004 218 1011 226 q 979 201 997 210 q 924 171 935 181 q 920 160 919 168 q 921 149 921 153 q 912 126 919 138 q 894 103 904 114 q 851 68 883 92 q 883 14 871 39 q 894 -37 894 -11 l 881 -44 q 869 -28 875 -44 q 868 -19 869 -25 l 856 -49 q 843 -35 847 -39 q 825 -17 829 -19 q 820 -40 822 -25 q 814 -56 818 -56 q 797 -47 804 -56 q 786 -9 790 -39 q 776 30 782 21 q 756 39 771 39 q 731 37 742 39 q 703 28 721 35 q 690 -8 694 25 q 672 -36 685 -40 q 663 -11 663 -33 q 654 15 663 15 q 644 -4 644 15 q 644 -21 644 -14 q 644 -32 644 -28 q 631 -28 635 -35 q 625 -11 626 -22 q 622 6 624 0 q 618 -24 628 -4 q 611 -31 614 -26 q 591 0 599 -10 q 578 10 583 10 q 551 6 565 10 q 532 1 538 1 q 494 11 515 1 q 356 243 388 58 q 326 489 340 365 q 324 515 324 503 q 335 599 324 538 q 346 690 346 660 q 310 765 346 749 q 294 768 301 768 q 183 736 268 768 q 69 699 99 704 q 60 697 65 697 q 54 697 56 697 q 22 716 29 697 q 15 767 15 735 z "},"p":{"ha":514,"x_min":38,"x_max":486,"o":"m 251 722 q 285 714 263 722 q 335 708 306 708 q 369 710 354 708 q 397 714 385 711 l 397 701 q 365 683 367 685 q 344 663 349 674 q 326 640 331 649 q 322 618 322 631 q 324 604 324 610 q 340 561 326 579 q 401 485 371 522 l 439 426 q 476 348 467 383 q 486 247 486 313 q 484 232 486 238 q 482 222 482 226 q 478 191 482 207 q 465 176 475 175 q 451 181 451 176 q 456 202 451 189 q 461 222 461 215 q 461 242 463 231 q 457 265 460 253 q 444 297 454 278 q 426 329 433 317 q 414 315 419 322 q 421 203 421 246 q 419 167 421 186 q 415 135 417 147 q 401 102 413 124 q 378 74 389 81 q 371 54 368 67 q 383 38 371 36 q 415 34 394 40 q 438 19 435 28 q 435 0 443 1 q 423 6 429 4 q 411 4 417 7 q 402 -6 406 1 q 394 -21 399 -12 q 382 -18 389 -25 q 372 -10 375 -11 q 363 -7 369 -8 q 354 -8 357 -6 q 338 -24 346 -15 q 321 -12 319 -24 q 332 15 324 7 q 334 28 336 19 q 329 40 332 36 q 326 47 326 44 l 293 47 q 238 63 263 47 q 200 60 231 68 q 192 33 182 50 q 213 13 201 22 q 222 -4 218 8 q 208 -15 222 -15 q 189 -6 196 -6 q 178 -11 186 -6 q 157 -24 160 -24 q 142 -13 150 -24 q 131 -2 133 -3 q 117 -1 128 -1 q 106 -1 110 -1 q 99 -3 103 -1 q 94 11 94 7 q 101 22 94 18 q 128 33 119 31 q 144 46 143 40 q 144 61 144 56 q 138 79 143 67 q 112 135 124 104 q 101 186 100 167 q 117 254 101 206 q 131 303 128 292 q 133 312 131 304 q 135 324 136 319 q 133 331 135 328 q 129 339 132 335 q 119 331 122 333 q 103 313 110 321 l 86 292 q 72 265 79 278 q 55 241 58 244 q 38 232 51 238 l 43 265 l 49 285 q 65 345 61 336 q 86 392 68 354 q 119 447 97 417 q 148 488 135 468 q 171 533 161 508 q 183 568 181 557 q 185 592 185 579 q 183 619 185 600 q 182 647 182 638 q 187 678 182 665 q 204 701 192 690 q 225 715 211 707 q 251 722 239 722 z "},"q":{"ha":819,"x_min":47,"x_max":781,"o":"m 406 817 q 483 1010 458 954 q 628 1106 526 1106 q 672 1073 650 1106 q 715 1010 694 1040 q 743 985 725 997 q 781 960 761 972 q 707 938 744 938 q 688 939 694 938 l 647 949 q 622 955 638 953 q 597 957 606 957 q 574 960 583 960 q 561 960 565 961 q 538 919 544 949 q 532 854 532 889 q 595 714 532 815 q 658 542 658 613 q 599 369 658 460 q 501 250 576 335 q 493 218 493 236 q 494 197 494 204 q 497 158 494 174 q 507 128 499 142 q 540 96 515 114 q 610 46 608 47 q 538 29 564 33 q 483 25 513 25 q 450 30 464 28 q 431 32 436 32 q 415 26 421 28 q 368 14 392 18 q 311 6 344 10 q 283 -8 301 3 q 263 -18 264 -18 q 282 32 274 8 q 290 74 290 56 q 287 101 290 90 q 272 128 283 113 q 195 90 235 108 q 121 72 156 72 q 47 106 83 72 q 97 178 72 142 q 135 249 122 214 q 194 439 158 308 q 253 593 222 536 q 321 692 269 622 q 406 817 372 761 m 369 110 q 410 89 385 99 q 431 82 417 86 l 443 97 l 443 104 q 444 119 444 108 q 437 170 444 144 q 418 200 429 196 q 380 184 407 200 q 347 167 353 168 q 354 136 350 153 q 369 110 358 119 z "},"r":{"ha":1167,"x_min":28,"x_max":1146,"o":"m 753 943 q 836 874 792 938 q 906 774 871 824 q 922 737 918 761 q 932 714 926 713 q 1072 619 994 724 q 1146 451 1146 521 q 1084 367 1146 403 q 978 336 1022 331 q 933 214 978 276 q 831 122 888 151 q 824 110 824 118 q 835 82 824 97 q 853 60 840 69 q 899 28 875 43 q 915 4 910 18 q 918 -15 921 -10 q 901 -33 911 -28 q 875 -37 890 -37 q 849 -33 857 -35 q 805 -14 824 -28 q 774 26 786 0 q 758 53 763 53 q 749 47 751 49 q 718 31 722 32 l 682 54 q 654 82 672 61 q 646 92 651 85 l 588 72 q 571 69 578 69 q 561 69 564 69 q 541 69 551 69 q 506 57 531 68 q 535 32 506 51 q 559 13 551 21 q 567 -4 567 6 q 564 -15 567 -10 q 560 -24 561 -21 q 542 -42 553 -37 q 514 -47 531 -47 q 468 -44 483 -44 q 382 -25 458 -33 q 272 -1 306 -17 q 246 23 261 3 q 224 49 231 43 q 194 71 218 54 q 156 103 169 88 q 135 99 150 108 q 118 93 126 93 q 106 97 113 93 q 46 150 64 125 q 28 199 28 175 q 39 235 28 217 q 51 240 43 240 q 86 225 64 240 q 107 210 93 221 q 118 219 117 213 q 122 256 119 225 q 127 310 125 288 q 133 365 129 332 q 147 424 138 397 q 172 461 157 443 q 238 519 194 488 q 428 604 294 564 q 549 636 471 617 q 635 619 585 640 q 708 588 671 603 q 736 592 721 583 q 750 611 751 601 q 714 739 750 658 q 661 851 688 794 q 658 867 658 860 q 667 910 658 885 q 671 919 668 914 q 684 919 678 919 q 696 915 690 918 l 724 908 q 734 926 725 910 q 753 943 743 943 z "},"s":{"ha":658,"x_min":8,"x_max":658,"o":"m 372 1053 q 386 1061 379 1057 q 406 1045 396 1051 q 426 1036 415 1039 q 453 1036 439 1036 q 456 1050 454 1043 q 447 1092 440 1088 q 469 1076 447 1086 q 503 1063 490 1065 q 501 1046 510 1060 q 493 1026 493 1032 q 515 972 493 994 q 533 965 519 968 q 556 957 547 961 q 532 944 556 956 q 508 925 508 933 q 514 891 508 908 q 526 867 519 874 q 544 867 531 863 q 560 872 558 872 q 565 863 563 872 q 571 853 568 854 q 558 839 569 846 q 543 828 546 832 q 540 817 540 824 q 543 785 543 796 q 563 763 553 774 q 574 749 574 753 q 560 744 574 744 q 546 742 546 744 q 551 715 546 729 q 564 686 556 701 q 590 635 582 650 q 619 592 604 608 q 649 582 642 586 q 654 574 651 578 q 657 564 657 569 q 649 551 658 556 q 625 547 639 547 q 603 548 611 547 q 588 551 596 549 q 493 694 564 572 q 364 814 436 793 q 356 804 360 815 q 349 793 353 793 q 346 800 347 797 q 334 811 340 810 q 322 813 328 813 q 314 821 315 814 q 322 832 313 828 q 331 840 331 836 q 310 878 335 858 q 296 883 303 881 q 292 844 292 864 q 294 819 292 831 q 306 787 297 807 q 315 763 314 767 q 344 647 335 704 q 353 510 353 590 q 322 422 353 474 q 263 322 292 369 q 241 254 246 293 q 236 168 236 215 q 275 61 236 117 q 376 -3 319 -3 q 508 106 447 -3 q 563 286 563 203 q 553 348 563 313 q 526 414 543 383 q 543 408 536 413 q 556 392 550 404 q 581 341 572 360 q 597 306 590 322 q 594 301 599 303 q 590 297 590 300 q 604 279 590 292 q 597 274 601 276 q 592 268 592 271 q 611 253 592 261 q 604 247 610 250 q 599 235 599 243 q 603 218 599 229 q 599 212 604 215 q 593 207 593 208 q 615 190 593 200 q 611 186 613 188 q 588 171 588 179 q 596 157 588 165 q 590 147 599 153 q 582 139 582 142 q 603 124 582 131 q 583 117 596 121 q 568 108 571 113 q 576 97 567 106 q 582 85 585 88 q 570 78 579 82 q 561 69 561 74 q 565 56 561 64 q 557 46 569 49 q 544 39 544 43 q 563 18 544 29 q 571 14 565 17 q 530 1 550 8 q 503 -18 510 -7 q 511 -36 500 -22 q 518 -49 518 -46 q 497 -50 518 -50 q 471 -53 478 -50 q 463 -67 464 -57 q 463 -83 463 -78 q 457 -75 458 -78 q 443 -64 450 -67 q 424 -69 433 -61 q 428 -93 421 -74 q 436 -114 429 -100 q 422 -103 429 -114 q 407 -85 414 -93 q 389 -83 406 -83 q 383 -104 386 -94 q 376 -114 381 -114 q 371 -94 374 -114 q 364 -74 368 -74 q 338 -72 350 -72 q 331 -92 335 -75 q 319 -108 326 -108 q 314 -92 317 -108 q 307 -71 311 -75 q 290 -74 303 -68 q 274 -78 276 -79 q 285 -51 272 -76 q 290 -37 292 -39 q 273 -48 289 -36 q 256 -58 257 -60 q 254 -33 256 -46 q 242 -21 253 -21 q 228 -29 235 -21 q 225 -35 226 -31 q 215 -33 219 -33 q 213 -18 215 -19 q 194 -21 208 -15 q 182 -21 188 -21 q 186 -8 182 -12 q 203 15 201 7 q 200 35 204 21 q 175 33 197 39 q 164 32 169 32 q 167 65 167 54 q 163 82 167 78 q 144 80 160 85 q 125 75 128 75 q 124 94 121 88 q 143 113 133 103 q 136 140 139 126 q 119 154 128 147 l 126 160 q 119 193 126 186 q 106 193 117 196 q 90 192 94 190 q 87 197 86 193 q 88 206 88 201 q 106 220 90 214 q 115 235 122 226 q 91 247 113 239 q 69 265 69 256 q 97 269 82 267 q 113 276 111 272 q 93 288 103 283 q 86 297 83 293 q 110 310 97 303 q 89 324 107 318 q 71 333 71 329 q 90 338 71 336 q 108 343 99 340 q 92 361 106 349 q 78 378 78 374 q 96 379 86 378 q 114 381 113 378 q 117 407 117 400 q 107 419 117 417 q 90 421 97 421 q 66 408 69 421 q 56 365 63 394 q 40 336 50 336 q 29 363 29 349 q 35 388 35 378 q 30 406 35 396 q 14 432 25 417 q 8 485 8 440 q 13 555 8 525 q 40 588 18 585 q 74 615 63 590 q 78 639 76 622 q 61 644 76 644 q 39 650 40 644 q 72 695 58 678 q 82 717 86 713 q 72 722 79 719 q 68 732 64 725 q 83 760 79 749 q 85 789 88 772 q 76 799 83 799 q 50 807 58 799 q 57 826 51 824 q 89 846 71 836 q 100 850 92 847 q 96 864 100 857 q 92 879 92 871 q 102 887 92 882 q 114 893 113 892 q 131 926 138 917 q 117 927 129 928 q 93 926 104 926 q 82 927 86 926 q 79 931 78 928 q 119 965 90 954 q 168 981 143 972 q 165 990 167 985 q 142 1015 142 1013 q 172 1014 157 1014 q 211 1010 207 1006 q 210 1036 215 1014 q 207 1061 204 1058 q 242 1046 219 1069 q 271 1025 264 1022 q 265 1049 274 1026 q 260 1071 263 1060 q 268 1072 265 1071 q 272 1076 271 1074 q 288 1068 275 1076 q 300 1064 293 1065 q 306 1092 303 1078 q 321 1096 308 1096 q 331 1083 324 1096 q 349 1065 339 1071 q 372 1053 360 1060 z "},"t":{"ha":1889,"x_min":-4,"x_max":1875,"o":"m 993 986 q 1064 1005 1017 989 q 1143 1021 1111 1021 q 1236 993 1174 1021 q 1475 914 1386 926 q 1540 889 1497 911 q 1610 867 1582 867 q 1667 890 1632 867 q 1693 913 1685 906 q 1731 922 1710 926 q 1749 906 1739 921 q 1764 878 1751 901 q 1768 864 1768 871 q 1760 826 1768 853 q 1754 790 1751 799 q 1782 717 1757 775 q 1797 669 1792 694 q 1840 581 1801 643 q 1875 496 1875 524 q 1860 474 1867 481 q 1810 438 1839 449 q 1756 424 1772 428 q 1721 392 1726 414 q 1694 346 1715 369 q 1667 322 1674 322 q 1622 349 1646 322 q 1591 385 1599 376 q 1578 414 1583 394 q 1554 460 1568 449 q 1526 468 1546 465 q 1488 471 1506 471 l 1440 471 l 1454 444 q 1510 424 1501 428 q 1544 364 1544 406 q 1519 287 1544 328 q 1456 226 1494 246 q 1376 194 1418 206 q 1296 175 1333 183 q 1281 176 1290 174 q 1253 186 1254 186 q 1244 194 1253 189 q 1235 204 1235 200 q 1299 292 1235 256 q 1383 347 1354 322 q 1303 372 1351 353 q 1240 390 1256 390 q 1219 385 1226 390 q 1171 354 1178 358 q 1110 340 1143 340 l 1110 263 q 1117 142 1110 192 q 1144 53 1124 93 q 1208 -4 1160 24 q 1265 -35 1221 -11 l 1271 -81 q 1207 -112 1228 -103 q 1138 -132 1167 -132 q 1088 -111 1113 -132 q 1047 -68 1075 -101 q 951 151 983 -3 q 928 374 928 264 q 844 444 928 421 q 682 489 760 467 l 675 471 q 663 368 675 428 q 635 197 635 235 q 645 133 635 160 q 681 97 656 107 q 763 81 735 89 q 815 15 815 64 q 786 3 815 8 q 741 -6 757 -3 q 704 -16 725 -10 q 674 -22 683 -22 q 651 -17 665 -22 q 620 3 636 -12 q 599 24 604 19 q 542 88 569 44 q 493 176 524 117 q 482 207 485 192 q 479 239 479 222 q 493 322 479 264 q 501 371 501 357 q 490 426 501 397 q 468 483 479 456 l 456 458 q 368 358 436 432 q 314 300 318 304 q 314 279 310 296 q 325 187 310 261 q 340 82 340 113 q 317 22 340 28 q 283 17 294 17 q 225 76 243 17 q 206 150 215 113 q 89 90 178 143 q 35 68 51 68 q 18 72 26 68 q -4 96 -4 86 q 10 125 -4 104 q 32 142 14 131 q 108 193 86 175 q 160 251 138 218 q 182 296 183 285 q 174 360 174 333 q 200 440 174 401 q 226 511 226 479 q 225 594 226 539 q 224 675 224 649 q 271 921 224 850 q 532 1021 338 1021 q 610 1006 554 1021 q 686 990 665 990 q 819 987 736 990 q 918 983 903 983 l 947 983 q 969 983 958 983 q 993 986 986 986 z "},"u":{"ha":1606,"x_min":32,"x_max":1588,"o":"m 768 661 q 856 665 785 663 q 963 679 928 668 q 1063 731 1025 715 q 1158 747 1101 747 q 1228 743 1197 747 q 1279 721 1258 739 q 1308 696 1306 697 q 1315 708 1313 706 q 1322 711 1318 711 q 1328 711 1326 711 q 1338 700 1331 711 q 1344 688 1339 697 q 1358 713 1353 706 q 1367 721 1363 721 q 1383 713 1372 721 q 1403 697 1393 706 q 1417 665 1414 689 q 1415 640 1415 649 q 1418 604 1415 614 q 1436 577 1421 594 q 1457 550 1451 560 q 1457 531 1458 544 q 1457 510 1456 518 q 1486 456 1464 482 q 1524 418 1500 439 q 1534 441 1526 421 q 1551 474 1542 461 q 1571 475 1560 486 q 1581 456 1578 468 q 1585 435 1583 443 q 1588 404 1588 428 q 1579 347 1588 376 q 1561 315 1569 331 q 1565 277 1558 300 q 1571 236 1571 254 q 1568 208 1571 222 q 1550 186 1565 193 q 1542 181 1546 182 q 1536 179 1538 179 q 1490 223 1521 204 q 1428 251 1458 242 q 1450 217 1442 228 q 1493 174 1476 179 q 1471 167 1483 167 q 1446 174 1456 167 q 1331 261 1358 239 q 1263 331 1282 301 q 1246 328 1260 335 q 1215 315 1232 322 q 1215 323 1214 318 q 1214 332 1215 328 q 1201 357 1207 344 q 1176 375 1186 365 q 1160 403 1165 385 l 1110 261 q 1113 242 1106 258 q 1113 229 1113 235 q 1083 164 1104 207 q 1058 82 1058 113 q 1063 65 1060 68 q 1094 38 1065 61 q 1114 4 1114 22 q 1100 0 1114 0 q 1056 3 1089 0 q 1013 6 1022 6 q 1000 3 1003 6 q 1003 -21 999 -4 q 1007 -39 1007 -37 q 1001 -49 1007 -47 q 978 -49 996 -51 q 957 -46 961 -46 q 935 -51 951 -46 q 908 -57 918 -57 q 893 -54 897 -57 q 876 -22 878 -44 q 874 21 875 0 q 839 125 861 65 q 817 183 832 146 q 754 153 772 157 q 715 150 736 150 q 677 153 690 150 q 628 167 664 156 q 618 169 621 169 q 615 160 615 168 q 618 132 618 140 q 617 115 617 121 q 617 90 617 101 q 624 60 618 78 q 658 24 625 53 q 663 4 669 14 q 648 -6 660 0 q 617 -17 636 -12 q 581 -22 597 -22 q 546 -7 546 -22 l 546 15 q 544 38 546 32 q 533 57 543 44 q 519 72 529 64 q 499 89 508 81 q 488 144 488 108 q 489 160 488 156 q 472 176 490 168 q 463 179 469 178 q 458 103 463 125 q 446 53 451 78 q 447 31 446 39 q 463 4 449 22 q 476 -22 476 -14 q 467 -35 476 -29 q 444 -50 457 -42 q 421 -54 440 -53 q 361 -25 400 -54 q 343 -10 356 -21 q 348 8 343 1 q 354 24 353 14 l 354 49 q 347 90 354 72 q 340 126 340 108 q 341 141 340 135 q 346 164 342 147 q 333 176 347 172 q 319 188 319 179 q 290 299 319 207 q 275 385 275 347 q 249 371 258 376 q 204 328 218 351 q 194 322 203 326 q 186 313 185 317 q 160 276 193 306 q 96 246 126 246 q 81 247 83 246 q 64 261 72 256 q 36 293 50 271 q 32 306 32 297 q 50 339 32 325 q 88 331 56 343 q 125 321 121 318 q 183 360 133 328 q 285 444 253 404 q 407 583 372 550 q 546 663 475 647 q 577 668 561 667 q 615 669 593 669 q 693 665 642 669 q 768 661 744 661 z "},"v":{"ha":1658,"x_min":28,"x_max":1618,"o":"m 28 593 q 144 889 28 757 q 460 1033 272 1033 q 667 1011 518 1033 q 881 989 815 989 q 1039 963 946 989 q 1193 908 1104 944 q 1281 833 1226 896 q 1371 725 1325 779 q 1390 710 1375 719 q 1408 697 1404 701 q 1423 682 1418 688 q 1438 679 1428 676 q 1439 683 1439 682 q 1451 703 1444 696 q 1455 706 1453 704 q 1458 708 1457 707 l 1465 704 q 1469 690 1469 701 q 1469 679 1469 683 q 1466 665 1468 675 q 1463 653 1464 656 q 1449 606 1446 622 q 1475 556 1453 589 q 1500 507 1497 524 q 1500 483 1501 496 q 1499 467 1499 469 l 1485 432 q 1529 350 1485 406 q 1575 299 1543 332 q 1613 242 1603 286 q 1618 165 1618 215 q 1612 133 1618 146 q 1593 108 1606 121 q 1542 84 1575 90 q 1465 78 1510 78 l 1429 78 q 1406 83 1419 79 q 1385 90 1393 88 q 1338 114 1351 96 q 1265 174 1315 146 q 1242 204 1257 178 q 1211 239 1226 231 q 1196 242 1203 242 q 1165 238 1188 242 q 1132 233 1143 233 q 1104 239 1122 233 q 1076 244 1086 244 q 1072 217 1074 235 q 1071 182 1071 199 q 1072 157 1071 165 q 1085 140 1074 149 q 1107 125 1096 132 q 1123 110 1114 118 q 1133 93 1132 101 q 1131 77 1136 86 q 1122 64 1125 68 q 1103 42 1110 46 q 1065 38 1096 38 l 1033 36 q 969 46 1003 40 q 911 68 936 51 q 883 147 899 76 q 854 236 868 218 q 831 232 847 246 q 803 211 808 213 q 790 167 793 181 q 783 133 783 142 q 783 110 783 121 q 797 82 786 96 q 838 36 825 51 q 863 -10 863 7 q 856 -29 863 -19 q 816 -58 839 -50 q 758 -65 793 -65 q 695 -62 715 -65 q 658 -44 675 -60 q 638 -22 647 -35 q 621 6 624 -4 q 614 45 618 17 q 599 78 610 74 q 562 86 588 83 q 529 94 536 89 q 513 121 522 99 q 486 179 492 168 q 408 210 481 181 q 353 226 375 224 q 351 214 356 222 q 349 203 347 206 q 394 143 381 163 q 419 79 419 107 q 417 60 419 74 q 390 30 410 39 q 342 21 369 21 q 309 22 324 21 q 282 25 294 24 q 247 39 263 25 q 215 88 231 53 q 169 189 172 182 q 144 274 154 228 q 129 347 135 319 q 99 422 118 397 q 44 516 61 471 q 28 593 28 561 z "},"w":{"ha":1701,"x_min":54,"x_max":1625,"o":"m 742 858 l 746 875 q 872 785 797 847 q 969 729 929 738 q 1179 691 1081 706 q 1321 667 1278 676 q 1414 633 1364 657 q 1514 581 1464 607 q 1615 542 1575 549 l 1625 525 l 1581 519 q 1442 501 1518 519 q 1286 461 1367 482 q 1236 457 1276 458 q 1186 450 1196 456 q 1108 346 1161 394 q 989 282 1049 290 l 1046 425 q 710 447 886 425 q 472 481 581 464 q 274 513 363 497 q 253 511 260 513 l 215 488 q 119 442 167 464 q 54 422 92 431 q 125 515 125 467 q 63 611 125 560 q 94 609 76 611 q 132 603 113 607 l 193 583 q 218 575 215 574 q 439 628 388 615 q 636 683 571 661 q 764 742 724 713 q 767 761 767 753 q 760 800 767 779 q 742 858 754 821 z "},"x":{"ha":1104,"x_min":11,"x_max":1101,"o":"m 342 1015 q 379 1031 354 1010 q 453 1083 442 1083 q 470 1074 463 1083 q 489 1023 478 1064 q 511 972 500 982 q 551 924 532 956 q 586 850 571 892 q 599 826 592 838 q 606 803 606 814 q 592 781 606 790 q 546 742 550 750 q 542 715 542 733 q 554 692 542 694 q 700 649 639 692 q 771 513 771 599 l 771 496 q 742 451 768 474 q 685 429 717 429 q 668 431 674 429 l 679 418 l 932 303 q 991 328 949 307 q 1051 350 1033 350 q 1084 338 1067 350 q 1094 315 1101 326 q 1026 174 1043 201 q 915 103 985 103 q 822 133 876 107 q 754 160 768 160 q 713 140 740 160 q 675 103 685 119 l 672 68 q 737 76 696 65 q 792 86 778 86 q 838 63 821 86 q 844 35 844 51 q 838 -1 844 18 q 824 -37 831 -19 q 742 -104 808 -85 q 607 -118 692 -118 q 569 -117 588 -118 q 533 -117 551 -117 q 136 26 251 -92 q 21 415 21 144 q 16 481 21 431 q 11 557 11 532 q 13 586 11 576 q 85 786 21 683 q 163 915 161 910 q 165 932 165 921 q 165 959 165 944 q 164 990 164 974 q 165 1021 164 1010 q 186 1047 165 1032 q 225 1063 207 1063 q 235 1061 231 1063 q 240 1057 239 1057 q 278 1038 253 1046 q 342 1015 328 1021 z "},"y":{"ha":857,"x_min":92,"x_max":785,"o":"m 350 932 q 414 1032 369 1000 q 522 1064 458 1064 q 615 1048 569 1064 q 700 997 660 1032 q 746 942 726 972 q 785 868 758 922 q 635 835 710 851 q 681 750 638 819 q 719 625 719 688 q 681 444 719 547 q 571 250 638 331 q 544 219 567 244 q 521 192 528 200 q 514 174 514 183 q 518 144 515 158 q 544 19 518 75 q 574 6 547 11 q 631 -6 600 0 q 624 -17 628 -11 q 618 -31 621 -24 q 588 -32 608 -32 q 531 -27 564 -32 q 488 -22 497 -22 q 481 -6 488 -15 q 478 8 474 4 q 492 10 482 11 q 510 7 501 8 l 490 79 l 465 167 q 392 135 417 147 q 340 106 367 124 q 372 19 356 63 q 386 13 376 13 q 407 17 393 13 q 426 21 421 21 q 425 2 426 13 q 428 -10 424 -8 q 365 -32 393 -24 q 310 -40 336 -40 q 271 -33 286 -36 l 289 -11 q 314 -14 307 -14 q 331 -10 324 -14 q 317 42 331 8 q 303 90 303 75 q 240 67 269 83 q 165 21 203 43 q 122 22 132 21 q 92 31 104 28 q 106 64 100 51 q 140 142 131 117 q 146 155 144 149 q 143 167 147 161 q 124 177 140 169 q 107 192 107 185 q 124 205 107 197 q 142 215 142 213 l 142 279 q 140 313 142 303 q 139 344 139 324 q 176 499 139 417 q 268 644 210 574 q 346 733 307 689 q 363 792 363 758 q 355 846 363 799 q 347 908 347 893 q 350 932 347 918 z "},"z":{"ha":1792,"x_min":-6,"x_max":1779,"o":"m 1779 1086 l 1779 1050 q 1703 969 1753 992 q 1664 919 1664 951 q 1679 851 1664 889 q 1685 824 1686 833 q 1660 635 1676 786 q 1583 483 1644 483 q 1521 544 1543 483 q 1431 694 1488 636 q 1368 624 1397 661 q 1279 511 1288 519 q 1242 494 1271 503 q 1204 469 1214 485 q 1172 408 1183 439 q 1154 338 1161 376 q 1133 232 1139 269 q 1126 163 1126 194 q 1147 82 1126 121 q 1200 -25 1199 -15 q 1159 -24 1186 -28 q 1125 -22 1132 -19 q 1102 -53 1107 -32 q 1090 -75 1097 -75 q 1025 0 1058 -75 q 997 85 997 63 q 1014 292 997 193 q 1047 490 1031 392 q 909 492 976 490 q 750 499 842 494 q 618 532 678 499 q 510 607 564 569 q 404 457 464 607 q 350 258 350 319 q 382 103 350 182 q 446 -50 414 24 q 371 -18 422 -42 q 310 4 331 0 q 272 12 289 8 q 250 25 254 15 q 254 34 253 29 q 256 49 256 39 q 250 78 256 63 q 208 181 218 153 q 185 294 185 246 q 213 453 185 397 q 242 535 242 508 q 224 642 242 586 q 185 738 207 697 q 132 568 167 711 q 25 344 97 425 q 8 340 14 340 q -6 340 1 339 l -6 428 q 26 517 4 479 q 103 665 89 621 q 255 965 176 901 q 465 1028 333 1028 q 617 1013 528 1028 q 758 997 706 997 q 824 994 794 997 q 894 989 853 992 q 1014 1000 928 989 q 1075 1006 1057 1006 q 1096 1004 1089 1004 q 1174 1003 1142 1004 q 1238 1000 1207 1001 q 1289 1006 1271 1000 q 1254 1040 1272 1015 q 1239 1065 1249 1049 q 1272 1056 1260 1058 q 1353 1036 1314 1044 q 1376 1035 1360 1035 q 1433 1041 1386 1035 q 1492 1046 1479 1047 q 1575 1032 1531 1042 q 1621 1021 1592 1029 q 1671 1039 1643 1021 q 1779 1086 1738 1082 z "},"{":{"ha":1826,"x_min":17,"x_max":1803,"o":"m 82 818 q 141 831 106 822 q 194 839 176 839 q 350 788 283 839 q 454 644 417 738 q 544 584 463 624 q 644 526 626 544 q 780 418 713 456 q 957 356 847 381 q 1282 296 1119 325 q 1364 264 1317 286 q 1513 196 1438 229 q 1575 163 1543 179 q 1696 131 1646 147 q 1803 92 1761 106 q 1653 104 1768 92 q 1551 111 1589 111 q 1515 110 1533 111 q 1481 103 1496 110 q 1471 85 1475 93 l 1292 28 q 1235 3 1267 19 q 1192 -14 1203 -14 q 1181 -18 1183 -18 q 1179 -14 1178 -18 q 1192 -5 1181 -12 q 1206 6 1203 3 q 1204 15 1208 8 l 1163 -12 q 1153 -10 1157 -11 q 1157 -3 1153 -7 q 1165 6 1161 0 q 1147 -3 1163 7 q 1132 -12 1143 -6 l 1119 -8 q 1132 4 1125 -1 q 1144 18 1138 11 l 1097 -7 l 1086 -3 q 1109 14 1097 6 q 1133 31 1121 22 q 1094 17 1129 32 q 1057 1 1058 1 l 1036 10 l 1079 36 q 1054 33 1075 39 q 1030 27 1047 32 q 993 21 1013 22 q 957 19 974 19 q 853 25 903 19 q 732 42 804 31 q 731 26 731 38 q 735 0 731 15 l 735 -14 q 733 -35 732 -28 q 743 -58 742 -50 q 736 -76 736 -71 q 739 -95 738 -87 q 746 -107 740 -103 q 749 -108 747 -107 l 749 -125 q 746 -142 749 -136 q 621 -92 678 -126 q 528 -6 564 -58 q 501 55 510 22 q 485 138 492 88 q 456 132 479 138 q 417 126 432 126 q 381 140 392 126 q 278 204 344 183 q 218 215 256 210 q 271 233 244 224 q 322 229 296 229 q 389 239 360 229 q 290 472 351 299 q 178 669 242 610 q 129 685 165 681 q 85 692 93 690 q 65 697 76 694 q 47 703 53 700 q 39 717 42 706 q 49 718 43 717 q 82 715 69 715 q 108 719 100 715 q 118 733 117 724 q 75 747 96 740 q 25 778 40 760 q 17 803 17 786 q 19 815 17 810 q 26 819 22 821 q 67 817 53 817 q 82 818 76 817 z "},"|":{"ha":1317,"x_min":49,"x_max":1218,"o":"m 1029 875 q 1028 888 1028 881 q 1033 911 1029 894 l 1050 946 q 1074 957 1065 954 q 1125 968 1101 968 q 1172 949 1149 968 q 1205 911 1192 933 q 1218 846 1218 889 q 1197 731 1218 789 q 1139 644 1176 674 q 1131 635 1131 640 q 1139 617 1131 631 q 1150 590 1147 603 q 1153 558 1153 578 q 1151 524 1153 535 q 1146 507 1149 513 q 1151 468 1151 490 q 1140 396 1151 443 q 1129 328 1129 349 q 1133 299 1129 315 q 1183 218 1136 282 q 1204 171 1204 190 q 1203 153 1203 158 q 1207 108 1203 133 q 1210 71 1211 83 q 1212 44 1208 58 q 1215 26 1215 29 q 1206 4 1215 13 q 1185 -15 1192 -10 q 1144 -32 1160 -35 q 1113 -3 1121 -26 q 1133 22 1106 11 q 1163 40 1161 33 q 1165 56 1165 46 q 1151 111 1165 79 q 1129 156 1133 147 q 1061 256 1113 192 q 990 356 1010 321 q 989 340 989 350 q 989 326 989 331 q 996 250 989 289 q 1015 171 1003 211 q 972 67 985 94 q 906 19 950 19 q 882 18 890 18 q 863 24 871 18 q 854 36 854 29 q 872 54 854 43 q 913 85 900 72 q 936 121 926 97 q 946 167 946 144 q 925 263 946 201 q 863 444 863 443 q 728 386 738 390 q 560 336 631 346 q 553 182 556 308 q 521 13 551 56 q 500 -4 510 4 q 461 -15 482 -15 q 438 -12 454 -15 q 421 10 421 -10 q 432 26 421 21 q 471 50 464 44 q 489 92 489 67 q 488 106 489 100 l 467 236 l 456 282 q 428 219 444 268 q 397 122 413 169 q 386 81 394 117 q 363 33 378 46 q 331 18 349 21 q 285 15 313 15 q 274 25 285 21 q 263 35 263 29 q 271 51 263 42 q 305 76 279 60 q 336 115 331 93 q 350 204 342 138 q 369 353 368 349 q 369 369 369 357 q 357 439 369 388 q 350 485 350 468 q 347 554 350 531 q 326 599 344 578 q 286 646 303 626 q 231 701 261 674 q 207 711 219 711 q 183 708 200 711 q 157 704 165 704 q 124 709 140 704 q 81 726 107 714 q 58 752 67 733 q 56 782 49 771 q 101 800 65 796 q 144 808 138 804 q 199 839 185 832 q 258 857 235 857 q 289 851 276 857 q 368 803 326 836 q 419 761 393 782 q 586 693 499 707 q 771 686 631 686 q 888 701 835 696 q 979 706 942 706 q 1036 692 1010 706 q 1083 660 1060 675 q 1150 728 1119 682 q 1185 821 1181 775 q 1176 896 1185 865 q 1142 939 1167 926 q 1114 944 1131 944 q 1071 931 1093 944 q 1053 910 1061 924 q 1043 879 1046 897 q 1029 875 1035 882 z "},"}":{"ha":700,"x_min":58,"x_max":639,"o":"m 96 942 q 204 1024 128 986 q 303 1056 271 1056 q 346 1045 326 1056 q 383 1015 365 1035 q 426 956 401 996 q 475 882 461 901 q 536 806 489 863 q 626 674 604 722 q 636 638 633 660 q 639 594 639 615 l 639 571 q 603 310 639 431 q 482 94 561 171 q 453 83 475 88 q 425 74 432 79 q 427 53 426 63 q 433 38 428 44 l 461 21 l 482 14 l 469 6 q 454 11 468 4 q 439 17 440 18 q 444 -1 443 4 l 451 -19 q 442 -17 447 -18 q 431 -8 438 -15 q 417 7 424 0 q 413 -4 414 7 q 408 -15 411 -15 q 404 -7 406 -11 q 401 3 403 -3 q 403 18 404 17 q 410 21 407 19 q 415 31 414 22 q 417 56 421 42 q 408 74 413 69 q 394 74 406 76 q 375 71 382 72 q 360 70 367 69 q 349 71 353 71 q 349 45 349 57 q 354 13 350 33 q 360 4 353 10 q 388 -19 386 -15 q 390 -26 390 -22 q 390 -36 390 -31 q 371 -21 386 -39 q 353 -3 361 -11 l 357 -28 q 364 -46 358 -31 q 365 -50 364 -47 q 349 -33 360 -50 q 342 -24 344 -28 q 338 -14 339 -19 q 321 -28 333 -12 q 317 -30 319 -29 q 314 -32 315 -31 q 313 -15 308 -24 q 324 1 317 -6 q 335 6 333 6 q 338 6 336 6 l 332 72 q 298 76 314 74 q 269 87 282 78 q 238 124 257 96 q 214 153 218 151 q 226 119 219 136 q 240 86 233 103 q 211 103 225 89 q 189 133 206 108 q 172 165 181 149 q 146 217 151 206 q 133 206 135 210 q 134 183 132 201 q 138 149 136 164 q 142 111 146 125 q 128 122 133 117 q 122 134 124 128 q 119 142 119 140 q 111 163 114 150 q 106 190 108 176 q 58 469 58 336 q 128 693 58 586 q 249 826 175 767 q 260 855 260 835 q 263 893 261 875 q 174 924 208 914 q 96 942 139 933 z "},"~":{"ha":1783,"x_min":17,"x_max":1768,"o":"m 1044 936 q 1253 876 1175 900 q 1518 746 1397 832 q 1571 628 1554 721 q 1605 513 1588 536 q 1685 475 1622 490 q 1761 438 1747 460 q 1768 413 1768 424 q 1764 397 1768 404 q 1732 383 1756 383 q 1658 410 1700 383 q 1581 489 1617 436 q 1544 581 1556 524 q 1532 663 1535 642 q 1538 629 1538 650 q 1516 516 1538 593 q 1499 424 1494 439 q 1553 346 1500 417 q 1574 293 1574 318 q 1569 231 1574 281 q 1564 156 1564 182 l 1564 113 q 1559 49 1564 75 q 1538 1 1554 24 q 1497 -18 1524 -14 q 1450 -25 1469 -22 q 1437 -15 1450 -19 q 1417 -12 1424 -11 q 1483 58 1464 28 q 1507 144 1511 100 q 1488 228 1507 192 q 1418 338 1451 283 l 1385 369 l 1400 269 q 1326 154 1388 240 q 1290 83 1303 121 q 1286 56 1286 71 q 1288 28 1286 47 q 1289 1 1289 10 q 1254 -1 1264 -1 q 1215 3 1233 -1 q 1158 22 1197 7 q 1282 158 1247 101 q 1313 258 1313 210 q 1311 274 1311 268 q 1292 317 1310 290 q 1267 358 1269 349 q 1237 380 1265 368 q 1197 410 1208 392 q 1108 363 1147 375 q 1026 350 1069 350 q 981 351 1014 350 q 924 353 947 353 q 892 353 907 353 q 853 350 876 353 q 853 332 853 342 q 854 310 853 322 q 851 256 854 279 q 836 215 847 233 q 805 203 832 207 q 775 186 778 199 q 772 149 772 174 q 775 106 772 135 q 778 65 778 76 q 761 25 778 31 q 731 12 756 24 q 693 0 707 0 q 633 13 663 0 q 597 47 604 26 q 626 89 592 64 q 651 114 647 104 q 654 138 654 124 q 656 161 654 151 q 656 179 656 172 q 654 193 656 186 q 603 249 640 235 q 531 268 554 260 q 464 296 508 276 q 367 324 394 326 q 276 228 326 324 q 238 149 257 188 l 217 121 q 195 218 207 146 q 172 312 183 290 q 124 341 160 333 q 79 358 89 349 q 38 429 50 388 q 22 515 26 471 q 17 576 18 558 q 17 617 17 593 q 38 754 17 703 q 126 822 65 822 q 151 819 143 819 q 169 827 163 819 q 176 856 176 835 q 176 865 176 861 q 175 871 176 868 l 218 842 l 243 815 q 285 881 267 843 q 332 964 321 953 q 390 994 350 983 q 490 1010 429 1004 q 556 1010 522 1010 q 624 1011 589 1010 q 863 990 760 1011 q 1044 936 946 974 z "},"":{"ha":1313,"x_min":0,"x_max":0,"o":""},"":{"ha":1132,"x_min":0,"x_max":0,"o":""},"":{"ha":1208,"x_min":0,"x_max":0,"o":""},"":{"ha":1875,"x_min":0,"x_max":0,"o":""},"":{"ha":747,"x_min":0,"x_max":0,"o":""},"":{"ha":658,"x_min":0,"x_max":0,"o":""},"":{"ha":1771,"x_min":0,"x_max":0,"o":""},"":{"ha":2194,"x_min":0,"x_max":0,"o":""},"":{"ha":1132,"x_min":0,"x_max":0,"o":""},"":{"ha":1313,"x_min":0,"x_max":0,"o":""},"":{"ha":1694,"x_min":0,"x_max":0,"o":""},"":{"ha":639,"x_min":0,"x_max":0,"o":""},"":{"ha":819,"x_min":0,"x_max":0,"o":""},"":{"ha":347,"x_min":0,"x_max":0,"o":""},"":{"ha":857,"x_min":0,"x_max":0,"o":""},"":{"ha":2194,"x_min":26,"x_max":2188,"o":"m 528 482 q 717 557 589 501 q 1051 643 914 643 q 1186 631 1117 643 q 1321 601 1200 628 q 1481 506 1392 586 q 1626 365 1553 435 q 1769 293 1710 293 q 1800 299 1779 293 q 1833 304 1821 304 l 2000 304 q 2031 304 2015 304 q 2064 306 2047 304 q 2152 297 2118 306 q 2188 265 2186 289 q 2144 193 2188 217 q 2039 165 2114 176 q 1910 152 1994 158 q 1743 140 1825 146 q 1627 130 1661 133 q 1560 115 1593 126 q 1518 103 1539 108 q 1478 74 1486 90 q 1472 46 1475 68 q 1457 24 1469 24 q 1452 12 1451 24 q 1453 -11 1453 0 q 1440 8 1449 -8 q 1428 24 1431 25 q 1414 -3 1421 19 q 1413 -14 1414 -6 l 1403 18 l 1385 21 q 1376 10 1382 21 q 1364 -11 1371 0 l 1360 24 l 1332 29 l 1314 6 q 1311 25 1313 13 q 1311 47 1310 38 q 1317 75 1311 57 q 1321 100 1322 93 q 1279 96 1308 97 q 1244 94 1250 94 q 1075 104 1163 94 q 896 129 988 114 q 847 140 883 131 q 797 150 811 150 q 782 149 786 150 q 697 129 731 135 q 633 124 664 124 q 624 104 631 124 q 619 94 624 101 q 607 106 615 94 q 592 117 599 117 q 581 97 586 117 q 572 75 575 78 l 563 100 l 539 108 q 532 93 533 99 q 526 81 531 88 l 521 110 q 509 113 515 110 q 500 114 503 115 l 472 96 q 476 108 474 101 q 489 125 489 124 l 463 142 q 501 163 490 156 q 531 188 515 175 q 400 229 454 206 q 333 260 367 244 q 306 260 318 256 q 285 268 294 264 q 186 222 276 268 q 114 200 143 200 q 54 223 82 200 q 26 279 26 246 q 26 297 26 288 q 125 344 65 325 q 211 382 185 363 q 267 438 225 392 q 316 477 297 469 q 347 486 335 485 q 375 488 358 488 q 433 482 396 488 q 489 476 471 476 q 528 482 511 476 z "},"":{"ha":1592,"x_min":0,"x_max":0,"o":""},"":{"ha":1108,"x_min":0,"x_max":0,"o":""},"":{"ha":1194,"x_min":0,"x_max":0,"o":""},"":{"ha":1167,"x_min":0,"x_max":0,"o":""},"":{"ha":1928,"x_min":0,"x_max":0,"o":""},"":{"ha":896,"x_min":0,"x_max":0,"o":""},"":{"ha":861,"x_min":0,"x_max":0,"o":""},"":{"ha":2299,"x_min":0,"x_max":0,"o":""},"":{"ha":1875,"x_min":57,"x_max":1828,"o":"m 442 631 q 640 675 532 631 q 790 719 749 719 q 910 723 836 719 q 1000 726 985 726 q 1118 721 1038 726 q 1242 715 1199 715 q 1346 699 1256 715 q 1464 676 1404 688 q 1510 671 1486 674 q 1567 647 1544 664 q 1596 618 1581 638 q 1639 563 1617 590 l 1658 542 q 1676 538 1664 538 q 1694 536 1688 538 q 1708 549 1708 532 q 1704 565 1708 557 q 1691 579 1700 572 q 1672 593 1682 586 q 1673 599 1669 596 q 1682 603 1676 603 q 1707 589 1693 603 q 1725 558 1721 575 l 1728 533 q 1720 523 1726 528 q 1704 515 1714 518 q 1689 513 1694 513 q 1667 515 1675 513 q 1645 523 1660 517 q 1626 538 1631 529 q 1614 547 1622 546 l 1618 436 q 1623 362 1618 394 q 1643 304 1628 329 q 1635 293 1639 299 q 1715 229 1688 251 q 1784 153 1769 186 q 1810 69 1799 121 q 1828 -28 1818 21 q 1796 -36 1818 -32 q 1766 -43 1774 -40 q 1743 -62 1758 -46 q 1717 -79 1728 -79 q 1704 -54 1704 -76 q 1708 -31 1704 -43 q 1719 -14 1714 -22 q 1719 19 1719 3 q 1714 71 1715 51 q 1712 104 1713 90 q 1703 126 1711 118 q 1558 183 1665 168 q 1524 46 1544 104 q 1514 18 1517 28 q 1504 1 1511 8 q 1481 -8 1493 -3 q 1449 -12 1468 -12 q 1401 -4 1435 -12 q 1367 4 1368 4 l 1394 31 q 1423 47 1406 39 q 1448 64 1440 56 q 1458 100 1456 72 q 1460 171 1460 128 q 1460 178 1460 174 q 1447 186 1456 176 q 1415 202 1439 196 q 1380 215 1392 208 q 1346 239 1368 221 q 1318 257 1324 257 q 1226 240 1289 257 q 1107 213 1139 217 q 843 181 975 196 q 758 147 810 172 q 686 114 696 117 q 522 85 654 104 q 440 63 475 78 q 421 49 431 58 q 385 14 386 15 q 382 27 381 18 q 386 46 383 36 q 390 58 389 53 q 386 63 392 63 q 373 56 381 63 q 358 44 365 50 l 339 33 l 331 44 q 336 53 335 50 q 343 65 343 63 l 319 74 q 306 70 315 72 q 293 72 297 68 q 303 102 285 82 q 365 146 322 122 q 449 185 407 169 q 478 197 464 190 q 532 222 522 219 q 586 235 568 231 q 614 249 604 240 q 568 267 596 253 q 520 284 540 281 q 476 288 500 288 q 385 278 453 288 q 326 272 346 272 q 275 276 303 272 q 175 285 215 282 q 108 307 135 288 q 84 336 92 326 q 74 350 76 346 q 60 383 63 365 q 57 425 57 400 q 58 434 57 432 q 61 438 60 436 q 89 435 74 438 q 106 433 104 433 q 210 458 164 439 q 293 508 256 476 q 311 531 304 525 l 331 546 q 335 560 335 554 q 330 576 335 561 q 325 604 325 592 q 321 633 321 621 q 329 665 321 651 q 365 697 338 679 q 408 650 375 679 q 442 631 431 631 z "},"":{"ha":1861,"x_min":0,"x_max":0,"o":""},"":{"ha":1813,"x_min":0,"x_max":0,"o":""},"":{"ha":667,"x_min":0,"x_max":0,"o":""},"":{"ha":1625,"x_min":0,"x_max":0,"o":""},"":{"ha":1924,"x_min":0,"x_max":0,"o":""},"":{"ha":2042,"x_min":0,"x_max":0,"o":""},"":{"ha":1826,"x_min":0,"x_max":0,"o":""},"":{"ha":1317,"x_min":0,"x_max":0,"o":""},"":{"ha":700,"x_min":0,"x_max":0,"o":""},"":{"ha":1007,"x_min":0,"x_max":0,"o":""},"":{"ha":1644,"x_min":0,"x_max":0,"o":""},"":{"ha":1208,"x_min":0,"x_max":0,"o":""},"":{"ha":747,"x_min":68,"x_max":679,"o":"m 161 1046 q 282 1097 199 1054 q 406 1132 350 1132 q 449 1150 415 1132 q 478 1161 465 1158 q 485 1158 479 1160 q 493 1151 492 1156 q 532 1090 500 1131 q 566 1035 564 1050 q 568 1003 568 1019 q 567 975 568 989 q 567 949 567 961 q 571 911 567 922 q 614 828 583 876 q 674 683 674 733 q 667 639 674 664 q 644 469 644 558 q 665 310 644 389 q 674 257 671 290 q 676 201 676 224 q 676 156 676 178 q 675 114 675 135 l 679 -54 q 656 -62 664 -60 q 608 -74 626 -72 q 575 -76 590 -76 q 528 -76 538 -76 q 511 -72 518 -75 q 514 -61 513 -69 q 523 -47 515 -53 q 539 -31 531 -42 q 547 -11 547 -19 q 494 121 547 31 q 450 192 472 156 q 364 113 396 172 q 322 14 335 42 q 289 -15 310 -7 q 233 -24 268 -24 q 203 -19 221 -24 q 169 -11 186 -15 q 190 10 174 -3 q 208 36 206 24 q 211 56 211 49 q 201 107 211 74 q 179 206 179 183 q 185 239 179 226 q 224 375 224 336 q 221 400 224 389 q 215 422 218 411 q 204 461 215 443 q 189 488 189 485 q 167 456 178 471 q 160 424 160 435 q 162 406 160 417 q 164 389 164 394 q 156 374 157 381 q 157 361 156 368 q 139 365 151 360 q 132 356 132 358 q 136 349 133 351 q 140 347 139 347 l 119 351 l 122 344 q 104 360 115 343 q 104 349 104 354 l 93 351 q 81 364 90 360 q 71 372 72 368 q 69 381 69 376 q 68 406 68 385 q 169 803 68 640 q 226 854 183 824 q 286 899 278 889 q 294 915 294 910 q 267 949 294 929 q 170 1017 175 1013 q 164 1032 165 1022 q 161 1046 163 1042 z "},"":{"ha":1875,"x_min":0,"x_max":0,"o":""},"":{"ha":747,"x_min":0,"x_max":0,"o":""},"":{"ha":1771,"x_min":0,"x_max":0,"o":""},"":{"ha":658,"x_min":-4,"x_max":644,"o":"m 267 1061 q 281 1053 274 1051 q 292 1058 285 1053 q 306 1067 299 1063 q 321 1083 313 1071 q 332 1096 329 1096 q 347 1085 344 1096 q 353 1064 350 1075 q 364 1067 358 1065 q 381 1076 378 1076 q 393 1071 388 1071 q 388 1050 390 1060 q 382 1025 378 1026 q 411 1047 389 1022 q 446 1061 433 1071 q 444 1035 450 1058 q 442 1010 439 1013 q 490 1015 446 1006 q 511 1015 500 1015 q 494 996 511 1011 q 485 981 489 988 q 533 965 518 971 q 574 931 563 954 q 560 926 567 928 q 522 926 540 926 q 526 912 521 924 q 539 893 532 900 q 561 879 550 886 q 557 864 561 871 q 553 850 553 857 q 568 843 563 846 q 596 826 583 835 q 602 817 601 822 q 603 807 603 813 q 583 799 594 799 q 568 790 568 799 q 585 732 568 760 q 581 723 589 725 q 571 717 574 721 q 597 675 565 711 q 614 650 614 656 q 597 644 614 644 q 575 639 576 644 q 583 607 576 617 q 615 588 597 590 q 639 551 633 585 q 644 485 644 518 q 638 431 644 440 q 624 409 631 421 q 618 388 618 397 q 624 360 624 369 q 613 336 624 349 q 599 357 604 336 q 588 399 593 378 q 561 421 583 421 q 546 419 556 421 q 536 407 536 417 q 539 381 539 390 q 560 381 547 381 q 575 378 574 382 q 568 367 575 374 q 544 343 544 344 q 561 338 553 340 q 582 333 582 336 q 572 326 582 329 q 543 310 546 318 q 553 303 542 307 q 567 297 565 299 q 560 289 568 294 q 540 276 540 278 q 556 271 542 274 q 583 265 569 268 q 562 246 583 254 q 538 235 540 238 q 539 225 532 229 q 565 206 564 210 q 563 192 567 192 q 547 193 558 190 q 533 193 535 196 q 526 160 526 186 l 533 154 q 528 149 531 151 q 517 140 517 144 q 510 113 510 122 q 519 103 510 108 q 529 94 528 97 q 528 75 532 88 q 510 80 526 75 q 490 82 493 85 q 486 65 486 78 q 489 32 489 40 q 467 35 481 32 q 453 35 454 38 q 450 15 449 21 q 462 -5 453 4 q 471 -21 471 -14 q 460 -21 465 -21 q 440 -18 446 -15 q 437 -28 435 -21 q 428 -35 439 -36 q 424 -28 425 -29 q 411 -21 418 -21 q 400 -33 401 -21 q 397 -58 399 -44 q 380 -48 396 -60 q 363 -37 364 -36 q 371 -58 361 -40 q 379 -78 381 -76 q 346 -71 363 -74 q 339 -92 342 -75 q 333 -108 336 -108 q 322 -92 326 -108 q 315 -72 317 -75 q 302 -72 313 -69 q 289 -74 292 -74 q 282 -94 285 -74 q 276 -114 279 -114 q 267 -93 272 -114 q 264 -83 267 -90 q 246 -85 247 -83 q 228 -108 235 -101 q 217 -114 222 -114 q 224 -93 222 -100 q 229 -69 231 -72 q 210 -64 221 -61 q 196 -75 203 -67 q 190 -83 194 -78 q 190 -66 190 -75 q 181 -53 189 -57 q 160 -50 172 -50 q 135 -49 135 -50 q 143 -33 135 -44 q 150 -18 151 -21 q 118 3 143 -7 q 82 14 108 7 q 94 19 90 18 q 108 36 108 28 q 96 44 108 40 q 88 56 83 49 q 92 69 92 67 q 82 79 92 75 q 71 85 72 83 q 78 97 69 88 q 85 108 88 106 q 72 115 83 111 q 50 124 60 119 q 71 139 71 131 q 63 148 71 142 q 57 157 54 154 q 65 171 65 165 q 56 182 65 178 q 38 190 46 186 q 60 207 60 200 q 50 218 54 213 q 54 235 54 229 q 48 248 54 244 q 42 253 42 251 q 61 268 61 261 q 49 279 54 274 q 63 297 63 292 q 56 306 58 301 q 74 346 63 324 q 97 392 96 388 q 111 409 104 406 q 126 414 118 413 q 101 350 113 390 q 90 286 90 310 q 144 106 90 203 q 276 -3 206 -3 q 376 60 332 -3 q 417 168 417 117 l 417 188 q 412 262 417 229 q 390 322 407 294 q 332 417 350 385 q 300 510 300 472 q 309 647 300 589 q 338 763 318 706 q 357 815 347 789 q 361 847 361 832 q 357 883 361 867 q 338 872 347 878 q 322 840 318 854 q 331 832 322 836 q 339 821 340 828 q 328 814 338 815 q 315 810 319 813 q 306 799 311 808 q 304 793 306 797 q 297 804 301 793 q 289 814 293 815 q 160 694 217 793 q 65 551 89 572 q 45 549 58 550 q 28 547 32 547 q -4 564 -4 547 q -1 572 -4 568 q 4 582 1 576 q 33 592 18 586 q 62 634 49 608 q 89 686 75 660 q 101 714 96 699 q 107 742 107 729 q 90 744 107 744 q 79 749 79 744 q 100 771 79 750 q 110 785 110 781 q 113 817 113 807 q 109 829 113 824 q 94 841 106 835 q 82 853 83 847 q 93 872 88 863 q 113 865 104 868 q 126 867 122 863 q 144 925 144 885 q 121 943 144 932 q 97 957 97 954 q 121 966 107 963 q 138 972 135 969 q 160 1026 160 994 q 151 1045 160 1031 q 150 1063 142 1060 q 186 1076 167 1067 q 206 1092 206 1086 q 197 1053 211 1089 q 200 1036 199 1044 q 226 1036 217 1033 q 242 1042 235 1038 q 267 1061 256 1050 z "},"":{"ha":1132,"x_min":8,"x_max":1106,"o":"m 657 1089 q 614 943 635 1015 q 650 900 635 925 q 665 842 665 875 q 647 760 665 804 q 599 672 628 715 q 715 599 714 600 q 794 499 764 563 q 836 356 824 435 q 853 244 844 300 q 933 331 860 254 q 989 396 965 364 q 1022 464 1008 422 q 1063 585 1061 581 q 1075 589 1064 589 q 1095 583 1085 589 q 1104 568 1106 576 q 1054 354 1092 457 q 972 185 1022 265 q 614 -35 840 -35 q 548 -28 579 -35 q 490 -6 517 -22 q 444 4 475 4 q 403 -3 421 4 q 246 -35 310 -35 q 163 -22 214 -35 q 97 11 97 -6 q 146 90 97 36 q 194 201 194 144 q 156 475 194 300 q 122 642 131 585 q 40 786 114 699 q 8 853 8 825 q 13 882 8 871 q 23 899 17 893 q 42 909 29 906 q 65 915 54 913 q 103 882 88 904 q 193 751 142 824 q 214 742 203 746 q 224 761 224 754 q 206 785 224 774 q 186 799 188 796 q 191 831 190 824 q 201 842 192 838 q 211 853 211 847 q 207 858 208 857 q 197 869 201 864 l 189 888 l 192 917 q 201 935 193 926 q 211 943 204 938 q 246 956 228 949 q 361 1026 301 1004 q 451 1043 407 1043 q 492 1040 474 1043 q 526 1036 511 1038 q 603 1071 531 1036 q 657 1089 640 1089 z "},"":{"ha":1007,"x_min":31,"x_max":963,"o":"m 124 1096 q 156 1107 135 1101 q 192 1113 176 1113 q 244 1089 213 1113 q 261 1083 250 1083 q 288 1088 278 1088 q 325 1082 314 1088 l 338 1068 q 303 1049 329 1061 q 263 1035 278 1038 q 261 1020 260 1031 q 264 1003 263 1010 q 272 892 264 963 q 294 763 279 821 q 310 730 300 740 q 328 719 321 719 q 360 722 338 719 q 386 725 382 725 q 596 739 438 725 q 732 746 675 746 q 906 706 850 746 q 963 569 963 665 q 953 517 963 542 q 933 479 951 513 q 890 418 922 461 q 857 358 865 386 q 864 329 854 350 q 894 238 892 272 q 883 182 888 204 q 864 69 868 101 q 858 20 860 38 q 856 -8 856 3 l 853 -24 q 852 -36 853 -33 q 849 -40 851 -39 l 836 -39 l 832 -28 q 811 -37 817 -37 l 801 -39 q 801 -22 796 -32 q 806 -15 803 -18 q 813 -10 810 -11 q 816 16 813 3 q 826 51 819 29 q 829 92 829 61 q 831 146 829 124 l 832 193 l 826 197 q 808 153 814 169 q 775 72 785 93 q 736 0 758 38 q 713 -39 728 -14 q 710 -31 710 -33 q 709 -24 711 -28 q 707 -18 707 -19 q 701 -22 704 -18 q 697 -28 697 -26 l 667 -29 l 690 0 q 711 21 700 10 q 754 119 743 89 q 774 215 774 172 q 731 361 774 247 q 699 453 704 432 q 620 417 653 429 q 558 404 588 404 q 483 415 531 404 q 476 308 479 393 q 474 135 474 224 q 471 67 474 92 q 464 21 468 42 q 464 -1 467 7 q 456 -10 461 -8 q 449 -11 450 -11 q 431 -29 440 -19 q 413 -39 422 -39 q 408 -33 410 -35 q 386 -15 397 -19 q 368 -20 383 -14 q 350 -26 353 -26 l 344 -12 q 358 10 342 -3 q 376 28 375 22 q 394 88 388 60 q 401 139 401 115 q 397 175 401 158 q 383 211 392 192 q 374 245 375 231 q 372 289 372 260 l 372 324 q 368 385 372 363 q 342 429 364 407 q 311 449 333 438 q 274 468 279 464 q 218 583 239 493 q 197 675 207 629 q 183 738 194 690 q 167 814 172 785 q 147 911 150 901 q 126 956 136 956 q 72 963 107 954 q 36 986 36 971 q 32 999 32 996 q 43 1032 31 1014 q 82 1067 61 1050 q 124 1096 103 1085 z "},"":{"ha":2194,"x_min":0,"x_max":0,"o":""},"":{"ha":1132,"x_min":0,"x_max":0,"o":""},"":{"ha":1771,"x_min":-4,"x_max":1763,"o":"m 1758 1089 q 1763 1075 1763 1085 q 1762 1062 1763 1067 q 1758 1053 1761 1057 l 1728 975 q 1715 1004 1717 983 q 1694 1025 1714 1025 q 1668 1026 1671 1026 q 1664 1025 1665 1026 q 1626 1003 1653 1015 q 1621 1016 1625 1011 q 1617 1022 1617 1021 q 1651 1044 1617 1025 q 1724 1089 1686 1064 q 1743 1096 1733 1096 q 1758 1089 1751 1096 m 1525 1032 q 1540 1028 1532 1029 q 1624 971 1582 999 q 1588 989 1614 974 q 1525 1032 1553 1010 m 479 1032 q 514 985 496 1022 q 550 893 532 949 q 576 819 563 856 q 607 769 589 783 l 607 806 q 592 853 607 813 q 521 1025 578 893 l 557 1025 q 617 926 586 1007 q 643 833 643 857 l 643 583 q 600 684 636 590 q 526 883 564 778 q 494 969 510 926 q 479 1032 479 1013 m 422 1032 q 433 1026 429 1029 q 464 990 449 1014 q 447 988 454 988 q 432 988 439 988 q 403 992 425 988 q 372 997 381 997 q 342 990 353 997 q 299 982 332 982 q 367 1015 310 996 q 422 1032 385 1021 m 1104 1011 q 1094 950 1094 978 q 1099 902 1094 933 q 1104 863 1104 871 q 1051 707 1104 825 q 976 556 1008 610 l 976 619 q 1040 746 1024 708 q 1069 882 1069 810 l 1069 1011 l 1104 1011 m 600 1008 q 642 990 636 1006 q 679 910 654 953 q 685 926 685 918 q 671 968 685 943 l 671 997 q 708 881 697 979 q 714 769 714 828 q 703 622 714 669 q 682 556 693 574 q 676 614 676 576 q 676 635 676 626 q 678 649 676 643 q 673 692 678 689 q 663 699 668 696 q 669 731 663 711 q 685 776 676 751 q 653 904 685 824 q 600 1008 626 969 m 1644 982 q 1681 997 1657 994 l 1688 982 q 1681 946 1682 957 q 1671 925 1675 935 q 1657 958 1669 935 q 1644 982 1653 967 m 1218 1003 q 1251 724 1218 810 q 1325 597 1288 660 q 1317 580 1325 589 q 1300 563 1308 571 q 1251 671 1292 590 q 1206 771 1210 751 q 1203 798 1203 790 q 1203 808 1203 806 q 1204 833 1203 817 q 1206 860 1206 850 q 1202 903 1206 881 q 1189 961 1199 925 l 1189 1003 l 1218 1003 m 1175 1003 q 1208 707 1175 807 q 1283 556 1246 631 q 1278 549 1279 551 q 1261 519 1268 535 q 1190 679 1253 547 q 1140 833 1140 785 l 1140 1003 l 1175 1003 m 1033 1003 q 1032 988 1032 993 q 1038 934 1032 974 q 1043 882 1043 894 q 1024 819 1043 847 q 988 743 1006 792 q 919 571 935 600 l 919 654 q 976 840 968 804 q 999 1003 985 876 l 1033 1003 m 954 990 l 954 946 q 926 809 943 883 q 888 679 908 735 q 870 608 878 654 q 856 549 863 563 l 849 543 l 849 682 q 903 869 882 786 q 931 990 917 929 q 954 990 944 986 m 897 990 l 897 946 q 818 667 838 756 q 806 553 806 608 q 795 588 799 571 q 792 614 792 604 l 792 635 q 802 721 792 676 q 813 776 813 765 q 807 822 810 793 q 804 883 804 851 q 809 947 804 921 q 828 990 814 974 l 828 869 q 861 929 854 888 q 897 990 868 971 m 783 990 l 783 790 l 739 556 q 724 588 728 569 q 719 629 719 606 q 731 714 719 663 q 756 833 756 829 q 744 926 756 904 q 717 990 721 974 q 747 982 736 988 q 756 976 750 981 l 783 990 m 372 974 q 413 978 397 978 q 461 944 451 978 q 504 854 479 885 q 451 877 458 854 q 419 911 444 900 q 321 925 393 922 q 229 933 249 928 q 244 956 238 946 q 265 974 258 975 q 310 967 286 967 q 343 969 331 967 q 372 974 356 971 m 400 811 q 308 876 360 849 q 208 904 257 904 q 194 892 200 904 q 181 851 189 879 q 272 829 226 851 q 385 772 328 800 q 511 711 467 763 q 554 642 544 654 q 557 669 557 649 q 475 803 557 793 q 400 811 438 807 m 197 811 q 449 693 288 728 q 493 638 493 683 q 492 619 492 626 l 492 606 q 453 635 468 617 q 375 660 432 660 q 315 658 331 660 q 286 647 299 656 q 222 697 257 647 q 194 747 211 714 q 160 635 182 722 q 125 519 139 547 l 128 597 q 135 658 131 622 q 161 760 140 693 q 178 782 164 767 q 197 811 193 797 m 1033 583 q 1084 701 1061 639 q 1115 806 1107 763 q 1181 625 1144 700 q 1226 499 1229 524 q 1171 592 1200 536 q 1111 692 1142 647 q 1076 614 1083 665 q 1033 535 1068 563 l 1033 583 m 1075 549 q 1088 590 1083 575 q 1108 663 1106 650 q 1153 572 1115 638 q 1189 492 1175 535 q 1146 527 1164 501 q 1111 578 1128 553 q 1092 548 1101 564 q 1075 519 1082 532 l 1075 549 m 17 446 q 38 526 17 488 q 96 647 93 629 q 97 633 97 640 q 97 619 97 626 q 96 586 97 596 q 89 535 89 536 q 101 486 89 504 q 108 478 103 483 q 74 414 108 467 q 38 363 63 397 l -4 363 q 11 404 6 383 q 17 446 17 425 m 308 613 q 393 601 361 613 q 451 563 414 594 q 419 556 426 556 q 397 563 414 556 q 351 571 379 571 q 297 562 325 571 q 251 549 268 553 l 251 590 q 278 609 269 606 q 308 613 286 613 m 343 535 q 411 515 385 535 q 422 506 415 513 q 400 471 422 485 q 371 481 383 476 q 350 486 358 486 q 294 478 340 486 l 294 449 q 340 446 326 449 q 372 428 354 443 q 376 403 376 413 q 372 385 376 396 q 355 397 363 392 q 336 407 347 403 l 286 407 q 304 364 293 372 q 358 356 315 356 q 310 320 347 332 q 258 299 274 308 q 253 307 256 303 q 229 315 244 315 l 188 315 q 189 335 189 322 q 188 350 189 343 q 232 360 213 360 q 259 356 242 360 q 286 353 276 353 q 272 385 281 376 q 253 393 264 393 q 236 392 242 392 q 216 399 225 392 q 200 432 207 407 q 232 436 221 436 q 253 431 244 436 q 265 425 261 425 q 294 442 272 425 q 269 465 276 463 q 226 471 263 468 q 237 492 232 483 q 251 514 242 500 q 286 492 268 501 q 307 521 296 507 q 343 535 318 535 m 1090 499 q 1117 500 1103 499 q 1147 492 1132 496 q 1125 490 1138 490 q 1090 499 1119 490 m 1040 492 q 1083 473 1061 482 q 1125 464 1104 464 l 1175 461 q 1163 433 1167 440 q 1140 419 1154 419 l 1040 449 l 1040 492 m 1029 414 q 1039 418 1036 417 q 1057 424 1051 424 q 1073 419 1064 424 q 1097 400 1082 414 l 1154 400 q 1124 358 1149 367 q 1083 321 1100 350 q 1133 328 1113 321 l 1133 279 q 1101 274 1117 275 q 1075 271 1086 272 q 1099 259 1085 265 q 1118 251 1113 253 l 1118 222 q 1101 223 1107 222 q 1090 228 1094 224 q 1075 207 1086 218 q 1093 196 1085 201 q 1118 179 1113 183 q 1103 163 1103 168 q 1096 164 1101 163 q 1069 165 1090 165 q 1058 131 1064 135 q 999 122 1051 128 l 999 165 q 1013 163 1007 163 q 1026 163 1019 163 q 1055 164 1039 163 q 1075 165 1071 165 q 1056 193 1067 188 q 1022 199 1044 199 q 999 200 1007 199 l 999 243 q 1038 235 1029 235 q 1056 238 1047 235 q 1075 251 1064 242 q 1044 257 1057 254 q 1006 279 1032 260 l 1006 308 q 1030 295 1019 300 q 1056 290 1040 290 q 1072 292 1065 290 q 1056 325 1069 314 q 1011 360 1033 342 q 1039 358 1031 360 q 1056 356 1047 357 q 1083 363 1058 356 q 1052 386 1068 374 q 1029 414 1036 399 m 351 299 l 351 257 q 286 246 314 257 q 208 207 247 226 l 206 264 q 269 276 264 264 q 351 299 274 289 m 364 228 l 361 186 q 301 160 331 183 q 229 128 272 136 q 215 172 226 149 q 305 208 268 189 q 364 228 342 226 m 358 157 q 374 160 371 160 q 390 128 379 160 l 251 71 l 247 108 q 320 137 290 117 q 358 157 350 157 m 1125 143 l 1125 100 q 1089 83 1111 94 q 1063 71 1067 71 q 1060 64 1061 65 q 1043 57 1054 57 q 1022 62 1033 57 q 992 81 1011 67 q 1089 125 1040 101 q 1125 143 1104 132 m 381 100 q 407 86 401 100 q 443 24 422 50 l 443 -21 q 410 -8 432 -18 q 379 3 389 3 q 304 18 339 3 q 258 58 269 33 q 354 86 343 58 q 381 100 360 100 m 1144 88 l 1160 60 q 1143 53 1150 58 q 1118 36 1119 36 q 1136 35 1124 33 q 1164 40 1149 38 q 1189 29 1178 40 q 1192 13 1194 25 q 1189 -6 1189 0 l 1147 -6 q 1117 1 1117 -6 q 1083 8 1117 8 q 1055 7 1061 8 q 1026 -6 1049 6 l 1026 29 q 1094 44 1072 29 q 1144 88 1121 69 m 1033 -21 l 1118 -21 q 1113 -46 1115 -33 q 1090 -56 1108 -56 q 1057 -49 1065 -56 q 1040 -28 1054 -47 l 1033 -21 m 1649 894 l 1653 872 l 1594 926 q 1563 961 1589 932 q 1538 986 1550 975 q 1611 954 1585 975 q 1649 894 1638 933 m 1572 654 q 1618 633 1599 651 q 1638 597 1638 615 q 1620 532 1638 558 q 1572 506 1603 506 q 1516 534 1529 506 q 1489 594 1503 563 q 1553 626 1526 599 q 1572 654 1561 635 m 1636 640 l 1613 743 l 1650 669 l 1636 640 m 1614 782 q 1627 751 1622 760 q 1647 724 1632 742 q 1644 761 1647 749 q 1630 801 1640 774 q 1599 856 1619 829 q 1601 825 1599 836 q 1614 782 1604 814 m 1464 836 l 1518 814 l 1518 781 l 1496 779 l 1464 836 m 1625 843 q 1600 879 1618 857 q 1579 917 1582 901 l 1653 843 l 1654 778 q 1625 843 1643 808 m 1424 935 q 1431 872 1424 900 q 1456 811 1439 844 q 1471 779 1463 794 q 1496 757 1479 764 q 1513 762 1500 754 q 1529 763 1526 769 q 1547 731 1536 747 q 1571 699 1558 715 q 1565 678 1568 688 q 1551 702 1557 689 q 1534 721 1544 715 q 1517 731 1524 726 l 1547 665 q 1515 694 1531 679 q 1487 723 1499 708 q 1467 746 1475 738 q 1442 781 1449 765 q 1417 883 1417 838 q 1424 935 1417 904 m 1565 901 q 1575 880 1571 892 q 1583 851 1579 868 q 1588 819 1586 835 q 1593 788 1589 803 q 1582 778 1588 782 q 1572 833 1578 786 q 1564 836 1568 835 q 1560 818 1560 829 q 1561 796 1561 806 q 1576 753 1561 778 q 1589 726 1586 736 l 1597 681 q 1575 718 1585 701 q 1558 751 1565 735 q 1535 806 1546 778 q 1545 853 1535 829 q 1565 901 1556 878 m 1511 863 q 1529 899 1521 872 q 1551 935 1538 925 q 1549 912 1551 921 q 1533 867 1547 903 q 1526 852 1529 857 q 1514 835 1524 847 q 1510 851 1511 843 q 1511 863 1508 860 m 1507 944 q 1514 951 1508 947 q 1525 957 1519 954 q 1531 950 1532 957 q 1518 918 1521 928 q 1513 897 1515 908 q 1492 867 1506 876 q 1483 863 1489 865 q 1475 856 1476 860 l 1507 944 m 1404 751 q 1383 815 1399 769 q 1368 889 1368 861 q 1376 940 1368 911 q 1392 935 1383 938 q 1400 926 1400 932 q 1399 894 1400 908 q 1399 868 1399 879 q 1401 828 1399 849 q 1417 780 1403 807 q 1457 729 1432 753 q 1528 650 1493 694 q 1528 632 1531 644 q 1522 625 1525 628 q 1486 668 1510 650 q 1446 701 1451 696 q 1422 724 1429 717 q 1404 751 1408 736 m 1424 682 q 1399 710 1411 696 q 1392 740 1394 725 q 1411 725 1406 729 q 1424 703 1422 715 l 1424 682 m 1343 618 q 1290 707 1304 678 q 1258 806 1268 753 q 1239 914 1244 875 q 1233 1006 1233 953 l 1258 1003 q 1288 815 1258 913 q 1365 647 1313 729 l 1343 618 m 1386 664 q 1382 647 1386 647 q 1349 707 1374 647 q 1304 821 1325 767 q 1294 856 1297 839 q 1292 888 1292 872 q 1296 932 1292 908 q 1303 971 1300 956 q 1324 956 1314 967 q 1338 937 1333 944 q 1343 915 1343 929 q 1340 886 1340 897 q 1344 858 1340 882 q 1351 799 1347 833 q 1363 772 1354 789 q 1374 740 1371 754 q 1382 706 1378 725 q 1386 664 1386 686 m 1461 939 q 1507 1011 1471 985 q 1503 981 1506 992 q 1489 929 1500 969 l 1464 872 q 1457 910 1457 896 q 1461 939 1457 922 m 1453 1033 q 1496 1053 1485 1050 q 1507 1047 1501 1050 q 1492 1033 1506 1038 q 1475 1024 1479 1029 q 1460 1004 1464 1010 q 1449 964 1449 986 q 1388 996 1422 992 q 1360 997 1367 1000 q 1364 989 1361 993 q 1403 961 1403 974 q 1393 955 1399 957 q 1381 954 1388 953 q 1357 958 1368 956 q 1267 1014 1299 993 q 1222 1068 1231 1039 l 1258 1068 q 1297 1057 1278 1065 q 1340 1040 1329 1043 q 1372 1032 1350 1038 q 1422 1026 1394 1026 l 1453 1033 z "}}}
